<svg id="Capa_1" enable-background="new 0 0 512 512" height="512" viewBox="0 0 512 512" width="512" xmlns="http://www.w3.org/2000/svg"><g><g><circle cx="256" cy="256" fill="#dff6fd" r="248.5"/><circle cx="256" cy="256" fill="#99e6fc" r="178.5"/><path d="m352.517 26.942c73.934 43.054 123.636 123.161 123.636 214.884 0 137.243-111.257 248.5-248.5 248.5-34.23 0-66.843-6.923-96.517-19.443 36.691 21.368 79.345 33.617 124.864 33.617 137.243 0 248.5-111.257 248.5-248.5 0-103.012-62.681-191.383-151.983-229.058z" fill="#c8effe"/><path d="m441.922 311.593c-10.225-39.681-49.317-64.765-89.649-57.525-34.219 6.143-65.829-3.915-89.611-24.255-20.212-17.287-46.321-27.876-74.895-28.331-65.376-1.04-119.601 51.806-120.172 117.188-.436 49.937 30.087 92.793 73.531 110.556l8.481 3.306c32.104 10.599 149.232 40.786 261.419-37.271 26.788-18.639 39.039-52.068 30.896-83.668z" fill="#9e5528"/><path d="m216.764 166.167 83.308-.448c6.6-.036 12.837-3.028 16.995-8.155l27.251-33.603c13.445-16.578 5.059-42.526-17.099-46.373 2.499-15.664-7.473-30.838-23.158-34.549-15.292-3.618-30.611 4.939-35.804 19.384-.221.615-.889.986-1.576.809-6.573-3.817-14.725-5.052-23.039-2.262-.631.212-1.352-.141-1.621-.75-6.208-14.008-22.064-21.446-37.045-16.774-15.388 4.798-24.274 20.633-20.687 36.083-21.797 5.377-28.413 31.829-13.816 47.455l30.071 32.192c4.195 4.489 10.074 7.024 16.22 6.991z" fill="#02905d"/><path d="m172.729 166.544 70.041-.377c5.549-.03 10.793-2.546 14.288-6.856l22.911-28.252c11.303-13.938 4.253-35.754-14.376-38.988 2.101-13.169-6.283-25.927-19.47-29.047-12.857-3.042-25.736 4.152-30.102 16.297-.186.517-.747.829-1.325.68-5.527-3.209-12.38-4.248-19.37-1.902-.531.178-1.136-.119-1.363-.631-5.22-11.777-18.55-18.03-31.145-14.103-12.937 4.034-20.408 17.347-17.392 30.337-18.326 4.52-23.888 26.76-11.616 39.897l25.282 27.065c3.527 3.777 8.471 5.908 13.637 5.88z" fill="#7acaa6"/><path d="m300.072 165.718c6.6-.035 12.837-3.028 16.995-8.155l27.251-33.603c13.445-16.578 5.059-42.526-17.099-46.373 2.499-15.664-7.473-30.838-23.158-34.549-7.306-1.728-14.614-.673-20.825 2.471 11.672 5.896 18.505 18.81 16.388 32.079 22.158 3.847 30.544 29.795 17.099 46.373l-27.251 33.603c-4.158 5.127-10.394 8.119-16.995 8.155h27.595z" fill="#017b4e"/><path d="m242.77 166.167c5.549-.03 10.793-2.546 14.288-6.856l22.911-28.252c11.303-13.938 4.253-35.754-14.376-38.988 2.101-13.169-6.283-25.927-19.47-29.047-7.065-1.672-14.134-.247-19.796 3.387 8.399 5.399 13.123 15.404 11.487 25.66 18.629 3.234 25.68 25.05 14.376 38.988l-22.911 28.252c-3.495 4.31-8.739 6.826-14.288 6.856z" fill="#57be92"/><path d="m432.768 227.168h-103c-3.314 0-6-2.686-6-6v-16c0-3.314 2.686-6 6-6h103c3.314 0 6 2.686 6 6v16c0 3.314-2.687 6-6 6z" fill="#fdb441"/><path d="m450.768 199.168h-103c-3.314 0-6-2.686-6-6v-16c0-3.314 2.686-6 6-6h103c3.314 0 6 2.686 6 6v16c0 3.314-2.687 6-6 6z" fill="#fece85"/><path d="m432.768 227.168h-103c-3.314 0-6-2.686-6-6v-16c0-3.314 2.686-6 6-6h103c3.314 0 6 2.686 6 6v16c0 3.314-2.687 6-6 6z" fill="#fdb441"/><path d="m450.768 199.168h-103c-3.314 0-6-2.686-6-6v-16c0-3.314 2.686-6 6-6h103c3.314 0 6 2.686 6 6v16c0 3.314-2.687 6-6 6z" fill="#fece85"/><path d="m432.768 199.168h-16.678v10.661c0 3.314-2.686 6-6 6h-86.323v5.339c0 3.314 2.686 6 6 6h103c3.314 0 6-2.686 6-6v-16c.001-3.314-2.686-6-5.999-6z" fill="#fea613"/><path d="m450.768 171.168h-16.678v10.661c0 3.314-2.686 6-6 6h-86.323v5.339c0 3.314 2.686 6 6 6h103c3.314 0 6-2.686 6-6v-16c.001-3.314-2.686-6-5.999-6z" fill="#fec165"/><path d="m244.49 417.703c-36.256-.002-72.021-7.521-92.203-15.775-33.854-13.841-55.522-46.421-55.203-83.002.429-49.094 41.21-88.795 90.214-87.958 20.595.328 40.552 7.876 56.196 21.255 25.047 21.423 56.664 33.22 89.027 33.219 18.496 0 24.054-3.126 33.654-3.126 22.227 0 41.632 15.065 47.19 36.636 5.065 19.656-2.643 40.595-19.181 52.101-44.487 30.953-94.855 46.651-149.684 46.651-.006-.001-.003-.001-.01-.001z" fill="#c86d36"/><g><path d="m90.668 365.551c-1.862 0-3.724-.71-5.144-2.13-2.841-2.842-2.841-7.447 0-10.289l130.794-130.794c2.841-2.84 7.447-2.84 10.288 0 2.841 2.842 2.841 7.447 0 10.289l-130.794 130.794c-1.42 1.42-3.282 2.13-5.144 2.13z" fill="#9e5528"/></g><g><path d="m126.718 407.871c-1.862 0-3.724-.71-5.144-2.13-2.841-2.842-2.841-7.447 0-10.289l142.546-142.547c2.841-2.84 7.447-2.84 10.288 0 2.841 2.842 2.841 7.447 0 10.289l-142.545 142.547c-1.421 1.42-3.283 2.13-5.145 2.13z" fill="#9e5528"/></g><g><path d="m187.98 424.978c-1.862 0-3.724-.71-5.144-2.13-2.841-2.842-2.841-7.447 0-10.289l139.368-139.367c2.841-2.84 7.447-2.84 10.288 0 2.841 2.842 2.841 7.447 0 10.289l-139.367 139.367c-1.421 1.42-3.283 2.13-5.145 2.13z" fill="#9e5528"/></g><path d="m403.081 291.261c2.841-2.842 2.841-7.447 0-10.289-2.841-2.84-7.447-2.84-10.288 0l-140.216 140.215c-2.81 2.81-2.836 7.343-.088 10.191 4.011-.472 8.072-1.041 12.173-1.698z" fill="#9e5528"/><path d="m441.922 311.593c-7.229-28.054-28.893-48.793-55.216-55.991 13.229 10.29 23.243 24.866 27.72 42.242 8.143 31.601-4.109 65.029-30.896 83.667-114.263 79.502-233.651 46.717-263.112 36.705 12.079 8.04 21.096 11.16 29.187 14.314 32.101 10.598 149.231 40.789 261.421-37.271 26.788-18.637 39.039-52.066 30.896-83.666z" fill="#904d24"/><ellipse cx="270.972" cy="153.393" fill="#ee6161" rx="23.124" ry="24.498"/><path d="m262.666 130.856c8.717 3.766 14.819 12.437 14.819 22.536s-6.102 18.77-14.819 22.536c2.982 1.288 6.268 2.005 9.723 2.005 13.554 0 24.542-10.988 24.542-24.542 0-17.688-18.153-29.496-34.265-22.535z" fill="#e94444"/><ellipse cx="233.281" cy="153.393" fill="#f79595" rx="23.124" ry="24.498"/><path d="m224.976 130.856c8.717 3.766 14.819 12.437 14.819 22.536s-6.102 18.77-14.819 22.536c2.982 1.288 6.268 2.005 9.723 2.005 13.554 0 24.542-10.988 24.542-24.542-.001-17.688-18.153-29.496-34.265-22.535z" fill="#f47c7c"/></g><g><path d="m256 0c-.004 0 0 0-.004 0-65.016 0-127.003 24.406-174.531 68.719-3.03 2.824-3.196 7.57-.372 10.6 2.826 3.031 7.571 3.195 10.6.371 44.745-41.717 103.097-64.691 164.307-64.69 132.888 0 241 108.112 241 241s-108.112 241-241 241-241-108.112-241-241c0-55.019 19.023-108.824 53.565-151.503 2.605-3.221 2.108-7.942-1.112-10.549-3.219-2.605-7.941-2.108-10.548 1.111-36.696 45.342-56.905 102.499-56.905 160.941 0 68.38 26.629 132.668 74.98 181.02 48.353 48.351 112.64 74.98 181.02 74.98 141.491 0 256-114.497 256-256 0-141.491-114.497-256-256-256z"/><path d="m397.558 284.415c-.017-.011-.034-.024-.051-.035-9.033-6.076-19.853-9.565-31.332-9.565-10.656 0-15.671 3.127-33.653 3.127-30.577.001-60.463-11.157-84.153-31.419-36.457-31.178-92.607-31.749-129.627 4.327-18.578 18.104-28.933 42.258-29.158 68.011-.346 39.668 23.152 74.999 59.864 90.009 32.924 13.466 145.157 40.605 249.02-31.661 31.903-22.195 32.12-70.524-.91-92.794zm-268.348-22.821c15.684-15.284 36.286-23.497 57.968-23.127 3.918.063 7.807.427 11.643 1.048l-93.202 93.202c-.714-4.481-1.077-9.066-1.037-13.725.191-21.722 8.937-42.107 24.628-57.398zm-19.072 87.819 105.343-105.343c16.84 6.595 21.96 13.872 34.509 22.647l-115.812 115.812c-10.765-8.819-19.016-20.224-24.04-33.116zm36.723 41.647 116.191-116.19c13.118 7.257 27.23 12.432 41.821 15.335l-114.657 114.655c-13.76-2.691-31.099-7.127-43.355-13.8zm61.611 16.758 115.163-115.162c32.27 2.038 38.823-7.187 57.267-.111l-116.967 116.966c-19.131 1.371-37.377.652-55.463-1.693zm181.428-42.922c-31.164 21.683-65.3 35.654-101.897 41.759l106.003-106.003c19.557 17.928 17.24 49.395-4.106 64.244z"/><path d="m70.49 269.269c-7.132 16.328-10.324 33.159-10.399 50.457 0 53.63 33.872 99.393 78.312 116.485 63.358 24.701 151.304 26.724 226.643-6.498 3.79-1.671 5.508-6.099 3.836-9.889s-6.1-5.506-9.888-3.836c-71.362 31.467-155.268 29.589-215.084 6.271-41.81-17.116-68.82-57.357-68.82-102.532.262-59.04 45.448-104.425 100.795-110.265 26.976-2.547 53.606 4.816 75.532 21 7.763 5.766 35.454 34.196 84.196 32.848 20.03-.562 27.885-6.383 49.442-.406 57.91 16.06 70.231 92.424 21.688 126.2-5.697 3.965-11.578 7.755-17.479 11.266-3.56 2.118-4.729 6.721-2.61 10.28 2.118 3.559 6.72 4.73 10.28 2.61 6.205-3.692 12.388-7.677 18.376-11.844 22.894-15.93 36.563-42.143 36.563-70.119 0-15.359-3.994-30.8-12.41-44.683 1.678-10.087 2.537-20.369 2.537-30.614 0-8.783-.643-17.618-1.893-26.352 3.702-2.41 6.161-6.577 6.161-11.315v-14.5h4.5c7.444 0 13.5-6.056 13.5-13.5v-16c0-7.444-6.056-13.5-13.5-13.5h-35.056c-14.452-24.156-34.324-44.892-57.829-60.346-.369-2.593-1.002-5.165-1.94-7.667-3.68-9.813-11.245-17.268-20.855-20.845-.385-16.983-12.258-32.204-29.3-36.236-16.653-3.934-33.542 3.687-41.782 18.065-5.643-1.924-11.639-2.365-17.585-1.279-9.015-14.546-26.908-21.467-43.676-16.24-10.138 3.16-18.365 10.416-22.904 19.764-6.106-1.797-12.776-1.863-19.255.157-14.315 4.464-23.638 18.009-23.309 32.506-7.801 3.784-13.659 10.596-16.192 19.123-1.945 6.547-1.684 13.46.516 19.725-33.314 34.801-51.601 80.204-51.601 128.44 0 4.349.171 8.802.49 13.269zm360.778-52.436h-100v-13h100zm18-28c-11.731 0-88.418 0-100 0v-13h100zm-51.299-28h-50.201c-7.444 0-13.5 6.056-13.5 13.5v14.5h-4.5c-7.444 0-13.5 6.056-13.5 13.5v16c0 7.444 6.056 13.5 13.5 13.5h95.51c1.143 8.011 1.722 16.114 1.722 24.167 0 4.696-.194 9.402-.58 14.09-10.828-10.72-24.597-18.565-39.923-22.31-19.649-4.796-33.816-1.209-40.529-.326-33.407 4.394-55.909-5.345-81.568-25.934-27.596-22.199-60.737-30.824-93.381-26.619-33.593 4.112-64.128 20.96-85.6 49.047 2.681-38.638 18.224-74.752 44.584-103.431 3.667 3.994 10.038 10.74 23.608 25.267 4.781 5.119 11.612 8.26 19.159 8.26 9.179-.049 27.887-.151 37.259-.2 10.816 13.101 29.864 15.39 43.498 5.452 13.781 10.055 33.245 7.542 44.012-6.063l2.574-.014c8.883-.049 17.186-4.033 22.779-10.931l27.251-33.604c2.539-3.131 4.722-6.933 6.153-11.085 16.279 11.842 30.429 26.525 41.673 43.234zm-146.31-9.05c.945 10.04-6.991 18.651-16.961 18.651-9.392 0-17.042-7.648-17.042-17.042 0-9.396 7.645-17.041 17.042-17.041 8.631.001 16.122 6.617 16.961 15.432zm30.2-12.549c.056.037.109.078.165.116 8.305 5.717 9.893 17.341 3.37 25.031-5.476 6.47-14.872 7.962-22.077 3.415 4.526-9.001 4.589-19.686-.003-28.812 5.859-3.696 13.123-3.388 18.545.25zm-6.545-74.275c3.969-11.041 15.583-17.333 27.02-14.622 11.691 2.766 19.369 14.217 17.479 26.069-.646 4.051 2.082 7.869 6.124 8.571 7.509 1.304 13.327 6.082 15.962 13.109 2.625 7.001 1.568 15.018-3.405 21.149-28.933 35.676-28.632 36.627-34.338 38.344 1.538-11.628-3.491-23.474-13.364-30.417 2.918-7.522 2.79-15.881-.17-23.317-3.189-8.009-9.414-14.167-17.245-17.319-.265-5.616-2.083-11.25-4.923-15.859 3.072-.493 5.743-2.599 6.86-5.708zm-68.106-14.354c8.409-2.625 17.284-.204 23.189 5.697-7.873 2.434-14.415 7.692-18.491 14.343-4.45-1.363-9.275-1.641-13.664-.956-1.374-2.101-3.211-4.327-5.316-6.258 2.654-6.078 7.837-10.816 14.282-12.826zm-71.746 61.502c1.675-5.639 5.961-9.692 11.76-11.123 3.982-.981 6.437-4.981 5.509-8.978-2.141-9.224 3.27-18.659 12.319-21.48 8.909-2.781 18.357 1.637 22.055 9.979 1.786 4.032 6.441 6.098 10.607 4.705 8.079-2.709 12.947 1.499 15.117 2.056 4.337 1.113 8.741-1.211 10.25-5.407 3.131-8.711 12.294-13.673 21.317-11.535 9.224 2.182 15.281 11.216 13.79 20.566-.646 4.051 2.082 7.869 6.124 8.571 10.747 1.865 16.076 12.804 12.508 22.196-8.048-1.119-16.507.888-23.275 5.819-5.225-3.806-11.872-6.126-18.846-6.126-19.808 0-34.97 17.9-31.569 37.529l-30.44.164c-3.032-.02-6.023-1.258-8.115-3.499-24.341-26.057-25.602-27.322-26.741-28.855-2.777-3.909-3.962-9.222-2.37-14.582z"/></g></g></svg>