<?xml version="1.0" encoding="iso-8859-1"?>
<!-- Generator: Adobe Illustrator 19.0.0, SVG Export Plug-In . SVG Version: 6.00 Build 0)  -->
<svg version="1.1" id="Capa_1" xmlns="http://www.w3.org/2000/svg" xmlns:xlink="http://www.w3.org/1999/xlink" x="0px" y="0px"
	 viewBox="0 0 512.002 512.002" style="enable-background:new 0 0 512.002 512.002;" xml:space="preserve">
<path style="fill:#5D6671;" d="M168.56,309.615h-63.957c-7.443,0-13.477-6.034-13.477-13.477l0,0
	c0-7.443,6.034-13.477,13.477-13.477h63.957V309.615z"/>
<path style="fill:#D6D8DB;" d="M351.015,444.281H209.144c-8.643,0-15.65-7.007-15.65-15.649c0-8.643,7.007-15.65,15.65-15.65
	h141.872c8.643,0,15.65,7.007,15.65,15.65C366.665,437.275,359.658,444.281,351.015,444.281z"/>
<path style="opacity:0.1;enable-background:new    ;" d="M351.015,444.281H209.144c-8.643,0-15.65-7.007-15.65-15.649
	c0-8.643,7.007-15.65,15.65-15.65h141.872c8.643,0,15.65,7.007,15.65,15.65C366.665,437.275,359.658,444.281,351.015,444.281z"/>
<g>
	<path style="fill:#D6D8DB;" d="M192.559,504.5c-1.296,0-2.611-0.161-3.924-0.501c-8.368-2.161-13.4-10.697-11.239-19.066
		l43.214-167.321c2.161-8.368,10.694-13.405,19.066-11.239c8.368,2.161,13.4,10.697,11.239,19.066L207.701,492.76
		C205.879,499.816,199.524,504.5,192.559,504.5z"/>
	<path style="fill:#D6D8DB;" d="M366.404,499.373c-6.965,0-13.319-4.684-15.142-11.74L309.244,325.44
		c-2.161-8.368,2.871-16.904,11.239-19.066c8.371-2.159,16.905,2.871,19.066,11.239l42.018,162.194
		c2.161,8.368-2.871,16.904-11.239,19.066C369.016,499.211,367.699,499.373,366.404,499.373z"/>
</g>
<path style="opacity:0.1;enable-background:new    ;" d="M239.676,306.374c-8.372-2.166-16.905,2.871-19.066,11.239l-14.869,57.57
	c7.22,1.889,14.796,2.899,22.608,2.899h8.969l13.596-52.641C253.076,317.071,248.044,308.536,239.676,306.374z"/>
<path style="opacity:0.1;enable-background:new    ;" d="M339.549,317.613c-2.161-8.368-10.694-13.398-19.066-11.239
	c-8.368,2.162-13.4,10.697-11.239,19.066l13.637,52.641h8.928c7.828,0,15.418-1.014,22.651-2.91L339.549,317.613z"/>
<path style="fill:#7CD9D2;" d="M331.809,356.357h-103.46c-49.188,0-89.063-39.875-89.063-89.063v-11.4
	c0-4.897,3.97-8.867,8.867-8.867h263.85c4.897,0,8.867,3.97,8.867,8.867v11.4C420.872,316.482,380.997,356.357,331.809,356.357z"/>
<path style="opacity:0.1;enable-background:new    ;" d="M149.967,309.615c15.061,27.834,44.513,46.741,78.382,46.741h103.46
	c33.869,0,63.322-18.907,78.382-46.741H149.967z"/>
<path style="opacity:0.1;enable-background:new    ;" d="M148.155,247.027c-4.897,0-8.867,3.97-8.867,8.867v11.4
	c0,49.188,39.875,89.062,89.063,89.062h30.115c-49.475-16.495-53.193-79.723-52.824-109.329L148.155,247.027L148.155,247.027z"/>
<path style="fill:#7CD9D2;" d="M198.113,33.586l-73.157,73.157c-34.781,34.781-34.781,91.172,0,125.953l8.061,8.061
	c3.463,3.463,9.077,3.463,12.54,0l186.57-186.57c3.463-3.463,3.463-9.077,0-12.54l-8.061-8.061
	C289.285-1.195,232.894-1.195,198.113,33.586z"/>
<path style="opacity:0.1;enable-background:new    ;" d="M136.521,95.178l-11.564,11.564c-34.781,34.781-34.781,91.172,0,125.953
	l8.061,8.061c3.463,3.463,9.077,3.463,12.54,0l38.45-38.45C161.258,192.43,130.856,132.141,136.521,95.178z"/>
<circle style="fill:#D6D8DB;" cx="139.289" cy="247.03" r="17.855"/>
<path style="fill:#F18290;" d="M385.534,214.698H245.029c-5.118,0-9.267,4.149-9.267,9.267v13.796c0,5.118,4.149,9.267,9.267,9.267
	h140.505c5.118,0,9.267-4.149,9.267-9.267v-13.796C394.8,218.847,390.651,214.698,385.534,214.698z"/>
<path style="opacity:0.1;enable-background:new    ;" d="M275.642,247.027c-3.701-8.696-4.246-22.368-1.881-32.329h-28.732
	c-5.118,0-9.267,4.149-9.267,9.267v13.795c0,5.118,4.149,9.267,9.267,9.267H275.642z"/>
<circle style="fill:#5D6671;" cx="365.999" cy="479.81" r="24.694"/>
<circle style="fill:#FFFFFF;" cx="365.999" cy="479.81" r="7.254"/>
<path d="M361.004,174.275c0,2.367-0.922,4.592-2.596,6.265c-2.929,2.929-2.929,7.678,0,10.607c1.465,1.464,3.384,2.197,5.304,2.197
	c1.919,0,3.839-0.732,5.303-2.196c4.507-4.507,6.989-10.499,6.989-16.872s-2.483-12.366-6.989-16.873
	c-1.674-1.673-2.596-3.898-2.596-6.265s0.922-4.592,2.596-6.265c2.929-2.929,2.929-7.678,0.001-10.607
	c-2.929-2.928-7.678-2.929-10.607-0.001c-4.507,4.507-6.989,10.499-6.989,16.873s2.482,12.366,6.989,16.872
	C360.082,169.683,361.004,171.908,361.004,174.275z M412.004,239.527h-9.799c0.061-0.581,0.095-1.17,0.095-1.767v-13.796
	c0-9.245-7.522-16.767-16.767-16.767h-11.425c-4.142,0-7.5,3.358-7.5,7.5s3.358,7.5,7.5,7.5h11.425c0.974,0,1.767,0.792,1.767,1.767
	v13.796c0,0.974-0.793,1.767-1.767,1.767H245.029c-0.974,0-1.767-0.792-1.767-1.767v-13.796c0-0.974,0.792-1.767,1.767-1.767h93.685
	c4.142,0,7.5-3.358,7.5-7.5s-3.358-7.5-7.5-7.5h-93.685c-9.245,0-16.767,7.521-16.767,16.767v13.796
	c0,0.597,0.034,1.186,0.095,1.767h-64.848c-0.467-1.504-1.074-2.946-1.799-4.317l175.72-175.72c6.382-6.382,6.382-16.765,0-23.147
	l-8.061-8.061C311.132,10.044,286.883,0,261.09,0s-50.042,10.044-68.28,28.283l-9.497,9.497l-5.554-5.554
	c-6.95-6.95-17.814-7.395-24.22-0.99l-30.932,30.932c-6.405,6.405-5.961,17.27,0.99,24.22l5.554,5.554l-9.498,9.498
	c-36.706,36.707-37.608,95.845-2.741,133.676c-1.9,3.554-2.98,7.608-2.98,11.911c0,11.403,7.568,21.07,17.944,24.248
	c0.053,1.302,0.129,2.599,0.234,3.887h-27.506c-11.566,0-20.977,9.41-20.977,20.977c0,11.566,9.41,20.976,20.977,20.976h41.058
	c12.493,20.657,32.503,36.282,56.213,43.051l-22.921,88.748c-1.036,4.011,1.376,8.102,5.386,9.137c0.629,0.163,1.26,0.24,1.881,0.24
	c3.337,0,6.383-2.245,7.256-5.626l23.121-89.525c3.853,0.47,7.774,0.716,11.752,0.716h4.897l-32.808,127.029
	c-0.93,3.601-4.17,6.115-7.88,6.115c-0.685,0-1.374-0.088-2.048-0.263c-2.107-0.544-3.877-1.877-4.982-3.752
	s-1.415-4.068-0.87-6.176l2.946-11.407c1.036-4.011-1.376-8.102-5.386-9.137c-4.014-1.036-8.102,1.375-9.137,5.386l-2.946,11.407
	c-1.546,5.987-0.669,12.218,2.472,17.545c3.14,5.327,8.166,9.112,14.151,10.658c1.898,0.491,3.85,0.74,5.801,0.74
	c10.55,0,19.763-7.141,22.404-17.364l11.068-42.854h108.196l3.348,12.922c-2.405,4.507-3.774,9.648-3.774,15.104
	c0,17.751,14.442,32.193,32.193,32.193c17.752,0,32.194-14.442,32.194-32.193c0-11.887-6.481-22.283-16.09-27.859l-23.779-91.791
	c40.397-11.549,70.054-48.807,70.054-92.862v-11.4C428.372,246.869,421.029,239.527,412.004,239.527z M133.213,72.774l30.931-30.931
	c0.31-0.308,1.765-0.254,3.008,0.989l5.554,5.554l-32.949,32.949l-5.554-5.554c-0.948-0.948-1.111-1.891-1.138-2.252
	C133.04,73.185,133.098,72.889,133.213,72.774z M130.259,112.046l73.157-73.157C218.822,23.484,239.304,15,261.09,15
	s42.268,8.484,57.673,23.889l8.061,8.061c0.533,0.533,0.533,1.401,0,1.934l-175.72,175.72c-3.531-1.869-7.552-2.932-11.817-2.932
	c-4.229,0-8.215,1.046-11.724,2.884C98.491,192.586,99.386,142.919,130.259,112.046z M104.603,302.115
	c-3.295,0-5.977-2.681-5.977-5.976s2.681-5.977,5.977-5.977h29.927c0.998,4.092,2.254,8.083,3.756,11.953H104.603z M139.287,257.382
	c-5.71,0-10.355-4.646-10.355-10.355c0-5.71,4.646-10.355,10.355-10.355c5.71,0,10.355,4.646,10.355,10.355
	C149.643,252.737,144.997,257.382,139.287,257.382z M229.905,436.781l4.21-16.299h92.004l4.222,16.299H229.905z M237.989,405.482
	l10.751-41.626h62.71l10.784,41.626H237.989z M383.188,479.807c0,9.48-7.713,17.193-17.194,17.193
	c-9.48,0-17.193-7.713-17.193-17.193c0-9.481,7.713-17.194,17.193-17.194C375.475,462.613,383.188,470.326,383.188,479.807z
	 M365.482,447.626c-5.717,0.09-11.075,1.675-15.701,4.385l-22.837-88.154h4.865c3.989,0,7.922-0.248,11.786-0.72L365.482,447.626z
	 M413.372,267.294c0,44.974-36.589,81.563-81.563,81.563H228.35c-43.658,0-79.408-34.481-81.463-77.639
	c7.913-2.491,14.164-8.764,16.623-16.691h248.495c0.754,0,1.367,0.613,1.367,1.367V267.294z M284.565,191.148
	c1.464,1.464,3.384,2.197,5.303,2.197s3.839-0.732,5.303-2.197c9.303-9.303,9.303-24.441,0-33.745
	c-1.674-1.673-2.595-3.898-2.595-6.265s0.921-4.592,2.595-6.265c2.929-2.929,2.929-7.678,0-10.607
	c-2.93-2.929-7.678-2.928-10.607-0.001c-4.507,4.507-6.989,10.499-6.989,16.873s2.482,12.366,6.988,16.872
	c3.455,3.455,3.455,9.077,0.001,12.532C281.636,183.47,281.636,188.219,284.565,191.148z M321.486,191.148
	c1.465,1.464,3.384,2.197,5.304,2.197c1.919,0,3.839-0.732,5.303-2.196c4.507-4.507,6.989-10.499,6.989-16.872
	s-2.482-12.366-6.989-16.873c-1.673-1.674-2.595-3.899-2.595-6.266s0.922-4.592,2.595-6.266c2.929-2.929,2.929-7.678,0-10.607
	s-7.678-2.929-10.606,0c-9.303,9.303-9.303,24.441,0,33.744c1.674,1.674,2.596,3.899,2.596,6.266s-0.922,4.592-2.596,6.265
	C318.558,183.47,318.558,188.218,321.486,191.148z"/>
<g>
</g>
<g>
</g>
<g>
</g>
<g>
</g>
<g>
</g>
<g>
</g>
<g>
</g>
<g>
</g>
<g>
</g>
<g>
</g>
<g>
</g>
<g>
</g>
<g>
</g>
<g>
</g>
<g>
</g>
</svg>
