<?xml version="1.0" encoding="iso-8859-1"?>
<!-- Generator: Adobe Illustrator 21.0.0, SVG Export Plug-In . SVG Version: 6.00 Build 0)  -->
<svg xmlns="http://www.w3.org/2000/svg" xmlns:xlink="http://www.w3.org/1999/xlink" version="1.1" id="Capa_1" x="0px" y="0px" viewBox="0 0 510.707 510.707" style="enable-background:new 0 0 510.707 510.707;" xml:space="preserve" width="512" height="512">
<g>
	<path style="fill:#FFDF65;" d="M389.17,189.029c-33.55,0-62.873,18.047-78.828,44.954c2.338,5.581,4.273,11.372,5.76,17.34h159.876   C463.758,215.107,429.51,189.029,389.17,189.029z"/>
	<path style="fill:#F4B70C;" d="M439.734,251.324c-9.365-18.479-28.483-31.147-50.564-31.147s-41.199,12.669-50.564,31.147H439.734z   "/>
	<path style="fill:#B32425;" d="M182.38,454.987h186.091v33.22c0,8.284-6.716,15-15,15H197.38c-8.284,0-15-6.716-15-15V454.987z"/>
	<path style="fill:#F2433B;" d="M51.539,251.324c0,90.449,53.64,168.361,130.84,203.685v-0.021h186.091v0.021   c77.2-35.324,130.841-113.236,130.841-203.685H51.539z"/>
	<path style="fill:#9E1219;" d="M341.471,454.987v33.22c0,8.284-6.716,15-15,15h27c8.284,0,15-6.716,15-15v-33.22H341.471z"/>
	<g>
		<path style="fill:#D72E2E;" d="M182.38,455.008v-0.021h-0.045C182.35,454.994,182.365,455.001,182.38,455.008z"/>
		<path style="fill:#D72E2E;" d="M472.312,251.324c0,90.431-53.62,168.33-130.796,203.664h26.955v0.021    c77.2-35.324,130.841-113.236,130.841-203.685H472.312z"/>
	</g>
	<path style="fill:#FFA035;" d="M60.113,312.883h430.624c5.582-19.558,8.574-40.209,8.574-61.559H51.539   C51.539,272.674,54.531,293.324,60.113,312.883z"/>
	<path style="fill:#F78819;" d="M472.312,251.324c0,21.35-2.992,42.001-8.574,61.559h27c5.582-19.558,8.574-40.209,8.574-61.559   H472.312z"/>
	<g>
		<path style="fill:#6E563D;" d="M181.199,161.099c5.77-0.846,11.67-1.288,17.675-1.288c2.679,0,5.337,0.088,7.973,0.26    l-89.8-145.439c-4.429-7.172-13.894-9.29-20.957-4.69c-7.063,4.601-8.952,14.115-4.182,21.065L181.199,161.099z"/>
	</g>
	<g>
		<path style="fill:#6E563D;" d="M132.119,179.918L37.623,73.463c-5.596-6.304-15.285-6.763-21.452-1.016    c-6.167,5.747-6.392,15.444-0.498,21.47l98.433,100.637C119.62,189.123,125.649,184.216,132.119,179.918z"/>
	</g>
	<path style="fill:#F4B70C;" d="M310.342,233.983c15.955-26.907,45.278-44.954,78.828-44.954c3.838,0,7.619,0.239,11.333,0.697   c-12.183-36.283-46.462-62.423-86.85-62.423c-31.09,0-58.557,15.493-75.115,39.176c32.596,11.327,58.833,36.227,71.972,67.93   C310.453,234.268,310.401,234.124,310.342,233.983z"/>
	<path style="fill:#FFDF65;" d="M310.342,233.983c13.155-22.186,35.403-38.336,61.61-43.325   c-10.493-21.62-32.653-36.527-58.298-36.527c-20.411,0-38.605,9.451-50.477,24.204c20.938,13.192,37.538,32.636,47.19,55.71   C310.358,234.025,310.351,234.004,310.342,233.983z"/>
	<path style="fill:#F4B70C;" d="M310.342,233.983c8.326-14.04,20.296-25.66,34.603-33.57c-6.328-10.689-17.969-17.86-31.291-17.86   c-11.482,0-21.714,5.33-28.375,13.645c10.731,10.982,19.373,24.007,25.319,38.429C310.51,234.414,310.431,234.196,310.342,233.983z   "/>
	<path style="fill:#FFDF65;" d="M316.102,251.324c-13.096-52.564-60.61-91.513-117.229-91.513S94.742,198.76,81.645,251.324H316.102   z"/>
	<path style="fill:#F4B70C;" d="M285.682,251.324c-12.22-36.217-46.468-62.295-86.808-62.295c-40.34,0-74.588,26.078-86.808,62.295   H285.682z"/>
	<path style="fill:#FFDF65;" d="M250.54,251.324c-9.569-18.823-29.105-31.728-51.667-31.728c-22.562,0-42.098,12.905-51.667,31.728   H250.54z"/>
	<path d="M499.312,243.823h-18.125c-12.864-32.21-41.495-55.06-75.163-60.845c-14.745-37.973-51.289-63.176-92.371-63.176   c-30.456,0-59.175,14.063-77.913,37.876c-7.898-2.357-16.095-3.969-24.502-4.773L123.429,10.691   c-3.213-5.203-8.268-8.803-14.234-10.138c-5.967-1.335-12.075-0.233-17.199,3.104c-5.123,3.337-8.6,8.477-9.79,14.475   c-1.191,5.998,0.059,12.077,3.519,17.118l82.822,120.666c-12.457,3.011-24.256,7.841-35.069,14.233L43.232,68.485   c-4.06-4.573-9.658-7.251-15.766-7.54c-6.1-0.286-11.936,1.847-16.409,6.016c-4.474,4.168-7.015,9.831-7.156,15.943   C3.76,89.016,6.037,94.79,10.313,99.16l93.297,95.386c-12.516,13.853-22.106,30.558-27.683,49.277H51.539   c-4.143,0-7.5,3.358-7.5,7.5c0,45.194,13.035,88.98,37.696,126.625c23.141,35.322,55.276,63.524,93.145,81.815v28.444   c0,12.407,10.094,22.5,22.5,22.5h156.091c12.406,0,22.5-10.093,22.5-22.5v-28.444c37.869-18.291,70.004-46.493,93.145-81.815   c24.661-37.644,37.696-81.43,37.696-126.625C506.812,247.181,503.454,243.823,499.312,243.823z M464.807,243.823h-20.656   c-11.596-19.326-32.257-31.147-54.981-31.147c-22.724,0-43.385,11.822-54.981,31.147h-12.367c-0.922-3.093-1.955-6.129-3.09-9.108   c15.457-23.64,42.111-38.187,70.439-38.187C421.691,196.529,450.881,215.156,464.807,243.823z M425.569,243.823h-72.798   c9.184-10.172,22.271-16.147,36.399-16.147S416.385,233.651,425.569,243.823z M347.336,190.884   c-8.26-9.89-20.621-15.831-33.683-15.831c-10.585,0-20.597,3.769-28.469,10.519c-3.354-3.044-6.866-5.907-10.522-8.578   c10.538-9.835,24.352-15.364,38.991-15.364c18.952,0,36.155,9.084,46.78,24.207C355.946,187.209,351.572,188.903,347.336,190.884z    M313.653,190.053c7.658,0,14.958,3.102,20.305,8.386c-8.427,5.654-16.014,12.596-22.418,20.641   c-4.469-8.205-9.791-15.825-15.831-22.764C300.762,192.285,307.041,190.053,313.653,190.053z M313.653,134.803   c32.317,0,61.319,18.38,75.352,46.728c-4.366,0.007-8.698,0.308-12.971,0.887c-12.866-21.907-36.767-35.788-62.381-35.788   c-19.769,0-38.357,7.962-51.944,22.045c-3.576-2.004-7.253-3.843-11.022-5.502C266.564,145.262,289.463,134.803,313.653,134.803z    M98.091,26.762c-2.351-3.427-1.397-8.274,2.091-10.536c3.493-2.266,8.296-1.197,10.483,2.346l82.649,133.857   c-2.864,0.122-5.705,0.341-8.523,0.649L98.091,26.762z M18.897,83.25c0.154-6.678,8.69-9.796,13.116-4.808l88.913,100.165   c-2.269,1.732-4.479,3.538-6.628,5.417L21.035,88.672C19.609,87.214,18.85,85.289,18.897,83.25z M198.874,167.31   c48.879,0,91.667,31.009,107.206,76.513h-15.179c-10.668-26.599-32.744-47.691-59.979-56.995c-3.919-1.337-8.182,0.752-9.522,4.673   c-1.339,3.92,0.753,8.183,4.673,9.522c21.178,7.234,38.674,22.87,48.421,42.801h-19.539   c-11.811-19.684-32.893-31.727-56.081-31.727c-23.188,0-44.271,12.043-56.082,31.727h-19.555   c13.927-28.668,43.117-47.295,75.637-47.295c4.143,0,7.5-3.358,7.5-7.5s-3.357-7.5-7.5-7.5c-40.745,0-77.051,24.822-92.018,62.295   H91.667C107.205,198.32,149.994,167.31,198.874,167.31z M236.397,243.823h-75.047c9.425-10.532,22.932-16.727,37.523-16.727   C213.466,227.096,226.973,233.291,236.397,243.823z M456.567,369.728c-22.174,33.846-53.171,60.7-89.718,77.759H250.54   c-4.143,0-7.5,3.358-7.5,7.5s3.357,7.5,7.5,7.5h110.431v25.72c0,4.136-3.364,7.5-7.5,7.5H197.38c-4.136,0-7.5-3.364-7.5-7.5v-25.72   h30.66c4.143,0,7.5-3.358,7.5-7.5s-3.357-7.5-7.5-7.5H184c-36.544-17.06-67.544-43.914-89.717-77.759   C84.153,354.264,76.122,337.69,70.3,320.383h330.203c4.143,0,7.5-3.358,7.5-7.5c0-4.142-3.357-7.5-7.5-7.5H65.859   c-3.893-15.139-6.15-30.737-6.692-46.559h432.517c-0.541,15.823-2.798,31.42-6.692,46.559h-54.489c-4.143,0-7.5,3.358-7.5,7.5   c0,4.142,3.357,7.5,7.5,7.5h50.048C474.729,337.69,466.698,354.264,456.567,369.728z"/>
</g>















</svg>
