<?xml version="1.0" encoding="UTF-8"?>
<svg xmlns="http://www.w3.org/2000/svg" xmlns:xlink="http://www.w3.org/1999/xlink" version="1.1" id="Capa_1" x="0px" y="0px" viewBox="0 0 512 512" style="enable-background:new 0 0 512 512;" xml:space="preserve" width="512" height="512">
<g>
	<path style="fill-rule:evenodd;clip-rule:evenodd;fill:#01998D;" d="M450.671,198.768c0.539-4.976-0.624-6.531-5.641-6.361&#10;&#9;&#9;c-14.088,0.481-30.047,5.739-40.818,13.232c-11.338,4.608-11.055,22.024-13.776,30.704c-3.231,8.143,7.313,11.564,32.74,9.189&#10;&#9;&#9;C439.106,234.562,449.169,213.414,450.671,198.768L450.671,198.768z"/>
	<path style="fill-rule:evenodd;clip-rule:evenodd;fill:#FFC344;" d="M108.903,160.374l-38.069-39.158&#10;&#9;&#9;c0.482-0.368,0.935-0.792,1.389-1.216c8.192-7.916,8.39-20.978,0.454-29.149c-7.965-8.171-21.033-8.369-29.253-0.452&#10;&#9;&#9;c-8.164,7.945-8.362,21.007-0.425,29.177c-7.937-8.171-21.033-8.369-29.225-0.452c-8.192,7.945-8.39,20.978-0.425,29.149&#10;&#9;&#9;c7.937,8.171,21.033,8.369,29.225,0.452c0.425-0.452,0.85-0.876,1.247-1.357l39.486,40.571&#10;&#9;&#9;C100.286,191.446,111.057,183.331,108.903,160.374L108.903,160.374z"/>
	<path style="fill-rule:evenodd;clip-rule:evenodd;fill:#FEB237;" d="M72.223,120c8.192-7.916,8.39-20.978,0.454-29.149&#10;&#9;&#9;c-7.03-7.21-18.028-8.199-26.135-2.912c19.814-0.481,22.677,20.837,12.699,30.478c-2.069,2.036-4.422,6.192,0.454,10.97&#10;&#9;&#9;l40.195,40.741c3.855-2.799,8.107-4.806,12.614-6.05l-41.669-42.861C71.316,120.849,71.77,120.425,72.223,120L72.223,120z"/>
	<path style="fill-rule:evenodd;clip-rule:evenodd;fill:#BC7C63;" d="M188.272,199.136c-22.648-30.365-54.963-45.519-79.369-38.762&#10;&#9;&#9;c-6.293,1.753-12.047,4.948-16.979,9.726c-4.847,4.665-7.54,10.857-8.617,17.84c-2.523,16.37,3.827,37.066,12.529,52.955&#10;&#9;&#9;C167.154,246.125,194.281,211.321,188.272,199.136L188.272,199.136z"/>
	<path style="fill-rule:evenodd;clip-rule:evenodd;fill:#AA6A51;" d="M188.272,199.136c-22.648-30.365-54.963-45.519-79.369-38.762&#10;&#9;&#9;c-6.293,1.753-12.047,4.948-16.979,9.726c-2.438,2.347-4.309,5.061-5.726,8.058c2.409-1.216,4.932-2.205,7.54-2.912&#10;&#9;&#9;c20.636-5.739,50.909-0.113,79.227,42.437C182.291,222.715,181.639,208.438,188.272,199.136L188.272,199.136z"/>
	<path style="fill-rule:evenodd;clip-rule:evenodd;fill:#A8D3D8;" d="M465.099,380.958H258.938H49.348v28.216&#10;&#9;&#9;c0,10.009,8.22,18.236,18.283,18.236h379.185c10.034,0,18.283-8.227,18.283-18.236V380.958z"/>
	<path style="fill-rule:evenodd;clip-rule:evenodd;fill:#8EBAC5;" d="M465.099,409.174v-28.216h-40.223h-11.99v28.216&#10;&#9;&#9;c0,10.009-8.22,18.236-18.283,18.236h52.213C456.85,427.41,465.099,419.183,465.099,409.174L465.099,409.174z"/>
	<path style="fill-rule:evenodd;clip-rule:evenodd;fill:#FFC344;" d="M390.436,234.335c-3.827-10.942-13.975-18.914-26.107-19.536&#10;&#9;&#9;c-2.891-6.927-8.39-12.497-15.278-15.493c-3.572-1.527-7.512-2.403-11.679-2.403c-3.968,0-7.767,0.792-11.197,2.234&#10;&#9;&#9;c-3.402-12.355-14.74-21.431-28.176-21.431c-6.009,0-11.565,1.809-16.214,4.891c-5.187-8.058-14.258-13.373-24.576-13.373&#10;&#9;&#9;c-10.29,0-19.36,5.315-24.576,13.373c-4.62-3.082-10.205-4.891-16.186-4.891c-13.464,0-24.774,9.076-28.176,21.431&#10;&#9;&#9;c-3.458-1.442-7.228-2.234-11.225-2.234c-12.132,0-22.535,7.379-26.957,17.897c-12.104,0.622-22.252,8.595-26.078,19.536&#10;&#9;&#9;c-2.579-0.763-5.329-1.159-8.135-1.159c-6.86,0-13.153,2.347-18.141,6.305c-0.652,0.424-1.276,0.905-1.899,1.414&#10;&#9;&#9;c-5.584,4.524-9.439,11.055-10.488,18.519c-0.992-0.113-1.984-0.17-2.976-0.17c-16.157,0-29.225,13.062-29.225,29.149&#10;&#9;&#9;c0,1.979,0.198,3.93,0.567,5.796c-12.416,3.336-21.571,14.674-21.571,28.131c0,5.033,1.304,9.782,3.543,13.91l253.612,35.341&#10;&#9;&#9;l189.436-35.341c2.268-4.128,3.543-8.878,3.543-13.91c0-13.458-9.127-24.795-21.571-28.131c0.397-1.866,0.595-3.817,0.595-5.796&#10;&#9;&#9;c0-16.087-13.096-29.149-29.225-29.149c-1.02,0-2.013,0.057-3.005,0.17c-0.709-5.202-2.806-9.952-5.896-13.882&#10;&#9;&#9;c-1.842-2.318-4.025-4.382-6.463-6.05c-4.365-3.449-9.723-5.683-15.562-6.192c-0.85-0.085-1.701-0.113-2.58-0.113&#10;&#9;&#9;C395.736,233.176,393.015,233.572,390.436,234.335L390.436,234.335z"/>
	<path style="fill-rule:evenodd;clip-rule:evenodd;fill:#0ED2B3;" d="M404.212,205.639c-1.531-22.024-11.764-44.219-28.544-56.941&#10;&#9;&#9;c-4.79-3.619-5.953-3.478-9.779,1.131c-11.48,13.825-17.886,31.185-16.837,49.477c2.041,23.325,6.69,41.589,25.852,41.589&#10;&#9;&#9;c0.85,0,25.398-7.69,26.248-7.605C403.9,224.61,404.864,215.138,404.212,205.639L404.212,205.639z"/>
	<path style="fill-rule:evenodd;clip-rule:evenodd;fill:#EAF9FA;" d="M478.733,336.23H35.685H16.382&#10;&#9;&#9;c-3.543,0-6.435,2.884-6.435,6.418v20.922c0,15.041,12.331,27.368,27.411,27.368h11.99h209.59h206.161h11.962&#10;&#9;&#9;c15.08,0,27.439-12.327,27.439-27.368v-20.922c0-3.534-2.891-6.418-6.435-6.418H478.733z"/>
	<path style="fill-rule:evenodd;clip-rule:evenodd;fill:#FEB237;" d="M281.785,182.596c-5.187-8.058-14.258-13.373-24.576-13.373&#10;&#9;&#9;c-9.496,0-17.915,4.524-23.244,11.507c26.475-6.022,41.669,11.648,41.243,22.957c17.234-11.479,40.081,0.141,42.547,16.54&#10;&#9;&#9;c14.768-6.135,26.674,0.792,32.91,15.663c12.104,0.622,22.28,8.595,26.078,19.536c14.57-7.521,35.914,0.622,38.749,20.809&#10;&#9;&#9;c12.047-1.216,31.209,15.154,28.034,30.817c18.765,6.955,17.234,28.103,17.206,29.177l-0.425,14.306l18.425-14.306&#10;&#9;&#9;c2.268-4.128,3.543-8.878,3.543-13.91c0-13.458-9.127-24.795-21.571-28.131c0.397-1.866,0.595-3.817,0.595-5.796&#10;&#9;&#9;c0-16.087-13.096-29.149-29.225-29.149c-1.02,0-2.013,0.057-3.005,0.17c-0.709-5.202-2.806-9.952-5.896-13.882&#10;&#9;&#9;c-1.842-2.318-4.025-4.382-6.463-6.05c-4.365-3.449-9.723-5.683-15.562-6.192c-0.85-0.085-1.701-0.113-2.58-0.113&#10;&#9;&#9;c-2.835,0-5.556,0.396-8.135,1.159c-3.827-10.942-13.975-18.914-26.107-19.536c-2.891-6.927-8.39-12.497-15.278-15.493&#10;&#9;&#9;c-3.572-1.527-7.512-2.403-11.679-2.403c-3.968,0-7.767,0.792-11.197,2.234c-3.402-12.355-14.74-21.431-28.176-21.431&#10;&#9;&#9;C291.99,177.705,286.434,179.515,281.785,182.596L281.785,182.596z"/>
	<path style="fill:none;stroke:#000000;stroke-width:15;stroke-linecap:round;stroke-linejoin:round;stroke-miterlimit:10;" d="&#10;&#9;&#9;M380.855,294.867c7.568-7.549,19.842-7.549,27.382,0"/>
	<path style="fill:none;stroke:#000000;stroke-width:15;stroke-linecap:round;stroke-linejoin:round;stroke-miterlimit:10;" d="&#10;&#9;&#9;M95.836,240.895c-12.416-22.675-20.069-55.16-3.912-70.795c11.65-11.281,27.949-13.797,44.9-9.019&#10;&#9;&#9;c8.589,2.431,17.376,6.729,25.767,12.694"/>
	<path style="fill:none;stroke:#000000;stroke-width:15;stroke-linecap:round;stroke-linejoin:round;stroke-miterlimit:10;" d="&#10;&#9;&#9;M83.307,187.94l-39.486-40.571c-0.397,0.481-0.822,0.905-1.247,1.357c-8.192,7.916-21.288,7.719-29.225-0.452&#10;&#9;&#9;c-7.965-8.171-7.767-21.205,0.425-29.149c8.192-7.916,21.288-7.718,29.225,0.452c-7.937-8.171-7.738-21.233,0.425-29.177&#10;&#9;&#9;c8.22-7.916,21.288-7.718,29.253,0.452c7.937,8.171,7.738,21.233-0.454,29.149c-0.454,0.424-0.907,0.848-1.389,1.216l38.069,39.158&#10;&#9;&#9;"/>
	<path style="fill:none;stroke:#000000;stroke-width:15;stroke-linecap:round;stroke-linejoin:round;stroke-miterlimit:10;" d="&#10;&#9;&#9;M241.846,228.002c7.568-7.549,19.814-7.549,27.382,0"/>
	
		<line style="fill:none;stroke:#000000;stroke-width:15;stroke-linecap:round;stroke-linejoin:round;stroke-miterlimit:10;" x1="108.903" y1="292.068" x2="108.875" y2="292.04"/>
	
		<line style="fill:none;stroke:#000000;stroke-width:15;stroke-linecap:round;stroke-linejoin:round;stroke-miterlimit:10;" x1="255.537" y1="284.096" x2="255.509" y2="284.096"/>
	<path style="fill-rule:evenodd;clip-rule:evenodd;fill:#AA6A51;" d="M176.905,286.979c18.822,4.184,25.767-3.251,26.447-16.313&#10;&#9;&#9;c0.709-13.345-18-24.767-27.241-9.132c-2.92,4.919-13.663,4.637-18.595,9.556c-11.508,11.479-0.028,19.734,4.989,18.773&#10;&#9;&#9;C169.082,288.563,173.277,286.188,176.905,286.979L176.905,286.979z"/>
	<path style="fill-rule:evenodd;clip-rule:evenodd;fill:#AA6A51;" d="M345.252,277.225c4.677-17.755-17.745-27.623-31.889-31.157&#10;&#9;&#9;c-7.767-2.46-18.793,6.05-12.047,17.557c3.657,6.192,14.797,6.248,16.101,12.016C321.612,293.934,341.737,290.598,345.252,277.225&#10;&#9;&#9;L345.252,277.225z"/>
	<path style="fill-rule:evenodd;clip-rule:evenodd;fill:#D4F2F6;" d="M504.5,363.57v-20.922c0-3.534-2.891-6.418-6.435-6.418&#10;&#9;&#9;h-19.332h-18h-8.447v27.34c0,15.041-12.331,27.368-27.411,27.368h40.223h11.962C492.141,390.938,504.5,378.611,504.5,363.57&#10;&#9;&#9;L504.5,363.57z"/>
	<path style="fill:none;stroke:#000000;stroke-width:15;stroke-linecap:round;stroke-linejoin:round;stroke-miterlimit:10;" d="&#10;&#9;&#9;M301.316,263.626c3.657,6.192,14.797,6.248,16.101,12.016c4.195,18.292,24.321,14.956,27.836,1.583&#10;&#9;&#9;c4.677-17.755-17.745-27.623-31.889-31.157C305.596,243.609,294.569,252.119,301.316,263.626L301.316,263.626z"/>
	<path style="fill:none;stroke:#000000;stroke-width:15;stroke-linecap:round;stroke-linejoin:round;stroke-miterlimit:10;" d="&#10;&#9;&#9;M157.516,271.09c4.932-4.919,15.675-4.637,18.595-9.556c9.241-15.635,27.949-4.213,27.241,9.132&#10;&#9;&#9;c-0.68,13.062-7.625,20.498-26.447,16.313c-3.628-0.792-7.824,1.583-14.4,2.884C157.488,290.824,146.008,282.569,157.516,271.09&#10;&#9;&#9;L157.516,271.09z"/>
	<path style="fill:none;stroke:#000000;stroke-width:15;stroke-linecap:round;stroke-linejoin:round;stroke-miterlimit:10;" d="&#10;&#9;&#9;M49.348,390.938v18.236c0,10.009,8.22,18.236,18.283,18.236h379.185c10.034,0,18.283-8.227,18.283-18.236v-18.236"/>
	<path style="fill:none;stroke:#000000;stroke-width:15;stroke-linecap:round;stroke-linejoin:round;stroke-miterlimit:10;" d="&#10;&#9;&#9;M239.068,336.23H16.382c-3.543,0-6.435,2.884-6.435,6.418v20.922c0,15.041,12.331,27.368,27.411,27.368h221.581h218.123&#10;&#9;&#9;c15.08,0,27.439-12.327,27.439-27.368v-20.922c0-3.534-2.891-6.418-6.435-6.418H274.444"/>
	<path style="fill:none;stroke:#000000;stroke-width:15;stroke-linecap:round;stroke-linejoin:round;stroke-miterlimit:10;" d="&#10;&#9;&#9;M35.685,336.23c-2.239-4.128-3.543-8.878-3.543-13.91c0-13.458,9.156-24.795,21.571-28.131c-0.368-1.866-0.567-3.817-0.567-5.796&#10;&#9;&#9;c0-16.087,13.068-29.149,29.225-29.149c0.992,0,1.984,0.057,2.976,0.17c1.162-8.256,5.811-15.409,12.387-19.932&#10;&#9;&#9;c4.989-3.958,11.282-6.305,18.141-6.305c2.806,0,5.556,0.396,8.135,1.159c3.827-10.942,13.975-18.914,26.078-19.536&#10;&#9;&#9;c4.422-10.517,14.825-17.897,26.957-17.897c3.997,0,7.767,0.792,11.225,2.234c3.402-12.355,14.712-21.431,28.176-21.431&#10;&#9;&#9;c5.981,0,11.565,1.809,16.186,4.891c5.216-8.058,14.286-13.373,24.576-13.373c10.318,0,19.389,5.315,24.576,13.373&#10;&#9;&#9;c4.649-3.082,10.205-4.891,16.214-4.891c13.436,0,24.774,9.076,28.176,21.431c3.43-1.442,7.228-2.234,11.197-2.234&#10;&#9;&#9;c12.16,0,22.563,7.379,26.957,17.897c12.132,0.622,22.28,8.595,26.107,19.536c2.579-0.763,5.301-1.159,8.135-1.159&#10;&#9;&#9;c6.86,0,13.153,2.347,18.141,6.305c6.576,4.524,11.197,11.677,12.359,19.932c0.992-0.113,1.984-0.17,3.005-0.17&#10;&#9;&#9;c16.129,0,29.225,13.062,29.225,29.149c0,1.979-0.198,3.93-0.595,5.796c12.444,3.336,21.571,14.674,21.571,28.131&#10;&#9;&#9;c0,5.033-1.276,9.782-3.543,13.91"/>
	<path style="fill:none;stroke:#000000;stroke-width:15;stroke-linecap:round;stroke-linejoin:round;stroke-miterlimit:10;" d="&#10;&#9;&#9;M404.212,205.639c10.771-7.492,26.73-12.751,40.818-13.232c5.017-0.17,6.179,1.385,5.641,6.361&#10;&#9;&#9;c-1.502,14.645-11.565,35.793-27.496,46.763"/>
	<path style="fill:none;stroke:#000000;stroke-width:15;stroke-linecap:round;stroke-linejoin:round;stroke-miterlimit:10;" d="&#10;&#9;&#9;M401.15,233.289c9.127-28.782-1.446-66.384-25.483-84.592c-4.79-3.619-5.953-3.478-9.779,1.131&#10;&#9;&#9;c-11.48,13.825-17.886,31.185-16.837,49.477"/>
</g>















</svg>
