<svg id="Capa_1" enable-background="new 0 0 512 512" height="512" viewBox="0 0 512 512" width="512" xmlns="http://www.w3.org/2000/svg"><g><g><g><path d="m414.455 264.399 1.054-.664c19.143-12.063 24.844-37.383 12.718-56.486l-10.931-17.221c-4.881-7.689-16.101-7.689-20.982 0l-10.931 17.221c-12.126 19.103-6.426 44.423 12.718 56.486l1.054.664c4.673 2.946 10.624 2.946 15.3 0z" fill="#41c47d"/></g><g><path d="m389.956 252.847-.993 1.576c-.179.284-.339.575-.503.865 2.681 3.223 5.9 6.091 9.639 8.447l1.054.664c4.675 2.946 10.626 2.946 15.302 0l1.054-.664c13.656-8.605 20.464-23.955 18.848-38.983-17.631 2.136-34.192 11.892-44.401 28.095z" fill="#3cb372"/></g><g><path d="m408.269 258.214.664-1.054c12.063-19.143 37.383-24.844 56.486-12.718l17.221 10.931c7.689 4.881 7.689 16.101 0 20.982l-17.221 10.931c-19.103 12.126-44.423 6.426-56.486-12.718l-.664-1.054c-2.946-4.674-2.946-10.625 0-15.3z" fill="#41c47d"/></g><g><path d="m226.209 403.32c1.136-5.821 1.745-11.83 1.745-17.984 0-51.67-41.887-93.557-93.557-93.557s-93.557 41.886-93.557 93.557c0 6.154.609 12.163 1.745 17.984z" fill="#ffdf74"/></g><g><path d="m347.812 403.32c1.136-5.821 1.745-11.83 1.745-17.984 0-51.67-41.887-93.557-93.557-93.557s-93.557 41.887-93.557 93.557c0 6.154.609 12.163 1.745 17.984z" fill="#ffdf74"/></g><g><path d="m469.415 403.32c1.136-5.821 1.745-11.83 1.745-17.984 0-51.67-41.887-93.557-93.557-93.557s-93.557 41.887-93.557 93.557c0 6.154.609 12.163 1.745 17.984z" fill="#ffdf74"/></g><g><g><path d="m429.821 490.612 34.692-49.647h-417.026l34.692 49.647c6.081 8.703 16.029 13.887 26.646 13.887h294.35c10.617.001 20.565-5.184 26.646-13.887z" fill="#d4d4e8"/></g><g><path d="m464.513 440.965h-417.026l34.692 49.647c6.081 8.703 16.029 13.887 26.646 13.887h31.68c-10.617 0-20.565-5.185-26.646-13.887l-12.699-18.172h341.36z" fill="#c6c6e0"/></g><g><path d="m469.5 451.765h-427c-19.33 0-35-15.67-35-35v-17.335c0-8.095 6.562-14.657 14.657-14.657h467.686c8.095 0 14.657 6.562 14.657 14.657v17.336c0 19.329-15.67 34.999-35 34.999z" fill="#e9e9ff"/></g><g><path d="m39.18 416.765v-31.993h-17.023c-8.095 0-14.657 6.562-14.657 14.657v17.336c0 19.33 15.67 35 35 35h31.68c-19.33 0-35-15.67-35-35z" fill="#d4d4e8"/></g></g><g><path d="m405.543 249.317-57.024-25.08c-58.954-25.929-126.084-25.929-185.038 0l-57.024 25.08c-9.008 3.962-15.155 12.756-15.201 22.596-.064 13.618 10.956 24.678 24.56 24.678h42.874c7.253 0 13.134 5.88 13.134 13.134v12.656c0 13.552 10.986 24.539 24.539 24.539 13.552 0 24.539-10.986 24.539-24.539v-8.041c0-7.254 5.88-13.134 13.134-13.134h57.268c7.253 0 13.134 5.88 13.134 13.134v18.15c0 12.459 10.101 22.56 22.56 22.56 12.459 0 22.56-10.1 22.56-22.56v-22.765c0-7.253 5.88-13.134 13.134-13.134h33.493c13.603 0 24.624-11.06 24.56-24.678-.048-9.84-6.195-18.635-15.202-22.596z" fill="#ff415b"/></g><g><path d="m114.117 271.913c.046-9.84 6.193-18.635 15.201-22.596l57.024-25.08c25.913-11.397 53.406-17.78 81.089-19.158-35.299-1.757-70.908 4.626-103.949 19.158l-57.024 25.08c-9.008 3.962-15.155 12.756-15.201 22.596-.064 13.618 10.956 24.678 24.56 24.678h22.86c-13.604 0-24.624-11.06-24.56-24.678z" fill="#ef2b55"/></g><g><path d="m194.684 322.381v-12.656c0-7.254-5.88-13.134-13.134-13.134h-22.86c7.254 0 13.134 5.88 13.134 13.134v12.656c0 13.552 10.986 24.539 24.539 24.539 4.128 0 8.016-1.024 11.43-2.825-7.794-4.111-13.109-12.29-13.109-21.714z" fill="#ef2b55"/></g><g><path d="m327.297 332.49v-18.15c0-7.254-5.88-13.134-13.134-13.134h-22.86c7.253 0 13.134 5.88 13.134 13.134v18.15c0 12.459 10.101 22.56 22.56 22.56 4.172 0 8.077-1.137 11.43-3.112-6.659-3.922-11.13-11.161-11.13-19.448z" fill="#ef2b55"/></g><g><path d="m327.157 247.012c-14.26 0-25.82-11.56-25.82-25.82 0-14.26 11.56-25.82 25.82-25.82 14.26 0 25.82 11.56 25.82 25.82 0 14.26-11.56 25.82-25.82 25.82z" fill="#fff3d7"/></g><g><path d="m316.098 221.192c0-11.695 7.777-21.568 18.44-24.744-2.339-.697-4.815-1.076-7.38-1.076-14.26 0-25.82 11.56-25.82 25.82s11.56 25.82 25.82 25.82c2.565 0 5.041-.38 7.38-1.076-10.663-3.176-18.44-13.049-18.44-24.744z" fill="#f9dbaa"/></g><g><path d="m134.397 261.665c-14.26 0-25.82-11.56-25.82-25.82 0-14.26 11.56-25.82 25.82-25.82 14.26 0 25.82 11.56 25.82 25.82 0 14.26-11.56 25.82-25.82 25.82z" fill="#fff3d7"/></g><g><path d="m123.337 235.845c0-11.695 7.777-21.568 18.44-24.744-2.339-.697-4.815-1.076-7.38-1.076-14.26 0-25.82 11.56-25.82 25.82s11.56 25.82 25.82 25.82c2.565 0 5.041-.38 7.38-1.076-10.663-3.176-18.44-13.049-18.44-24.744z" fill="#f9dbaa"/></g><g><path d="m407.889 331.56c-14.26 0-25.82-11.56-25.82-25.82 0-14.26 11.56-25.82 25.82-25.82 14.26 0 25.82 11.56 25.82 25.82 0 14.26-11.56 25.82-25.82 25.82z" fill="#fff3d7"/></g><g><path d="m396.829 305.74c0-11.695 7.777-21.568 18.44-24.744-2.339-.697-4.815-1.076-7.38-1.076-14.26 0-25.82 11.56-25.82 25.82 0 14.26 11.56 25.82 25.82 25.82 2.565 0 5.041-.38 7.38-1.076-10.663-3.177-18.44-13.05-18.44-24.744z" fill="#f9dbaa"/></g><g><path d="m494.5 62.4h-101.015c-10.31 0-20.308-3.54-28.32-10.029l-6.911-5.597c-8.012-6.489-18.01-10.029-28.32-10.029h-55.022c-7.836 0-14.578 6.022-14.946 13.849-.393 8.356 6.265 15.255 14.535 15.255-8.037 0-14.552 6.515-14.552 14.552s6.515 14.552 14.552 14.552c-8.27 0-14.929 6.899-14.535 15.255.369 7.827 7.111 13.848 14.946 13.848h55.022c10.31 0 20.308-3.54 28.32-10.029l6.911-5.597c8.012-6.489 18.01-10.029 28.32-10.029h101.015c5.523 0 10-4.477 10-10v-16c0-5.524-4.477-10.001-10-10.001z" fill="#e9e9ff"/></g><g><g><path d="m224.85 244c-8.649 0-15.66-7.011-15.66-15.66v-205.18c0-8.649 7.011-15.66 15.66-15.66 8.649 0 15.66 7.011 15.66 15.66v205.18c0 8.648-7.012 15.66-15.66 15.66z" fill="#ffdf74"/></g><g><path d="m222.96 228.34v-205.18c0-6.175 3.583-11.499 8.775-14.049-2.08-1.021-4.411-1.611-6.885-1.611-8.649 0-15.66 7.011-15.66 15.66v205.18c0 8.649 7.011 15.66 15.66 15.66 2.474 0 4.805-.589 6.885-1.611-5.192-2.55-8.775-7.874-8.775-14.049z" fill="#f7ce5c"/></g></g><g><g><path d="m256.17 149.64c-8.649 0-15.66-7.011-15.66-15.66v-110.82c0-8.649 7.011-15.66 15.66-15.66 8.649 0 15.66 7.011 15.66 15.66v110.82c0 8.648-7.012 15.66-15.66 15.66z" fill="#ffdf74"/></g><g><path d="m254.28 133.98v-110.82c0-6.175 3.583-11.499 8.775-14.049-2.08-1.021-4.411-1.611-6.885-1.611-8.649 0-15.66 7.011-15.66 15.66v110.82c0 8.649 7.011 15.66 15.66 15.66 2.474 0 4.805-.589 6.885-1.611-5.193-2.55-8.775-7.875-8.775-14.049z" fill="#f7ce5c"/></g></g><g><g><path d="m287.49 149.64c-8.649 0-15.66-7.011-15.66-15.66v-110.82c0-8.649 7.011-15.66 15.66-15.66 8.649 0 15.66 7.011 15.66 15.66v110.82c0 8.648-7.012 15.66-15.66 15.66z" fill="#ffdf74"/></g><g><path d="m285.6 133.98v-110.82c0-6.175 3.583-11.499 8.775-14.049-2.08-1.021-4.411-1.611-6.885-1.611-8.649 0-15.66 7.011-15.66 15.66v110.82c0 8.649 7.011 15.66 15.66 15.66 2.474 0 4.805-.589 6.885-1.611-5.193-2.55-8.775-7.875-8.775-14.049z" fill="#f7ce5c"/></g></g></g><g><path d="m489.843 377.272h-11.515c-2.251-28.364-16.263-53.459-37.148-70.411.013-.374.028-.746.028-1.123 0-1.578-.118-3.128-.331-4.647.913.052 1.824.079 2.734.079 9.074 0 17.979-2.568 25.828-7.552l17.221-10.932c5.791-3.676 9.248-9.965 9.248-16.823 0-6.857-3.457-13.146-9.248-16.822l-17.221-10.932c-8.295-5.266-17.769-7.83-27.375-7.521.309-9.602-2.243-19.07-7.506-27.36l-10.931-17.221c-3.675-5.79-9.964-9.247-16.823-9.247s-13.148 3.457-16.823 9.247l-10.931 17.221c-4.458 7.022-6.969 14.889-7.448 22.965l-11.126-4.894c0-.036.003-.072.003-.109 0-18.373-14.947-33.32-33.32-33.32-10.997 0-20.763 5.358-26.835 13.598-11.008-2.091-22.181-3.416-33.48-3.933-4.137-.165-7.646 3.013-7.834 7.149-.189 4.138 3.012 7.646 7.15 7.835 9.489.434 18.883 1.475 28.155 3.095-.307 1.814-.476 3.675-.476 5.576 0 18.373 14.947 33.32 33.32 33.32 13.004 0 24.285-7.493 29.771-18.384l45.594 20.053c6.481 2.851 10.689 9.039 10.721 15.767.001.303-.009.604-.023.904-1.737-.281-3.517-.432-5.332-.432-12.31 0-23.075 6.716-28.844 16.671h-16.354c-11.377 0-20.634 9.256-20.634 20.634v22.766c0 8.304-6.756 15.06-15.06 15.06s-15.06-6.756-15.06-15.06v-18.15c0-11.378-9.256-20.634-20.634-20.634h-57.268c-11.377 0-20.634 9.256-20.634 20.634v8.041c0 9.396-7.644 17.039-17.039 17.039s-17.039-7.644-17.039-17.039v-12.656c0-11.378-9.256-20.634-20.634-20.634h-42.874c-4.572 0-8.867-1.785-12.092-5.025s-4.989-7.544-4.968-12.117c.03-6.356 3.792-12.228 9.672-15.261 6.112 7.601 15.479 12.478 25.969 12.478 18.373 0 33.32-14.947 33.32-33.32 0-1.732-.134-3.434-.39-5.095 5.726-2.491 11.614-4.771 17.525-6.768 3.924-1.326 6.03-5.582 4.705-9.506-1.326-3.926-5.582-6.029-9.506-4.705-6.176 2.087-12.328 4.465-18.317 7.058-6.027-8.637-16.03-14.304-27.337-14.304-18.373 0-33.32 14.947-33.32 33.32 0 2.525.292 4.982.827 7.348-11.016 5.524-18.09 16.598-18.147 28.685-.038 8.103 2.91 15.752 8.326 21.704-32.325 14.969-55.433 46.531-58.382 83.69h-11.544c-12.217 0-22.157 9.94-22.157 22.158v17.336c0 23.435 19.065 42.5 42.5 42.5h8.625l24.906 35.643c7.478 10.701 19.738 17.091 32.794 17.091h294.35c13.056 0 25.315-6.39 32.794-17.092l24.906-35.643h8.625c23.435 0 42.5-19.065 42.5-42.5v-17.335c0-12.218-9.94-22.158-22.157-22.158zm-162.685-137.759c-10.102 0-18.32-8.219-18.32-18.32s8.218-18.32 18.32-18.32 18.32 8.219 18.32 18.32-8.219 18.32-18.32 18.32zm-192.761-21.989c10.102 0 18.32 8.219 18.32 18.32s-8.219 18.32-18.32 18.32-18.32-8.219-18.32-18.32 8.218-18.32 18.32-18.32zm328.885 159.748h-16.702c-1.958-16.845-9.967-31.866-21.786-42.837 4.835-2.86 8.888-6.904 11.757-11.733 14.84 13.973 24.73 33.143 26.731 54.57zm-71.569-166.003 10.931-17.221c1.31-2.063 3.345-2.286 4.159-2.286s2.849.223 4.159 2.286l10.932 17.221c4.254 6.701 5.95 14.516 4.901 22.289-4.513 1.653-8.712 3.948-12.492 6.815v-22.46c0-4.143-3.358-7.5-7.5-7.5s-7.5 3.357-7.5 7.5v20.467l-12.581-5.533c-.853-7.538.867-15.082 4.991-21.578zm36.491 62.096h26.553c4.142 0 7.5-3.357 7.5-7.5s-3.358-7.5-7.5-7.5h-29.643c-.846-1.76-1.868-3.432-3.02-5.016 4.023-3.375 8.817-5.77 14.09-6.957 8.718-1.963 17.673-.406 25.216 4.383l17.221 10.932c2.063 1.31 2.287 3.345 2.287 4.158 0 .814-.223 2.85-2.287 4.159l-17.221 10.931c-7.543 4.789-16.499 6.346-25.216 4.383-.854-.192-1.689-.427-2.516-.682-1.797-2.193-3.87-4.15-6.162-5.825.386-1.784.622-3.61.698-5.466zm-20.315 14.055c10.102 0 18.319 8.218 18.319 18.319s-8.218 18.32-18.319 18.32c-10.102 0-18.32-8.219-18.32-18.32s8.218-18.319 18.32-18.319zm-45.198 16.671h11.92c-.027.546-.042 1.096-.042 1.648 0 3.546.562 6.962 1.593 10.17-6.64.137-13.047 1.213-19.104 3.101v-9.285c-.001-3.107 2.526-5.634 5.633-5.634zm-5.743 30.866c6.372-2.628 13.344-4.087 20.655-4.087 3.221 0 6.371.297 9.439.836 5.301 4.264 11.926 6.948 19.154 7.311 13.329 8.263 22.839 22.11 25.247 38.256h-16.933c-3.705-16.972-18.841-29.723-36.908-29.723s-33.203 12.75-36.908 29.723h-16.943c.775-5.191 2.286-10.145 4.422-14.752 15.209-.59 27.546-12.526 28.775-27.564zm41.956 42.315h-42.602c3.262-8.595 11.576-14.723 21.301-14.723s18.039 6.128 21.301 14.723zm-85.62-18.046c-2.315 5.683-3.897 11.735-4.632 18.046h-15.745c-.196-.898-.423-1.785-.682-2.658 1.231-9.845 4.126-19.177 8.404-27.706 2.889 5.262 7.31 9.565 12.655 12.318zm-57.284-28.356c11.517 0 22.196 3.61 31.002 9.737-2.552 5.148-4.667 10.547-6.32 16.143-6.625-5.729-15.255-9.2-24.682-9.2-18.067 0-33.202 12.75-36.907 29.723h-16.938c3.909-26.22 26.554-46.403 53.845-46.403zm0 31.68c9.401 0 17.471 5.734 20.947 13.88-.025.28-.037.563-.059.843h-42.184c3.264-8.594 11.572-14.723 21.296-14.723zm-21.965-53.844h57.268c3.106 0 5.634 2.527 5.634 5.634v10.226c-.774 1.024-1.525 2.066-2.26 3.12-11.062-7.452-24.365-11.816-38.677-11.816-9.805 0-19.133 2.059-27.599 5.74v-7.271c0-3.106 2.528-5.633 5.634-5.633zm-40.159 45.608c-3.538 7.057-5.906 14.792-6.855 22.958h-15.724c-.191-.875-.409-1.739-.66-2.59 1.143-9.171 3.736-17.896 7.538-25.946 4.53 3.136 9.901 5.13 15.701 5.578zm-34.794 2.452c-6.625-5.736-15.253-9.216-24.685-9.216-18.066 0-33.195 12.751-36.9 29.723h-16.949c3.91-26.22 26.558-46.402 53.849-46.402 11.524 0 22.208 3.614 31.015 9.747-2.553 5.15-4.676 10.549-6.33 16.148zm-24.685 5.784c9.395 0 17.469 5.722 20.949 13.859-.025.287-.039.576-.062.864h-42.173c3.265-8.592 11.563-14.723 21.286-14.723zm-25.824-59.285c2.349.54 4.773.826 7.244.826h42.874c3.106 0 5.634 2.527 5.634 5.634v12.656c0 .097.006.192.007.288-9.07-4.352-19.22-6.799-29.935-6.799-35.574 0-64.964 26.886-68.975 61.402h-16.662c3.26-34.893 27.416-63.789 59.813-74.007zm388.427 113.501c0 15.163-12.336 27.5-27.5 27.5h-96.26c-4.142 0-7.5 3.357-7.5 7.5s3.358 7.5 7.5 7.5h69.336l-18.902 27.051c-4.675 6.689-12.338 10.683-20.499 10.683h-294.35c-8.161 0-15.824-3.994-20.499-10.684l-18.902-27.051h269.003c4.142 0 7.5-3.357 7.5-7.5s-3.358-7.5-7.5-7.5h-295.927c-15.164 0-27.5-12.337-27.5-27.5v-17.335c0-3.946 3.21-7.157 7.157-7.157h467.686c3.946 0 7.157 3.211 7.157 7.157z"/><path d="m494.5 54.899h-101.015c-8.564 0-16.945-2.968-23.6-8.356l-6.912-5.598c-9.317-7.545-21.051-11.7-33.041-11.7h-19.284v-6.086c.001-12.769-10.388-23.159-23.158-23.159-6.034 0-11.534 2.321-15.66 6.115-4.126-3.794-9.627-6.115-15.661-6.115s-11.534 2.321-15.66 6.115c-4.125-3.794-9.626-6.115-15.659-6.115-12.771 0-23.16 10.389-23.16 23.159v29.28c0 4.143 3.358 7.5 7.5 7.5s7.5-3.357 7.5-7.5v-29.28c0-4.499 3.661-8.159 8.16-8.159s8.16 3.66 8.16 8.159v110.82 94.36c0 4.499-3.66 8.16-8.16 8.16s-8.16-3.661-8.16-8.16v-143.259c0-4.143-3.358-7.5-7.5-7.5s-7.5 3.357-7.5 7.5v143.26c0 12.771 10.39 23.16 23.16 23.16s23.16-10.39 23.16-23.16v-72.689c2.54.959 5.289 1.489 8.16 1.489 6.034 0 11.534-2.321 15.66-6.115 4.126 3.794 9.626 6.115 15.66 6.115 12.771 0 23.16-10.39 23.16-23.16v-2.425h19.285c11.99 0 23.724-4.155 33.039-11.7l6.912-5.597c6.656-5.391 15.037-8.358 23.6-8.358h101.014c9.649 0 17.5-7.851 17.5-17.5v-16c0-9.65-7.851-17.501-17.5-17.501zm-238.331 87.241c-4.5 0-8.16-3.66-8.16-8.16v-110.821c0-4.499 3.661-8.159 8.16-8.159s8.16 3.66 8.16 8.159v110.82c.001 4.5-3.66 8.161-8.16 8.161zm39.48-8.161c0 4.5-3.661 8.16-8.16 8.16-4.5 0-8.16-3.66-8.16-8.16v-110.82c0-4.499 3.66-8.159 8.16-8.159 4.499 0 8.16 3.66 8.16 8.159zm201.351-45.58c0 1.379-1.122 2.5-2.5 2.5h-101.015c-11.988 0-23.722 4.155-33.04 11.7l-6.913 5.598c-6.654 5.39-15.035 8.357-23.599 8.357h-19.285v-14.104h14.563c4.143 0 7.5-3.357 7.5-7.5s-3.357-7.5-7.5-7.5h-14.563v-14.102h14.563c4.143 0 7.5-3.357 7.5-7.5s-3.357-7.5-7.5-7.5h-14.563v-14.103h19.284c8.564 0 16.946 2.968 23.6 8.356l6.912 5.598c9.317 7.545 21.051 11.7 33.04 11.7h101.016c1.378 0 2.5 1.121 2.5 2.5z"/><path d="m270.923 241.14c4.65 0 8.42-3.77 8.42-8.42 0-4.65-3.77-8.42-8.42-8.42-4.65 0-8.42 3.77-8.42 8.42 0 4.65 3.77 8.42 8.42 8.42z"/><path d="m311.569 274.459c0-4.65-3.77-8.42-8.42-8.42s-8.42 3.77-8.42 8.42c0 4.65 3.77 8.42 8.42 8.42 4.651 0 8.42-3.77 8.42-8.42z"/><path d="m183.242 274.459c0 4.65 3.77 8.42 8.42 8.42s8.42-3.77 8.42-8.42c0-4.65-3.77-8.42-8.42-8.42s-8.42 3.77-8.42 8.42z"/><path d="m364.82 274.459c4.65 0 8.42-3.77 8.42-8.42 0-4.65-3.77-8.42-8.42-8.42-4.65 0-8.42 3.77-8.42 8.42 0 4.65 3.77 8.42 8.42 8.42z"/></g></g></svg>