<svg id="Capa_1" enable-background="new 0 0 512 512" height="512" viewBox="0 0 512 512" width="512" xmlns="http://www.w3.org/2000/svg"><g><path d="m324.489 101.877c4.632 1.921 8.566 4.814 11.667 8.343.995 1.132 2.602 1.45 3.948.771 7.969-4.016 17.573-4.672 26.463-.985 12.586 5.22 20.025 17.599 19.568 30.459 1.972-2.521 3.815-5.224 5.484-8.115 14.789-25.615 10.91-55.542-8.663-66.843-19.574-11.301-47.43.303-62.219 25.919-1.581 2.739-2.936 5.529-4.094 8.338 2.637.362 5.272 1.045 7.846 2.113z" fill="#fed402"/><path d="m432.044 117.569c-13.163-13.163-35.771-12.76-55.023-.528 7.427 7.543 10.741 18.504 8.391 29.123-.397 1.793.808 3.525 2.616 3.847 2.743.488 5.474 1.347 8.127 2.613 14.506 6.923 21.612 23.99 16.273 39.151-.216.614-.453 1.213-.701 1.804 3.98-2.569 7.815-5.633 11.385-9.203 20.915-20.914 24.914-50.825 8.932-66.807z" fill="#fed402"/><g><path d="m248.121 122.006c6.547 2.807 11.526 7.739 14.49 13.643 7.598-4.258 17.017-5.068 25.64-1.37 7.531 3.229 12.988 9.27 15.686 16.37 10.316-6.741 23.701-8.363 35.876-3.142 19.335 8.29 28.288 30.685 19.998 50.02-1.292 3.013-2.926 5.773-4.838 8.255h47.674c4.317-3.55 7.769-8.291 9.782-14.007 5.339-15.161-1.768-32.227-16.273-39.151-2.653-1.266-5.383-2.125-8.127-2.613-1.808-.322-3.013-2.054-2.616-3.847 3.266-14.753-4.403-30.168-18.845-36.158-8.89-3.687-18.493-3.031-26.463.985-1.346.678-2.953.361-3.948-.771-3.102-3.529-7.035-6.421-11.667-8.343-11.996-4.975-25.29-2.046-34.113 6.384-1.146 1.095-2.953 1.158-4.181.156-2.822-2.304-6.098-4.168-9.778-5.434-15.044-5.177-31.92 1.832-38.855 16.151-.089.183-.165.369-.25.553 3.617.074 7.278.806 10.808 2.319z" fill="#ffe5c2"/><g><g><path d="m81.284 89.606 50.054 22.513c.354-1.368.816-2.727 1.39-4.065 2.514-5.864 6.788-10.43 11.939-13.355l-33.355-43.166c-1.601-2.073-4.919-.908-4.873 1.711l.409 23.453c.023 1.294-.869 2.424-2.133 2.704l-22.903 5.068c-2.557.565-2.916 4.063-.528 5.137z" fill="#fe860a"/><path d="m339.813 147.506c-12.175-5.22-25.56-3.598-35.876 3.142-2.698-7.099-8.155-13.14-15.686-16.37-8.623-3.698-18.042-2.887-25.64 1.37-2.964-5.904-7.943-10.836-14.49-13.643-6.311-2.706-13.048-2.994-19.187-1.289-2.268-8.206-8.102-15.346-16.536-18.962-10.047-4.308-21.176-2.501-29.243 3.755-2.917-5.275-7.539-9.658-13.508-12.218-14.271-6.119-30.8.489-36.919 14.76-4.58 10.682-2.028 22.628 5.529 30.527 5.789-2.339 12.369-2.844 18.837-.991 8.821 2.527 15.507 8.876 18.789 16.732 5.875-2.464 12.595-3.025 19.197-1.134 6.848 1.961 12.408 6.228 16.09 11.713 7.002-5.179 16.245-7.167 25.264-4.584 7.878 2.257 14.051 7.563 17.62 14.267 9.386-7.984 22.461-11.276 35.196-7.629 17.465 5.003 28.557 21.416 27.531 38.826h38.192c1.912-2.483 3.546-5.243 4.838-8.255 8.29-19.332-.663-41.726-19.998-50.017z" fill="#fea95c"/></g></g><g><g><path d="m78.848 153.856c1.757-6.134 5.423-11.201 10.164-14.751l-38.518-38.629c-1.849-1.854-4.994-.282-4.62 2.31l3.355 23.215c.185 1.281-.557 2.515-1.776 2.951l-22.083 7.908c-2.466.883-2.383 4.398.122 5.164l52.488 16.041c.179-1.403.467-2.808.868-4.209z" fill="#fe860a"/><path d="m98.134 188.627c4.012 1.149 8.069 1.358 11.942.77-.793 6.192.444 12.223 3.218 17.384h203.423c1.521-17.778-9.668-34.726-27.467-39.825-12.735-3.648-25.81-.356-35.196 7.629-3.569-6.704-9.742-12.01-17.62-14.267-9.02-2.583-18.262-.595-25.264 4.584-3.682-5.484-9.242-9.751-16.09-11.713-6.601-1.891-13.321-1.33-19.197 1.134-3.282-7.856-9.967-14.206-18.789-16.732-10.509-3.01-21.322.182-28.539 7.403-3.557-4.866-8.694-8.634-14.937-10.422-14.927-4.276-30.494 4.358-34.77 19.286s4.359 30.492 19.286 34.769z" fill="#fe9738"/></g></g></g><g><path d="m312.728 391.59h-60.474c-1.18 16.416-11.284 30.353-25.495 36.985h113.86v-41.792c-8.788 3.117-18.188 4.807-27.891 4.807z" fill="#537983"/></g><path d="m426.885 205.782h-341.77c-3.397 0-5.805 3.314-4.755 6.545l39.499 121.566c2.07 6.37 4.859 12.357 8.254 17.888 6.232.985 11.73 4.166 15.687 8.723 4.811-5.54 11.902-9.049 19.816-9.049s15.004 3.508 19.816 9.049c4.811-5.54 11.902-9.049 19.816-9.049 14.493 0 26.242 11.749 26.242 26.242 0 2.449-.343 4.817-.97 7.066h20.65c1.775 0 3.213 1.438 3.213 3.213v.392c0 1.084-.053 2.156-.129 3.221h60.474c36.174 0 68.235-23.293 79.413-57.697l39.499-121.566c1.05-3.23-1.358-6.544-4.755-6.544z" fill="#678d98"/><path d="m119.859 333.892c2.07 6.37 4.859 12.357 8.254 17.888 6.232.985 11.73 4.166 15.687 8.723 4.811-5.54 11.902-9.049 19.816-9.049s15.004 3.508 19.816 9.049c.515-.594 1.057-1.164 1.623-1.708-5.629-7.361-10.105-15.731-13.084-24.902l-39.499-121.566c-1.05-3.23 1.358-6.545 4.755-6.545h-52.112c-3.397 0-5.805 3.314-4.755 6.545z" fill="#537983"/><g><path d="m401.816 304.116 15.596-48h-322.824l15.596 48z" fill="#deecf1"/></g><g><path d="m110.184 304.116h52.111l-15.596-48h-52.111z" fill="#cbe5e8"/></g><g><g><path d="m109.625 384.763c.628-2.249.97-4.617.97-7.066 0-14.493-11.749-26.242-26.242-26.242s-26.242 11.749-26.242 26.242c0 2.449.343 4.817.97 7.066z" fill="#fe646f"/><path d="m149.257 384.763c.628-2.249.97-4.617.97-7.066 0-14.493-11.749-26.242-26.242-26.242s-26.242 11.749-26.242 26.242c0 2.449.343 4.817.97 7.066z" fill="#fd8087"/><path d="m188.888 384.763c.628-2.249.97-4.617.97-7.066 0-14.493-11.749-26.242-26.242-26.242s-26.242 11.749-26.242 26.242c0 2.449.343 4.817.97 7.066z" fill="#fe646f"/><path d="m228.519 384.763c.628-2.249.97-4.617.97-7.066 0-14.493-11.749-26.242-26.242-26.242s-26.242 11.749-26.242 26.242c0 2.449.343 4.817.97 7.066z" fill="#fd8087"/></g><path d="m60.842 428.575h165.917c15.133-7.062 25.624-22.405 25.624-40.206v-.392c0-1.775-1.439-3.213-3.213-3.213h-210.739c-1.775 0-3.213 1.438-3.213 3.213v.392c0 17.801 10.491 33.144 25.624 40.206z" fill="#cbe5e8"/><path d="m60.842 428.575h52.617c-15.133-7.062-25.624-22.405-25.624-40.206v-.392c0-1.775 1.439-3.213 3.213-3.213h-52.617c-1.775 0-3.213 1.438-3.213 3.213v.392c0 17.8 10.491 33.144 25.624 40.206z" fill="#a8d3d8"/></g><g><path d="m499.5 461.529h-487c-2.761 0-5-2.239-5-5v-22.954c0-2.761 2.239-5 5-5h487c2.761 0 5 2.239 5 5v22.954c0 2.761-2.239 5-5 5z" fill="#fea95c"/></g><g><path d="m78 456.529v-22.954c0-2.761 2.239-5 5-5h-70.5c-2.761 0-5 2.239-5 5v22.954c0 2.761 2.239 5 5 5h70.5c-2.761 0-5-2.239-5-5z" fill="#fe9738"/></g><g><circle cx="171.5" cy="181.616" r="7.5"/><circle cx="197.5" cy="128.616" r="7.5"/><circle cx="122.5" cy="171.616" r="7.5"/><path d="m499.5 421.075h-151.381v-29.107c23.824-10.026 42.784-29.994 51.155-55.759l39.499-121.564c1.232-3.793.569-7.983-1.775-11.21s-6.125-5.153-10.113-5.153h-8.705c3.596-2.523 7.03-5.396 10.236-8.602 11.272-11.272 18.529-25.323 20.433-39.563 2.004-14.988-2.081-28.431-11.501-37.852-7.713-7.713-18.073-11.602-29.253-11.885.005-2.623-.151-5.223-.483-7.784-1.944-14.997-9.368-26.924-20.906-33.585-23.123-13.35-55.631-.491-72.464 28.664-.817 1.415-1.562 2.847-2.274 4.285-8.601.082-17.069 2.988-23.987 8.456-2.819-1.89-5.875-3.406-9.123-4.523-17.141-5.899-35.864.774-45.554 15.586-3.852-7.385-10.12-13.258-17.951-16.616-9.77-4.189-20.76-3.862-30.143.619-3.444-3.896-7.71-6.981-12.608-9.082-8.441-3.618-17.523-3.708-25.592-.934l-29.764-38.519c-2.699-3.491-7.309-4.857-11.474-3.394-4.164 1.462-6.91 5.409-6.833 9.821l.341 19.547-19.09 4.224c-4.308.954-7.506 4.544-7.957 8.934s1.949 8.556 5.975 10.367l44.822 20.16c-.363 5.082.38 10.218 2.231 15.111-2.925-1.896-6.134-3.37-9.578-4.357-8.83-2.532-17.852-1.48-25.509 2.288l-34.369-34.468c-3.116-3.125-7.862-3.899-11.809-1.925-3.947 1.975-6.175 6.235-5.544 10.604l2.796 19.349-18.405 6.59c-4.156 1.488-6.878 5.453-6.773 9.866.105 4.412 3.012 8.243 7.231 9.531l47.022 14.37c.827 14.713 10.8 27.989 25.746 32.271 2.139.613 4.304 1.022 6.484 1.228.045.409.113.812.172 1.218h-17.61c-3.988 0-7.769 1.927-10.113 5.153-2.344 3.227-3.007 7.417-1.775 11.209l39.499 121.565c.968 2.98 2.094 5.873 3.341 8.69-4.357 1.054-8.389 2.952-11.907 5.516-5.566-4.056-12.407-6.462-19.807-6.462-18.461 0-33.498 14.903-33.732 33.309h-12.19c-5.907 0-10.713 4.806-10.713 10.713v.393c0 12.396 4.385 23.778 11.669 32.707h-26.887c-6.893 0-12.5 5.607-12.5 12.5v22.953c0 6.893 5.607 12.5 12.5 12.5h393.5c4.142 0 7.5-3.357 7.5-7.5s-3.358-7.5-7.5-7.5h-391v-17.953h482v17.953h-56c-4.142 0-7.5 3.357-7.5 7.5s3.358 7.5 7.5 7.5h58.5c6.893 0 12.5-5.607 12.5-12.5v-22.953c0-6.893-5.607-12.5-12.5-12.5zm-426.783-272.461-31.25-9.55 8.515-3.05h.001c4.556-1.633 7.36-6.294 6.668-11.084l-1.294-8.953 22.979 23.046c-2.32 2.824-4.233 6.043-5.619 9.591zm312.291 182.961c-10.206 31.41-39.253 52.515-72.28 52.515h-53.586c-1.56-3.99-5.437-6.827-9.973-6.827h-12.191c-.234-18.406-15.271-33.309-33.732-33.309-7.404 0-14.254 2.403-19.825 6.462-5.566-4.056-12.407-6.462-19.807-6.462-7.404 0-14.254 2.403-19.825 6.462-3.224-2.35-6.885-4.123-10.825-5.218-2.389-4.28-4.414-8.822-5.974-13.623l-6.485-19.959h270.987zm-163.04 45.688h-37.441c.233-10.134 8.532-18.309 18.72-18.309 10.189 0 18.487 8.175 18.721 18.309zm-48.465-15.481c-2.484 4.624-3.914 9.891-3.985 15.481h-24.623c.233-10.134 8.532-18.309 18.72-18.309 3.628 0 7.016 1.037 9.888 2.828zm233.193-246.567c7.79 0 14.876 2.488 20.045 7.658 6.039 6.038 8.61 15.008 7.24 25.256-1.277 9.549-5.779 19.09-12.806 27.302-1.969-12.492-9.863-23.883-21.789-29.576 0 0 0 0-.001-.001-1.925-.918-3.916-1.677-5.953-2.271.95-8.576-.972-17.006-5.164-24.139 6.194-2.785 12.513-4.229 18.428-4.229zm-40.417-46.574c4.577 0 8.978 1.079 12.927 3.359 7.396 4.271 12.201 12.269 13.53 22.522.32 2.471.428 4.997.335 7.553-5.099 1.255-10.196 3.214-15.145 5.823-2.569-1.917-5.407-3.545-8.486-4.822-9.583-3.975-20.286-3.979-29.827-.097-3.529-3.423-7.638-6.119-12.248-8.031 9.568-16.413 25.056-26.307 38.914-26.307zm-99.959 40.162c2.565 0 5.152.41 7.659 1.272 2.741.943 5.255 2.34 7.474 4.152 4.162 3.396 10.226 3.163 14.104-.544 6.954-6.646 17.182-8.562 26.059-4.879 3.458 1.435 6.455 3.576 8.906 6.364 3.245 3.693 8.575 4.729 12.958 2.52 6.322-3.186 13.69-3.459 20.214-.755 10.884 4.514 16.938 16.125 14.396 27.609-.625 2.822-.062 5.821 1.544 8.228 1.62 2.427 4.201 4.112 7.081 4.624 2.141.381 4.229 1.054 6.21 1.998 11.02 5.26 16.48 18.39 12.43 29.892-1.216 3.452-3.146 6.487-5.618 8.998h-32.157c3.922-10.601 3.783-22.119-.444-32.691-4.521-11.308-13.174-20.179-24.367-24.977-11.512-4.938-24.36-4.889-35.679-.107-3.874-5.771-9.325-10.309-15.883-13.121-8.291-3.554-17.359-3.915-25.724-1.159-3.766-4.83-8.716-8.674-14.406-11.112-.284-.122-.574-.224-.86-.338 4.448-3.815 10.219-5.974 16.103-5.974zm-126.699 2.207c4.479-10.447 16.624-15.299 27.07-10.824 4.243 1.82 7.667 4.917 9.901 8.955 1.061 1.917 2.906 3.274 5.051 3.716 2.145.441 4.376-.077 6.108-1.419 6.192-4.802 14.503-5.872 21.691-2.788 6.038 2.589 10.507 7.716 12.262 14.066.53 1.919 1.802 3.548 3.534 4.528 1.733.981 3.785 1.23 5.702.7 4.763-1.323 9.681-.993 14.225.956 4.655 1.995 8.47 5.587 10.742 10.114.919 1.83 2.546 3.205 4.505 3.806 1.958.601 4.077.374 5.864-.628 5.894-3.304 12.826-3.676 19.018-1.02 5.406 2.317 9.537 6.63 11.631 12.141.807 2.123 2.532 3.766 4.691 4.468 2.16.705 4.521.39 6.422-.854 8.612-5.627 19.385-6.572 28.818-2.528v.001c7.51 3.22 13.316 9.171 16.35 16.759 3.033 7.587 2.93 15.901-.29 23.411-.557 1.3-1.203 2.533-1.913 3.712h-26.973c-.678-5.831-2.47-11.533-5.403-16.821-5.907-10.649-15.607-18.361-27.314-21.715-12.042-3.45-24.782-1.788-35.409 4.38-4.569-5.237-10.548-9.054-17.407-11.019-8.671-2.485-17.713-1.701-25.666 2.084-4.343-4.317-9.738-7.508-15.689-9.213-5.729-1.642-11.782-1.836-17.571-.623-3.467-5.27-8.223-9.517-13.834-12.378 1.393-1.362 2.261-3.259 2.261-5.362 0-4.142-3.358-7.5-7.5-7.5s-7.5 3.358-7.5 7.5c0 .55.063 1.084.175 1.6-4.1-.456-8.217-.223-12.181.681-.602-.982-1.131-2.019-1.568-3.111-2.042-5.111-1.973-10.715.197-15.775zm-42.118-22.332 8.832-1.954c4.727-1.046 8.096-5.317 8.012-10.158l-.158-9.044 19.899 25.753c-2.659 2.51-4.961 5.462-6.783 8.808zm18.13 207.938-5.875-18.083-4.847-14.917h206.089c4.142 0 7.5-3.357 7.5-7.5s-3.358-7.5-7.5-7.5h-210.963l-11.481-35.334h70.444c4.142 0 7.5-3.357 7.5-7.5s-3.358-7.5-7.5-7.5h-8.192c.122-.537.192-1.093.192-1.666 0-4.142-3.358-7.5-7.5-7.5s-7.5 3.358-7.5 7.5c0 .573.07 1.13.192 1.666h-18.203c-.632-2.525-.823-5.202-.474-7.933.299-2.333-.515-4.672-2.198-6.316s-4.042-2.402-6.365-2.051c-2.943.445-5.889.255-8.753-.565-10.928-3.131-17.271-14.567-14.141-25.495 3.131-10.929 14.571-17.271 25.494-14.142 4.438 1.271 8.225 3.913 10.948 7.64 1.293 1.768 3.294 2.883 5.479 3.051 2.187.182 4.333-.626 5.881-2.176 5.54-5.542 13.653-7.646 21.168-5.495 6.315 1.81 11.395 6.334 13.934 12.414.768 1.838 2.234 3.294 4.076 4.049 1.842.756 3.909.747 5.746-.023 4.555-1.912 9.477-2.202 14.229-.841 4.87 1.396 9.106 4.479 11.93 8.684 1.142 1.701 2.93 2.86 4.948 3.21 2.02.349 4.092-.143 5.739-1.361 5.432-4.018 12.262-5.256 18.738-3.403 5.655 1.62 10.295 5.378 13.066 10.582 1.067 2.005 2.985 3.418 5.216 3.843 2.232.425 4.534-.184 6.264-1.654 7.836-6.665 18.404-8.958 28.271-6.132 7.855 2.25 14.364 7.425 18.328 14.57 1.675 3.02 2.79 6.242 3.371 9.546h-46.9c-.176-3.986-3.454-7.166-7.483-7.166s-7.307 3.18-7.483 7.166h-26.209c.122-.537.192-1.093.192-1.666 0-4.142-3.358-7.5-7.5-7.5s-7.5 3.358-7.5 7.5c0 .573.07 1.13.192 1.666h-12.193c-4.142 0-7.5 3.357-7.5 7.5s3.358 7.5 7.5 7.5h229.444l-11.481 35.334h-65.963c-4.142 0-7.5 3.357-7.5 7.5s3.358 7.5 7.5 7.5h61.089l-4.847 14.917-5.875 18.083h-280.734zm8.351 62.338c3.627 0 7.016 1.037 9.888 2.828-2.484 4.624-3.914 9.891-3.985 15.481h-24.623c.233-10.134 8.532-18.309 18.72-18.309zm-39.631 0c3.627 0 7.015 1.037 9.887 2.828-2.484 4.624-3.914 9.891-3.985 15.481h-24.623c.234-10.134 8.532-18.309 18.721-18.309zm140.634 62.121h-162.374c-10.716-5.579-18.368-16.264-19.691-28.813h201.757c-1.324 12.549-8.976 23.234-19.692 28.813zm108.132 0h-84.906c5.124-6.281 8.8-13.776 10.535-21.985h53.98c6.98 0 13.806-.802 20.391-2.306z"/></g></g></svg>