<svg id="Capa_1" enable-background="new 0 0 512.047 512.047" height="512" viewBox="0 0 512.047 512.047" width="512" xmlns="http://www.w3.org/2000/svg"><g><g><path d="m431.771 80.33c-47.617-47.616-109.75-71.852-172.154-72.741-50.11 8.271-98.203 31.709-136.856 70.362-98.359 98.359-98.36 257.831 0 356.191 38.653 38.653 86.746 62.091 136.856 70.362 62.404-.889 124.537-25.125 172.154-72.741v-.001c97.045-97.045 97.045-254.386 0-351.432z" fill="#938493"/><path d="m124.839 431.762c-97.045-97.046-97.045-254.387 0-351.432 42.858-42.858 97.476-66.775 153.466-71.778-70.792-6.326-143.778 17.591-197.966 71.778-97.045 97.045-97.045 254.386 0 351.432 54.188 54.188 127.174 78.104 197.966 71.778-55.99-5.003-110.609-28.92-153.466-71.778z" fill="#7b6c79"/><path d="m447.055 210.607-98.5 34.759-11.942 15.049-7.058 7.387 10.839 15 3.661 7.363 45.833 18.667 39.667 10.333 26.833-9 7.143-8.467c6.384-29.236 6.542-59.565.503-88.861z" fill="#dd8858"/><path d="m146.555 222.803 9.604-3.555 6.516.673c.807-2.325 1.718-4.601 2.724-6.825-3.542-1.773-6.061-3.072-6.061-3.072l-3.284-7.443-40.12-23.798c-4.439 11.494-7.961 23.444-10.458 35.767z" fill="#ff7c42"/><path d="m122.049 182.411-46.494-27.579-7.058 1.307c-7.313 13.747-13.009 28.134-17.091 42.878l6.399 5.957 54.862 11.021c2.275-11.534 5.417-22.757 9.382-33.584z" fill="#ff6930"/><path d="m180.805 175.331-27.191-60.052c-9.918 11.737-18.651 24.505-26 38.133l34.691 34.42 10.722-1.069 6.67 4.729c2.585-2.806 5.362-5.432 8.315-7.851l-8.939-3.639z" fill="#ff7c42"/><path d="m156.238 121.073-16.183-35.741-8.941-1.173c-8.857 6.446-17.333 13.644-25.317 21.629-3.524 3.524-6.885 7.148-10.109 10.852l2.618 7.692 34.233 33.966c6.689-13.21 14.637-25.674 23.699-37.225z" fill="#ff6930"/><path d="m194.055 161.832 7.28 1.508s4.566 4.282 7.937 7.744c9.353-3.75 19.554-5.835 30.247-5.835 1.582 0 3.149.057 4.708.146v-4.729l14.993-23 14.544-21.026-7.877-19.308 15.754-25.213-5.088-20.454-5.292-7.476c-1.874-.133-3.75-.234-5.626-.318-33.389 9.025-63.668 25.606-88.892 47.805z" fill="#e39b74"/><path d="m178.065 97.026c25.494-24.32 56.701-42.694 91.396-52.939-32.509-2.036-65.396 3.334-95.886 16.129l.001.005-2.271 9.407z" fill="#dd8858"/><path d="m158.18 246.589c0-.472.028-.937.036-1.408l-5.614.285-5.797-4.134-45.097.229c-.449 5.776-.682 11.613-.682 17.504 0 38.767 9.903 75.218 27.307 106.973l52.556-36.707 3.197-14.958 3.372-5.299c-17.889-14.92-29.278-37.37-29.278-62.485z" fill="#a2e82d"/><path d="m108.403 259.725c0-6.128.255-12.197.736-18.201l-60.583.308-4.671 4.746c-2.267 51.188 13.834 103.034 48.285 144.72l41.101-28.706c-15.891-30.827-24.868-65.798-24.868-102.867z" fill="#98d829"/><path d="m406.313 406.305c12.128-12.128 22.48-25.37 31.057-39.399-25.456 5.323-48.535 8.296-48.535 8.296l-90.838-72.106c-14.79 15.302-35.515 24.833-58.478 24.833-3.439 0-6.82-.238-10.147-.652-3.21 7.955-5.485 13.389-5.485 13.389l-8.208 43.167 12.875 9 11.967 32.991-22.634 26.509h-22.667l-.699-.648c-.177 2.7-.343 5.228-.495 7.561 72.682 22.052 154.933 4.414 212.287-52.941z" fill="#ffe02f"/><path d="m141.633 387.357c11.691 16.584 25.587 31.499 41.264 44.324l5.992-49.309-25.709-16.362z" fill="#a2e82d"/><path d="m181.889 439.974 1.534-12.62c-14.431-12.906-27.182-27.646-37.893-43.856l-14.974 14.835-34-6.375-3.459.46c3.996 4.768 8.22 9.407 12.7 13.888 26.014 26.014 57.151 43.855 90.193 53.534.151-2.308.316-4.822.491-7.506h-1.259z" fill="#98d829"/><path d="m436.481 311.767c-30.549 8.486-27.72-37.903-59.376-23.285-16.165 7.464-28.5 1.723-36.711-5.68l-3.005 2.956-5.5 34.868-21.246 21.539-26.022 7-2.671 2.923c-1.244 9.524.985 20.423 12.48 29.633 27.212 21.802-15.562 39.978 5.668 63.526 5.337 5.92 10.453 10.821 15.123 14.844 33.375-9.617 64.843-27.537 91.092-53.787 29.768-29.768 48.84-66.244 57.218-104.607-6.955 3.363-15.943 6.985-27.05 10.07z" fill="#ffeb7e"/><path d="m414.533 367.197c-31.706-.034-16.517-43.958-50.937-38.383-12.893 2.088-21.897-2.114-28.117-8.188h-3.59l-21.246 21.539v3.539c3.54 6.849 9.85 12.926 20.788 15.899 33.647 9.145 1.667 42.868 30.526 55.999 8.132 3.701 15.501 6.339 21.892 8.221 7.826-5.898 15.341-12.394 22.465-19.518 12.503-12.503 23.106-26.196 31.836-40.709-6.659.949-14.552 1.611-23.617 1.601z" fill="#ffe02f"/><path d="m154.819 340.399c-.835-1.016-1.723-2.002-2.673-2.951-10.943-10.943-26.601-14.287-40.433-10.047 8.253 25.651 21.02 49.276 37.377 69.933 1.053-.86 2.074-1.781 3.056-2.763 4.432-4.432 7.619-9.638 9.56-15.184l1.473-3.181-6.875-33.625z" fill="#d3f39f"/><path d="m118.328 325.968c-8.522 1.112-16.758 4.933-23.305 11.48-15.774 15.774-15.774 41.349 0 57.123s41.349 15.774 57.123 0c.226-.226.436-.463.656-.694-15.1-20.275-26.861-43.182-34.474-67.909z" fill="#bced6b"/><path d="m221.468 382.372-5.788 1.46-30.452 7.25-3.146 1.596c-.007-.002-.014-.003-.021-.005-.012.011-.024.022-.035.033-7.69 7.69-11.62 17.709-11.812 27.786 16.189 15.422 34.703 28.42 54.95 38.445 5.095-1.968 9.874-4.997 13.985-9.108 15.774-15.774 15.774-41.349 0-57.123-5.091-5.092-11.206-8.53-17.681-10.334z" fill="#d3f39f"/><path d="m170.683 415.045c-1.907 12.299 1.868 25.309 11.343 34.784 12.237 12.236 30.368 14.974 45.25 8.226-21.101-11.296-40.194-25.853-56.593-43.01z" fill="#bced6b"/><path d="m149.306 120.529 29.768 59.473h4.481l17.78-12.795v-3.867l-20.286-75.358c-11.651 9.742-22.292 20.649-31.743 32.547z" fill="#ff9568"/><path d="m182.401 93.003-8.824-32.781c-14.833 6.226-29.099 14.199-42.476 23.935l21.125 42.205c8.932-12.103 19.043-23.283 30.175-33.359z" fill="#ff7c42"/><path d="m114.25 183.279 45.088 26.745 4.216-1.193 9.472-18.625v-3.444l-42.523-38.555c-6.386 11.123-11.835 22.851-16.253 35.072z" fill="#ff9568"/><path d="m135.462 152.703-39.775-36.063c-10.72 12.315-19.784 25.578-27.19 39.5l51.951 30.816c4.068-11.898 9.101-23.349 15.014-34.253z" fill="#ff7c42"/><path d="m152.602 245.466 2.078-1.759 3.5-22.681-2.021-1.777-49.629-9.585c-2.666 11.783-4.394 23.921-5.112 36.331z" fill="#ff9568"/><path d="m113.703 211.049-62.297-12.032c-4.311 15.57-6.825 31.537-7.533 47.572l64.964-.671c.721-11.897 2.366-23.543 4.866-34.869z" fill="#ff7c42"/><path d="m271.263 44.19c-.529 2.204-.82 4.489-.77 6.837.116 5.404 1.765 10.388 4.508 14.577 2.068 3.156 1.014 7.31-2.256 9.192-8.727 5.024-14.412 14.616-13.916 25.37.234 5.069 1.818 9.749 4.385 13.724 2.085 3.23 1.096 7.461-2.23 9.39-9.039 5.241-14.792 15.393-13.749 26.645.082.88.219 1.743.385 2.596l5.934 5.312 31.066 8 33.684-25.75 8.5-30.5 27-11 4.241-21.25v-7.679c-27.094-14.816-56.745-23.328-86.782-25.464z" fill="#dd8858"/><path d="m229.106 335.79-3.051-3.958-36.333-17.458h-5.636c-7.221 1.616-14.086 5.222-19.706 10.842-15.774 15.774-15.774 41.349 0 57.123s41.349 15.774 57.123 0c12.595-12.596 15.122-31.435 7.603-46.549z" fill="#bced6b"/><path d="m406.313 105.788c-14.646-14.646-30.922-26.69-48.241-36.159-2.589 2.276-4.792 5.045-6.402 8.27-2.415 4.836-3.278 10.014-2.802 14.999.359 3.756-2.508 6.94-6.278 7.083-10.062.38-19.562 6.219-24.132 15.965-2.155 4.594-2.933 9.474-2.514 14.186.34 3.83-2.506 7.112-6.348 7.269-10.44.427-20.26 6.729-24.58 17.172-.845 2.042-1.405 4.142-1.731 6.256l1.336 5.002 29.311 22 19.874-15.625h17.874l12.376-5.125 8.532-16s24.468-1.25 24.468-2 11.25-14.544 11.25-14.544l9-7.941 2.768-5.639c-4.303-5.22-8.881-10.289-13.761-15.169z" fill="#e39b74"/><path d="m420.081 120.955c-4.81 1.05-9.382 3.349-13.135 6.921-3.915 3.727-6.487 8.303-7.734 13.153-.939 3.654-4.718 5.674-8.312 4.526-9.592-3.063-20.511-.801-28.123 6.81-3.588 3.588-5.979 7.912-7.187 12.486-.982 3.718-4.774 5.837-8.441 4.679-9.963-3.148-21.341-.559-28.953 7.793-1.738 1.907-3.158 4.012-4.265 6.24v4.268l19.874 41.875 18.917-6.375 18.667.5 15.5-22.333 29.5-2 32.5-22.333 2.666-4.348c-7.795-18.373-18.279-35.865-31.474-51.862z" fill="#dd8858"/><path d="m451.566 172.82c-9.543-3.221-20.56-1.177-28.199 6.093-3.915 3.727-6.487 8.303-7.734 13.153-.939 3.654-4.719 5.674-8.313 4.526-9.592-3.063-20.51-.801-28.122 6.811-3.588 3.588-5.979 7.912-7.187 12.486-.982 3.718-4.774 5.837-8.441 4.678-9.58-3.027-20.459-.733-28.05 6.872l-1.714 2.267v27.75l2.808 2.958c21.436-2.015 81.474-10.786 127.421-47.578-2.812-13.635-6.967-27.044-12.469-40.016z" fill="#e39b74"/><path d="m339.255 278.282c-2.497-8.397-3.105-17.229-2.396-25.961 2.115-26.069-6.797-52.865-26.741-72.809-12.249-12.249-27.087-20.315-42.75-24.243-14.257 4.679-27.622 12.833-38.745 24.507-34.667 36.381-34.385 94.356.613 130.419 15.098 15.558 34.214 24.759 54.068 27.617 8.912 1.283 17.37 4.566 25.249 8.923 5.889-2.755 11.411-6.553 16.275-11.416 15.44-15.441 20.243-37.48 14.427-57.037z" fill="#dbedff"/><path d="m308.635 344.976c-7.744-4.288-16.06-7.519-24.821-8.781-19.479-2.804-38.232-11.831-53.045-27.095-34.336-35.382-34.613-92.26-.601-127.954 11.635-12.21 25.769-20.497 40.799-24.91-32.058-9.432-68.223-1.136-93.041 24.91-34.011 35.694-33.735 92.572.602 127.954 14.813 15.264 33.567 24.291 53.045 27.095 8.762 1.262 17.077 4.492 24.821 8.781 16.692 9.244 37.005 9.535 53.932.891-.567-.289-1.132-.582-1.691-.891z" fill="#b5dcff"/><path d="m272.79 216.805c-3.114-3.114-6.614-5.603-10.341-7.488-2.884 1.731-5.617 3.81-8.103 6.296-16.433 16.432-16.433 43.075 0 59.507 2.486 2.486 5.219 4.564 8.103 6.296 3.727-1.885 7.227-4.374 10.341-7.488 15.774-15.774 15.774-41.349 0-57.123z" fill="#ffd500"/><path d="m254.723 273.928c-15.774-15.774-15.774-41.349 0-57.123 2.747-2.747 5.796-5.004 9.033-6.794-15.355-8.49-35.062-6.233-48.09 6.794-15.774 15.774-15.774 41.349 0 57.123 13.027 13.027 32.734 15.284 48.09 6.794-3.237-1.79-6.286-4.047-9.033-6.794z" fill="#fbc700"/></g><g><path d="m468.896 200.67c-42.108-162.973-247.594-221.001-368.412-100.185-79.672 79.669-86.098 207.32-15.067 294.45.917 1.209 1.897 2.384 2.944 3.52 42.427 49.883 103.548 77.485 167.685 77.485 20.624 0 41.245-2.887 61.208-8.634.011-.003.023-.004.035-.007.035-.01.069-.022.104-.032 114.68-33.097 181.388-151.841 151.503-266.597zm-35.368 157.94c-6.11.721-12.477 1.116-18.996 1.087-9.895-.011-12.521-5.074-17.071-15.608-4.56-10.555-11.446-26.51-35.072-22.678-6.931 1.12-12.771.13-17.719-3.009 2.768-7.06 4.206-14.489 4.435-21.438 9.818 3.753 20.495 3.241 31.137-1.673 10.694-4.938 14.238-1.275 21.922 8.231 7.12 8.808 16.865 20.87 36.316 15.471h.001c4.822-1.34 9.505-2.845 14.021-4.505-4.722 15.965-11.144 30.568-18.974 44.122zm-116.468 93.1c-3.885-3.539-7.708-7.389-11.4-11.484-6.625-7.35-4.628-12.692.137-23.131 4.775-10.459 11.991-26.264-6.686-41.228-5.863-4.697-9.112-10.116-9.826-16.439 6.383-.507 12.631-1.968 18.545-4.278 5.16 6.584 12.399 11.183 21.625 13.69 11.364 3.089 11.727 8.172 11.505 20.396-.206 11.324-.487 26.834 17.882 35.192 2.874 1.308 5.753 2.532 8.628 3.668-15.61 10.102-32.566 18.071-50.35 23.595-.02.007-.04.013-.06.019zm-220.013-66.251c-15.918-21.686-.299-52.342 26.529-52.342 8.593 0 16.683 3.272 22.846 9.229-3.057 12.544-.993 26.558 6.705 38.058.008.012.015.024.023.036-9.79 20.09-38.444 26.676-56.103 5.019zm85.223-62.795c12.123 9.785 26.226 16.485 41.527 19.743 6.749 18.274-3.855 38.337-22.557 43.18-32.929 8.587-54.785-31.85-31.566-55.068 3.564-3.565 7.869-6.242 12.596-7.855zm-18.367 69.191c1.956 1.493 3.999 2.816 6.114 3.967-8.484 13.522-9.567 30.383-3.249 44.761-14.649-7.071-28.622-15.985-41.574-26.742 15.81-.529 30.187-8.718 38.709-21.986zm23.418 52.67c-11.886-11.885-12.757-30.678-2.612-43.574 13.186 2.286 27.449-1.04 38.491-10.057 3.961 1.645 7.586 4.064 10.637 7.115 12.825 12.824 12.825 33.691 0 46.516-12.824 12.826-33.692 12.826-46.516 0zm43.041-116.128c-61.835-10.615-89.791-82.002-55.141-132.081 31.953-45.91 98.759-48.798 134.683-5.921 19.377 23.18 19.962 43.862 19.23 65.665-.001.033-.001.067-.002.101-.689 21.257 5.574 24.677 4.965 40.528-.002.062-.003.125-.006.187-1.559 36.989-41.767 59.431-74.073 41.54-14.546-8.059-24.619-9.157-29.656-10.019zm-178.469-89.759c.866-10.234 2.502-20.552 4.999-30.92l90.116 17.404c-.838 4.239-1.412 8.552-1.701 12.919l-93.446.965c.012-.123.022-.245.032-.368zm19.661-71.96 71.478 42.398-82.09-15.854c2.893-9.036 6.436-17.905 10.612-26.544zm24.863-39.245 66.482 60.279c-2.587 3.711-4.913 7.578-6.957 11.583l-77.358-45.887c5.201-8.976 11.096-17.625 17.833-25.975zm72.187-56.796 23.969 89.038c-3.912 2.411-7.673 5.103-11.256 8.068l-40.627-81.166c8.551-5.824 17.899-11.229 27.914-15.94zm100.904 39.185c-1.926-2.982-3.03-6.441-3.194-10.002-.352-7.613 3.544-14.711 10.166-18.524 3.362-1.936 5.803-5.192 6.695-8.933.897-3.76.22-7.62-1.907-10.868-1.799-2.747-2.892-5.887-3.199-9.159 23.381 2.504 46.342 8.926 68.275 19.697-3.609 5.924-5.515 13.091-5.036 20.504-2.411.158-4.768.556-7.041 1.176-9.852 2.686-18.147 9.538-22.608 19.049-2.449 5.223-3.649 11.139-3.258 17.193-12.9.853-24.564 8.908-29.907 20.793-7.623-2.723-15.599-4.511-23.79-5.307.618-6.453 4.314-12.356 10.036-15.674 7.151-4.147 9.098-13.239 4.768-19.945zm138.068 8.168c-6.436 3.924-11.81 10.162-14.63 17.922-.264.727-.505 1.465-.721 2.211-18.848-5.455-38.291 5.47-43.669 24.001-12.806-3.695-26.686.32-35.549 9.756-6.277-5.879-13.297-10.95-20.807-15.013 3.242-7.18 10.248-11.667 17.694-11.972 3.836-.157 7.434-1.8 10.053-4.782 2.542-2.894 3.803-6.774 3.459-10.646-.314-3.535.319-7.109 1.833-10.338 3.236-6.9 9.989-11.367 17.625-11.655 3.878-.146 7.555-1.891 10.087-4.785 6.848-7.826-.198-13.365 6.679-23.559 17.473 10.227 33.782 23.315 47.946 38.86zm31.617 45.972c-14.517 1.331-26.558 11.446-30.549 25.198-18.855-5.455-38.29 5.472-43.668 24.001-8.326-2.407-17.184-1.645-24.825 1.963-3.676-11.86-9.633-22.877-16.936-32.141 5.324-6.345 13.95-8.74 21.667-6.3 7.886 2.491 15.914-2.199 17.951-9.916 2.903-10.99 14.519-17.66 25.777-14.067 3.696 1.181 7.745.789 11.112-1.071 8.586-4.748 4.655-10.938 12.386-18.32h.001c1.589-1.511 3.511-2.767 5.365-3.617 8.372 10.744 15.493 21.859 21.719 34.27zm-74.406 172.256c11.627-1.883 14.055 2.597 18.903 13.819 9.81 22.708 18.64 25.435 39.651 24.461-11.623 16.408-25.415 30.831-41.003 43.012-5.701-1.843-11.499-4.102-17.283-6.733-9.006-4.099-9.306-9.795-9.097-21.268.208-11.495.524-28.866-22.569-35.143-4.974-1.352-8.931-3.483-11.952-6.454 6.389-4.473 12.012-10.243 16.168-16.245 7.822 4.619 17.062 6.187 27.182 4.551zm69.678-31.677c-9.536 2.648-13.423-1.524-20.636-10.447-7.228-8.941-18.155-22.453-39.876-12.421-9.822 4.535-18.617 3.561-26.821-2.981-.755-2.973-1.836-5.809-2.556-11.604 12.366-1.527 31.35-4.736 52.4-11.382 3.949-1.248 6.141-5.461 4.894-9.411-1.248-3.949-5.459-6.137-9.411-4.894-19.071 6.022-36.342 9.068-48.061 10.591.532-7.452.219-14.514-.785-21.58 5.373-3.751 11.9-4.521 17.689-2.693 7.886 2.491 15.915-2.198 17.951-9.914 2.904-10.986 14.517-17.664 25.778-14.068 7.555 2.415 15.807-1.833 17.856-9.803 2.642-10.277 12.688-16.567 23.173-14.779 3.997 9.922 7.226 20.204 9.631 30.663-9.452 7.137-20.084 13.569-31.666 19.153-3.73 1.799-5.297 6.282-3.498 10.014 1.799 3.729 6.28 5.297 10.014 3.498 10.106-4.873 19.546-10.371 28.219-16.392 3.423 23.363 2.812 47.206-1.82 70.399-6.948 3.128-14.489 5.832-22.475 8.051zm-178.418-253.396c2.315 0 4.631.053 6.945.131.148 6.216 1.923 12.251 5.15 17.527-10.988 6.736-17.409 18.794-16.813 31.709.274 5.924 2.043 11.69 5.127 16.731-9.822 6.031-16.018 16.517-16.758 27.858-11.679.586-22.964 3.162-33.478 7.564l-23.681-87.969c23.605-9.028 48.553-13.551 73.508-13.551zm-127.609 44.468 37.213 74.346-59.392-53.85c6.69-7.154 13.767-13.794 22.179-20.496zm-77.269 158.401 94.254-.974c1.763 21.806 10.493 42.205 25.064 58.435-4.179 2.216-8.031 5.048-11.419 8.436-2.483 2.484-4.626 5.179-6.449 8.022-18.728-14.345-45.673-13.022-62.907 4.212-6.688 6.688-10.967 14.882-12.864 23.499-17.472-31.463-26.024-66.582-25.679-101.63zm187.311 206.172c2.089-1.499 4.088-3.178 5.965-5.054 18.673-18.674 18.673-49.057 0-67.73-3.245-3.245-6.949-5.977-10.952-8.16 6.242-9.929 8.597-21.784 6.69-33.279 4.123 1.372 8.322 3.221 12.57 5.574 6.785 3.757 14.05 6.173 21.443 7.304.593 11.163 5.873 20.989 15.538 28.733 9.19 7.363 7.497 12.17 2.42 23.291-4.704 10.304-11.146 24.414 2.367 39.404 1.837 2.037 3.713 3.998 5.606 5.921-20.258 4.429-41.06 5.752-61.647 3.996z"/><path d="m490.464 115.662c15.904-15.905 15.905-41.645 0-57.549l-36.484-36.483c-15.906-15.905-41.645-15.905-57.551 0l-12.525 12.525c-96.667-55.912-224.221-43.784-308.878 40.872-84.565 84.565-96.846 212.1-40.871 308.878l-12.526 12.525c-15.865 15.867-15.865 41.684 0 57.55l36.483 36.483c15.868 15.866 41.682 15.866 57.55 0l12.526-12.526c38.458 22.243 82.244 34.108 127.859 34.108 141.492 0 256-114.497 256-256 0-45.615-11.866-89.401-34.109-127.858zm-83.427-83.426c10.041-10.042 26.294-10.043 36.336 0l36.484 36.483c10.042 10.043 10.042 26.294 0 36.336l-10.031 10.03c-9.446-14.262-20.386-27.685-32.76-40.058h-.001c-12.374-12.374-25.796-23.314-40.059-32.76zm-301.982 447.62c-10.017 10.019-26.316 10.021-36.335 0l-36.483-36.483c-10.019-10.018-10.018-26.318-.001-36.336l10.031-10.03c19.087 28.819 43.988 53.724 72.819 72.819zm321.403-53.397c-109.194 109.197-293.253 89.078-375.462-43.75-57.383-92.888-45.844-216.594 34.638-297.075 80.376-80.377 204.03-92.104 297.054-34.65 132.643 82.062 153.1 266.146 43.77 375.475z"/><path d="m278.085 211.502c-3.828-3.829-8.241-6.958-13.117-9.301-3.734-1.795-8.215-.222-10.008 3.512-1.794 3.733-.222 8.215 3.512 10.008 3.347 1.608 6.377 3.757 9.006 6.388 12.825 12.824 12.825 33.691 0 46.517-12.856 12.856-33.661 12.855-46.516 0-12.824-12.825-12.824-33.692 0-46.517 2.63-2.63 5.66-4.779 9.007-6.388 3.733-1.794 5.305-6.275 3.511-10.009-1.795-3.733-6.276-5.306-10.009-3.511-4.874 2.343-9.287 5.472-13.116 9.301-18.672 18.673-18.672 49.056 0 67.729 18.721 18.719 49.011 18.717 67.73 0 18.673-18.673 18.673-49.056 0-67.729z"/></g></g></svg>