<svg height="512" viewBox="0 0 512 512" width="512" xmlns="http://www.w3.org/2000/svg"><g id="Filled_outline" data-name="Filled outline"><g fill="#7eb357"><path d="m36.744 334.138c19.506-5.276 41.493-4.56 62.344 2.029 20.851 6.589 39.324 18.659 52.381 34.225l8.531 10.169-12.744 3.447c-19.506 5.276-41.493 4.56-62.344-2.029-20.851-6.589-39.324-18.659-52.381-34.225l-8.531-10.17z"/><path d="m105.68 277.856c-16.509-14.656-36.48-24.431-56.617-27.712l-13.158-2.144 3.686 12.812c5.643 19.611 17.711 38.28 34.22 52.938 16.51 14.658 36.477 24.431 56.617 27.712l13.159 2.144-3.687-12.812c-5.642-19.61-17.711-38.28-34.22-52.938z"/><path d="m475.256 366.138c-19.506-5.276-41.493-4.56-62.344 2.029-20.851 6.589-39.324 18.659-52.381 34.225l-8.531 10.169 12.744 3.447c19.506 5.276 41.493 4.56 62.344-2.029 20.851-6.589 39.324-18.659 52.381-34.225l8.531-10.17z"/><path d="m406.32 309.856c16.509-14.658 36.476-24.431 56.617-27.712l13.163-2.144-3.686 12.812c-5.643 19.611-17.711 38.28-34.22 52.938-16.51 14.658-36.477 24.431-56.617 27.712l-13.159 2.144 3.687-12.812c5.637-19.61 17.706-38.28 34.215-52.938z"/></g><path d="m352 88a72 72 0 0 0 -72 72v48a72 72 0 0 0 72 72 72 72 0 0 0 72-72v-48a72 72 0 0 0 -72-72zm40 120a40 40 0 0 1 -40 40 40 40 0 0 1 -40-40v-48a40 40 0 0 1 40-40 40 40 0 0 1 40 40z" fill="#ead982"/><path d="m312 132.393v-68.393h-144l14.263 17.829a80.939 80.939 0 0 1 17.737 50.564 80.942 80.942 0 0 1 -26.248 59.667l-4.51 4.135a201.193 201.193 0 0 0 -65.242 148.31 201.2 201.2 0 0 0 21.24 89.976l10.76 21.519h240l10.76-21.519a201.2 201.2 0 0 0 21.24-89.976 201.193 201.193 0 0 0 -65.242-148.305l-4.51-4.135a80.942 80.942 0 0 1 -26.248-59.672z" fill="#efe29e"/><path d="m408 344.5a201.179 201.179 0 0 1 -21.24 89.98l-10.76 21.52h-240l-10.76-21.52a201.188 201.188 0 0 1 44-238.28l4.51-4.14.06-.06h164.38l.06.06 4.51 4.14a201.156 201.156 0 0 1 65.24 148.3z" fill="#ffb431"/><path d="m216 24h80v40h-80z" fill="#91563a"/><rect fill="#804a32" height="64" rx="32" width="80" x="24" y="376"/><rect fill="#804a32" height="64" rx="32" width="80" x="368" y="400"/><rect fill="#91563a" height="64" rx="32" width="80" x="88" y="408"/><rect fill="#91563a" height="64" rx="32" width="80" x="304" y="424"/><path d="m495.632 367.181a8 8 0 0 0 -5.547-5.325l-12.735-3.439a114.068 114.068 0 0 0 -37.655-3.442c1.285-1.057 2.558-2.133 3.806-3.243 17.569-15.6 30.566-35.74 36.6-56.708l3.69-12.809a8 8 0 0 0 -8.972-10.111l-13.162 2.14a118.279 118.279 0 0 0 -41.8 15.719l8.3 13.68a102.137 102.137 0 0 1 36.075-13.607l.692-.112-.194.675c-5.2 18.094-16.514 35.556-31.846 49.171a112.951 112.951 0 0 1 -17.022 12.486q.143-3.871.146-7.751a209.043 209.043 0 0 0 -13.7-74.322 79.7 79.7 0 0 0 29.692-62.183v-48a80.019 80.019 0 0 0 -112-73.331v-22.669a8 8 0 0 0 -8-8h-8v-32a8 8 0 0 0 -8-8h-80a8 8 0 0 0 -8 8v32h-40a8 8 0 0 0 -6.247 13l14.263 17.83a72.942 72.942 0 0 1 -7.669 99.336l-4.511 4.135a209.8 209.8 0 0 0 -19.607 20.593l12.312 10.218a193.936 193.936 0 0 1 18.106-19.016l2.284-2.096h158.138c13.766 13.463 26.269 27.393 36.332 43.918a202.562 202.562 0 0 1 13.461 25.77 192.677 192.677 0 0 1 9.088 122.766 40 40 0 0 0 -31.218 25q-1.6-.444-3.236-.755a40.194 40.194 0 0 0 -7.5-.7h-15.996a40.012 40.012 0 0 0 -39.2 32h-104.8v16h104.805a40.068 40.068 0 0 0 39.195 32.001h16a39.962 39.962 0 0 0 37.262-25.468 40.149 40.149 0 0 0 10.738 1.468h16a39.993 39.993 0 0 0 20-5.354l-8-13.846a23.982 23.982 0 0 1 -12 3.2h-16a24.071 24.071 0 0 1 -8.032-1.381 39.73 39.73 0 0 0 -2.7-13.17 40.269 40.269 0 0 0 -12.189-16.606 23.62 23.62 0 0 1 1.968-4.559 24.014 24.014 0 0 1 20.953-12.284h16a24.012 24.012 0 0 1 20.8 36l13.848 8a40.048 40.048 0 0 0 .33-39.418c3.287-1.75 6.5-3.634 9.6-5.659a113.712 113.712 0 0 0 25.022-22.032l8.529-10.17a8 8 0 0 0 1.503-7.54zm-119.766 88.819a24.784 24.784 0 0 1 -6.893 16.977 23.843 23.843 0 0 1 -16.973 7.023h-16a24 24 0 1 1 0-48c9.179 0 19.9-1.564 28.152 3.3a24.2 24.2 0 0 1 10.216 11.976 22.988 22.988 0 0 1 1.498 8.724zm-23.866-360a64.072 64.072 0 0 1 64 64v48a63.583 63.583 0 0 1 -18.746 45.253c-.507.507-1.026 1-1.55 1.492q-2.472-5.207-5.235-10.272l-.358-.744c-.059-.128-.122-.254-.188-.379l-1.8-3.744a48.01 48.01 0 0 0 11.877-31.606v-48a47.987 47.987 0 0 0 -79.019-36.616c-.333.282-.657.572-.981.861v-19.671a63.678 63.678 0 0 1 32-8.574zm-128-64h64v24h-64zm-35.49 44.832-3.865-4.832h119.355v16h-80v16h80v28.394a89.173 89.173 0 0 0 16.518 51.606h-129.036a88.91 88.91 0 0 0 -2.972-107.168zm155.143 109.331a73.108 73.108 0 0 1 -21.7-37.154 31.824 31.824 0 0 1 9.366-13.412l.011-.009a32 32 0 0 1 52.67 24.412v48a31.988 31.988 0 0 1 -5.181 17.447c-1.633-2.36-12.194-17.072-30.655-35.149zm129.686 188.447a97.688 97.688 0 0 1 -21.513 18.922 109.273 109.273 0 0 1 -11.635 6.605 39.678 39.678 0 0 0 -24.191-8.137h-5.464q1.806-7.752 3.014-15.616c.591-.2 1.188-.4 1.771-.586 19.335-6.111 39.879-6.8 57.853-1.935l.646.174z"/><path d="m180.817 218.3c-3.8 3.749-7.48 7.721-10.93 11.807l12.226 10.323c3.137-3.716 6.48-7.328 9.937-10.736z"/><path d="m174.491 250.2-12.982-9.351a178.763 178.763 0 0 0 -33.509 103.651h16a162.648 162.648 0 0 1 30.491-94.3z"/><path d="m136 400h-15.848a193.123 193.123 0 0 1 24.875-163.526l-13.264-8.948a209.563 209.563 0 0 0 -22.288 43.051c-17.288-14.878-38.2-24.926-59.131-28.334l-13.16-2.143a8 8 0 0 0 -8.972 10.111l3.688 12.81c6.032 20.971 19.029 41.112 36.6 56.709 1.25 1.111 2.524 2.188 3.81 3.247a114.064 114.064 0 0 0 -37.652 3.439l-12.74 3.44a8 8 0 0 0 -4.044 12.865l8.526 10.169a111.362 111.362 0 0 0 17.753 16.888 40.01 40.01 0 0 0 11.847 78.222h16a40.071 40.071 0 0 0 8.633-.958 40.058 40.058 0 0 0 39.367 32.958h16a40 40 0 0 0 0-80zm-88.723-141.4-.194-.671.691.111c18.582 3.027 37.261 12.193 52.6 25.812q1.842 1.632 3.6 3.334a208.332 208.332 0 0 0 -6.656 33.779 112.9 112.9 0 0 1 -18.2-13.192c-15.326-13.618-26.636-31.08-31.841-49.173zm-8.618 84.014-.479-.572.65-.175c17.758-4.805 38.029-4.18 57.178 1.737 0 .3-.008.6-.008.906a209.138 209.138 0 0 0 2.584 32.775c-.442-.091-.882-.193-1.324-.288a39.863 39.863 0 0 0 -25.26-8.997h-.444a108.861 108.861 0 0 1 -11.38-6.467 97.718 97.718 0 0 1 -21.517-18.924zm17.341 89.386a24 24 0 1 1 0-48h16a24 24 0 0 1 24 24v.022a40.112 40.112 0 0 0 -14.77 22.134 24.057 24.057 0 0 1 -9.23 1.844zm80 32h-16a24 24 0 0 1 0-48h16a24 24 0 0 1 0 48z"/></g></svg>