<svg id="Capa_1" enable-background="new 0 0 512 512" height="512" viewBox="0 0 512 512" width="512" xmlns="http://www.w3.org/2000/svg"><g><g><path d="m237.015 240.658c6.239-.659 12.571-1.009 18.985-1.009 20.904 0 40.965 3.6 59.609 10.196l13.411-13.411c2.259-8.246 1.305-15.752-3.385-20.442-5.844-5.844-16.06-5.883-26.633-1.136.179-1.699.28-3.43.28-5.192 0-21.186-13.376-38.36-29.877-38.36s-29.877 17.174-29.877 38.36c0 1.736.099 3.441.272 5.116-10.57-4.743-20.783-4.703-26.626 1.139-.151.151-.29.31-.433.466z" fill="#9be69d"/><path d="m147.899 276.048c25.277-19.233 55.835-31.874 89.116-35.389l-33.822-33.822c-6.082-6.082-16.034-6.082-22.116 0l-40.136 40.137c-6.082 6.082-6.082 16.034 0 22.116z" fill="#fd6930"/><path d="m387.829 297.715c4.073-11.197 11.454-18.68 19.884-18.68.49 0 .976.029 1.458.079 2.354-5.677 1.238-12.484-3.36-17.082l-40.137-40.137c-6.082-6.082-16.034-6.082-22.116 0l-27.949 27.95c27.909 9.874 52.635 26.477 72.22 47.87z" fill="#fe7d43"/><path d="m344.3 262.959 24.398-24.398c2.571-2.571 5.834-4.042 9.203-4.439l-12.226-12.226c-6.082-6.082-16.034-6.082-22.116 0l-27.949 27.95c10.001 3.538 19.597 7.934 28.69 13.113z" fill="#fd6930"/><path d="m107.454 319.007c16.551-24.702 39.097-45.043 65.559-58.946l-28.745-28.745c-6.082-6.082-16.034-6.082-22.116 0l-40.136 40.137c-6.082 6.082-6.082 16.034 0 22.116z" fill="#fe7d43"/><g><g><path d="m104.287 279.035c-8.265 0-15.516 7.197-19.636 18.029-1.075-1.328-2.227-2.623-3.473-3.869-14.981-14.981-36.583-17.666-48.251-5.999-11.668 11.668-8.982 33.27 5.999 48.251 1.227 1.227 2.503 2.364 3.81 3.425-10.828 4.12-18.021 11.37-18.021 19.633 0 11.242 13.305 20.618 30.981 22.772-4.208 7.304-5.187 14.703-1.917 20.39h24.297c3.693-39.908 20.512-76.008 46.096-103.952-4.074-11.197-11.455-18.68-19.885-18.68z" fill="#bbf49b"/><path d="m24.714 358.505c0 11.242 13.305 20.618 30.981 22.772-3.965 6.883-5.062 13.851-2.438 19.39h33.286c-2.623-5.54-1.527-12.507 2.438-19.39-17.676-2.154-30.981-11.53-30.981-22.772 0-8.263 7.193-15.513 18.021-19.633-1.307-1.061-2.583-2.198-3.81-3.425-14.981-14.981-17.667-36.583-5.999-48.251.994-.994 2.065-1.876 3.193-2.663-13.059-6.772-27.627-6.189-36.479 2.663-11.668 11.668-8.982 33.27 5.999 48.251 1.227 1.227 2.503 2.364 3.81 3.425-10.827 4.121-18.021 11.371-18.021 19.633z" fill="#9be69d"/></g><g><path d="m487.286 358.505c0-8.263-7.193-15.513-18.021-19.633 1.307-1.061 2.583-2.198 3.811-3.425 14.98-14.981 17.666-36.583 5.999-48.251s-33.27-8.982-48.251 5.999c-1.246 1.246-2.398 2.541-3.473 3.869-4.12-10.832-11.371-18.029-19.636-18.029-8.43 0-15.811 7.483-19.884 18.68 25.583 27.944 42.402 64.044 46.095 103.952h24.297c3.27-5.687 2.291-13.087-1.917-20.39 17.675-2.154 30.98-11.53 30.98-22.772z" fill="#bbf49b"/><path d="m479.073 287.196c-11.667-11.668-33.27-8.982-48.251 5.999-1.246 1.246-2.398 2.541-3.473 3.869-4.12-10.832-11.371-18.029-19.636-18.029-8.43 0-15.811 7.483-19.884 18.68 3.296 3.6 6.441 7.34 9.436 11.202 3.141-2.641 6.689-4.134 10.448-4.134 8.265 0 15.516 7.197 19.636 18.029 1.075-1.328 2.227-2.623 3.473-3.869 14.981-14.981 36.583-17.666 48.251-5.999 1.916 1.916 3.437 4.103 4.588 6.482 4.624-11.872 3.314-24.329-4.588-32.23z" fill="#9be69d"/></g></g><path d="m433.925 401.667c-8.41-90.871-84.858-162.018-177.925-162.018s-169.515 71.147-177.924 162.018z" fill="#ffe177"/><path d="m137.376 401.667c7.497-81.007 69.064-146.334 148.273-159.562-9.644-1.611-19.547-2.455-29.648-2.455-93.066 0-169.515 71.147-177.925 162.018h59.3z" fill="#ffd15b"/><g><path d="m17.837 407.544 37.996 93.833c.764 1.888 2.598 3.123 4.634 3.123h391.065c2.037 0 3.87-1.235 4.634-3.123l37.996-93.833c1.331-3.287-1.088-6.877-4.634-6.877h-467.056c-3.547 0-5.966 3.59-4.635 6.877z" fill="#f3eae6"/></g><g><path d="m124.3 501.377-37.996-93.833c-1.331-3.287 1.088-6.877 4.635-6.877h-68.467c-3.546 0-5.965 3.59-4.634 6.877l37.996 93.833c.765 1.888 2.598 3.123 4.635 3.123h68.467c-2.039 0-3.872-1.235-4.636-3.123z" fill="#e1d3ce"/></g><g><path d="m456.167 501.377 18.265-45.107h-436.864l3.293 8.131 14.972 36.975c.765 1.888 2.598 3.123 4.635 3.123h391.065c2.036.001 3.869-1.234 4.634-3.122z" fill="#e1d3ce"/></g><g><path d="m124.3 501.377-18.265-45.106h-68.467l18.265 45.106c.765 1.888 2.598 3.123 4.635 3.123h68.467c-2.038 0-3.871-1.235-4.635-3.123z" fill="#cdbfba"/></g><g><g><path d="m320.004 7.5c-57.245 0-104.007 45.739-105.661 102.59-.049 1.701 1.3 3.115 3.002 3.115h205.318c1.702 0 3.052-1.414 3.002-3.115-1.654-56.851-48.416-102.59-105.661-102.59z" fill="#4fc123"/></g><path d="m358.74 107.159c.371-.647 1.063-1.046 1.808-1.046.749 0 1.439.399 1.811 1.046l3.477 6.046h30.916c0-42.318-34.429-76.746-76.747-76.746-42.317 0-76.746 34.428-76.746 76.746h112.005z" fill="#d7f8c4"/><g><path d="m336.875 38.351c-5.433-1.224-11.074-1.891-16.871-1.891-42.317 0-76.746 34.428-76.746 76.746h33.742c0-36.521 25.65-67.144 59.875-74.855z" fill="#bbf49b"/></g></g><g><g><path d="m360.547 106.113c.749 0 1.439.399 1.811 1.046l17.834 31.016c2.306 3.682 3.524 7.927 3.524 12.278 0 12.775-10.392 23.167-23.169 23.167-12.773 0-23.167-10.392-23.167-23.167 0-4.351 1.22-8.597 3.522-12.278l17.838-31.016c.37-.647 1.062-1.046 1.807-1.046z" fill="#d7f8c4"/></g></g><g><path d="m358 150.453c0-4.351 1.22-8.597 3.522-12.278l9.336-16.234-8.5-14.782c-.373-.647-1.063-1.046-1.811-1.046-.745 0-1.437.399-1.808 1.046l-17.838 31.016c-2.302 3.682-3.522 7.927-3.522 12.278 0 12.775 10.394 23.167 23.167 23.167 3.703 0 7.203-.878 10.311-2.429-7.612-3.8-12.857-11.665-12.857-20.738z" fill="#bbf49b"/></g></g><g><path d="m132.894 176.617-18.894-18.894c-2.424-2.424-2.424-6.354 0-8.778l18.894-18.894c2.424-2.424 6.354-2.424 8.778 0l18.894 18.894c2.424 2.424 2.424 6.354 0 8.778l-18.894 18.894c-2.424 2.424-6.354 2.424-8.778 0z" fill="#fcd1e8"/></g><g><path d="m425.509 230.182-18.894-18.894c-2.424-2.424-2.424-6.354 0-8.778l18.894-18.894c2.424-2.424 6.354-2.424 8.778 0l18.894 18.894c2.424 2.424 2.424 6.354 0 8.778l-18.894 18.894c-2.423 2.424-6.353 2.424-8.778 0z" fill="#fcd1e8"/></g><g><path d="m95.112 63.499 38.004-10.183c3.744-1.003 4.998-5.683 2.257-8.424l-27.821-27.821c-2.741-2.741-7.421-1.487-8.424 2.257l-10.183 38.005c-1.003 3.744 2.423 7.17 6.167 6.166z" fill="#fcd1e8"/></g><g><path d="m59.679 123.517-38.004 10.183c-3.744 1.003-4.998 5.683-2.257 8.424l27.821 27.821c2.741 2.741 7.421 1.487 8.424-2.257l10.183-38.004c1.003-3.744-2.423-7.17-6.167-6.167z" fill="#fcd1e8"/></g><g><path d="m499.895 398.682c-2.327-3.453-6.202-5.515-10.366-5.515h-21.909c-.07-2.054-.369-4.159-.922-6.294 16.931-4.639 28.089-15.539 28.089-28.368 0-8.323-4.688-15.946-12.936-21.553 6.424-7.694 10.516-16.749 11.659-25.947 1.425-11.459-1.819-21.798-9.133-29.112-7.314-7.313-17.651-10.562-29.112-9.133-9.221 1.146-18.296 5.256-26.002 11.705-3.221-4.737-7.11-8.292-11.413-10.465.244-6.225-1.993-12.529-6.734-17.271l-40.137-40.137c-9.022-9.02-23.699-9.021-32.724 0l-2.199 2.199c-1.117-3.047-2.807-5.792-5.117-8.102-5.886-5.885-14.59-7.962-24.384-6.095-2.063-22.911-17.937-40.79-37.15-40.79-19.193 0-35.054 17.843-37.144 40.719-7.025-1.34-13.482-.641-18.749 2.027l-5.016-5.016c-9.021-9.02-23.7-9.021-32.724 0l-25.341 25.34-.862-.862c-9.024-9.021-23.701-9.021-32.724 0l-40.137 40.137c-3.048 3.049-5.055 6.744-6.042 10.648-4.496-2.07-9.195-3.447-13.934-4.036-11.464-1.429-21.798 1.818-29.112 9.133-7.313 7.314-10.558 17.653-9.133 29.112 1.144 9.198 5.236 18.253 11.659 25.947-8.247 5.606-12.936 13.229-12.936 21.553 0 12.829 11.158 23.729 28.089 28.368-.553 2.135-.851 4.24-.92 6.294h-21.907c-4.164 0-8.039 2.062-10.366 5.515-2.327 3.452-2.783 7.818-1.221 11.678l37.997 93.833c1.921 4.743 6.469 7.808 11.585 7.808h391.065c5.117 0 9.665-3.064 11.587-7.808l37.996-93.833c1.563-3.861 1.106-8.226-1.22-11.679zm-73.728-94.211c2.658.429 5.326-.604 7.014-2.689.948-1.173 1.939-2.276 2.945-3.282 6.07-6.071 13.524-9.926 20.989-10.854 6.775-.843 12.683.883 16.654 4.854 3.973 3.972 5.696 9.887 4.855 16.654-.929 7.465-4.783 14.919-10.854 20.989-.989.99-2.077 1.968-3.232 2.905-2.082 1.69-3.104 4.363-2.679 7.012.425 2.647 2.231 4.867 4.738 5.821 8.012 3.049 13.188 8.004 13.188 12.623 0 7.733-12.4 13.866-24.39 15.327-2.498.305-4.677 1.842-5.802 4.093-1.125 2.252-1.046 4.917.211 7.098 1.692 2.936 2.644 5.724 2.828 8.145h-12.141c-2.096-15.506-6.114-30.561-11.917-44.866l21.374-21.374c2.929-2.93 2.929-7.678 0-10.607-2.93-2.928-7.678-2.928-10.607 0l-17.425 17.425c-6.839-13.396-15.325-25.977-25.323-37.469 3.14-6.246 7.376-9.74 11.119-9.74 4.621 0 9.577 5.18 12.626 13.195.956 2.508 3.179 4.317 5.829 4.74zm-77.305-77.272c1.524-1.525 3.568-2.365 5.754-2.365 2.187 0 4.23.84 5.755 2.365l40.137 40.137c1.295 1.295 2.09 2.965 2.302 4.778-6.597 1.519-12.471 6.062-16.948 12.807-.841-.818-1.685-1.634-2.542-2.438-16.085-15.08-34.458-27.006-54.281-35.461zm-112.131-5.576c2.445 1.097 5.293.805 7.466-.766 2.173-1.572 3.341-4.184 3.064-6.852-.154-1.485-.232-2.946-.232-4.342 0-17.017 10.038-30.86 22.377-30.86s22.377 13.844 22.377 30.86c0 1.425-.08 2.905-.238 4.402-.283 2.67.883 5.286 3.057 6.862 2.174 1.575 5.022 1.868 7.473.77 7.824-3.513 14.993-3.671 18.259-.402 2.173 2.172 2.923 6.247 1.912 11.307l-8.641 8.641c-11.872-3.855-24.158-6.517-36.698-7.921v-13.331c0-4.143-3.357-7.5-7.5-7.5s-7.5 3.357-7.5 7.5v12.261c-1.965-.062-3.932-.104-5.905-.104-5.427 0-10.823.245-16.179.707l-13.974-13.974c3.185.062 6.95.978 10.882 2.742zm-50.35-9.482c1.524-1.525 3.568-2.365 5.755-2.365 2.186 0 4.229.84 5.754 2.365l23.271 23.27c-16.233 3.073-31.918 8.292-46.694 15.496l-13.426-13.426zm-58.926 24.478c1.524-1.525 3.568-2.365 5.755-2.365 2.186 0 4.229.84 5.754 2.365l21.733 21.733c-11.404 6.808-22.143 14.874-32.017 24.132-.857.804-1.701 1.619-2.542 2.437-5.56-8.378-13.273-13.385-21.852-13.385-7.237 0-13.942 3.547-19.254 9.892.231-1.771 1.017-3.403 2.287-4.671zm-65.05 141.306c-1.125-2.251-3.304-3.788-5.802-4.093-11.989-1.461-24.39-7.594-24.39-15.327 0-4.619 5.177-9.574 13.188-12.623 2.507-.954 4.313-3.174 4.738-5.821.425-2.648-.597-5.321-2.679-7.012-1.155-.938-2.243-1.915-3.233-2.905-6.07-6.07-9.925-13.524-10.854-20.989-.841-6.768.883-12.683 4.855-16.654 3.313-3.314 7.979-5.063 13.365-5.063 1.069 0 2.167.069 3.289.209 7.465.928 14.919 4.782 20.989 10.854 1.006 1.006 1.997 2.109 2.945 3.282 1.688 2.088 4.361 3.116 7.014 2.689 2.65-.423 4.873-2.231 5.827-4.74 3.049-8.016 8.005-13.195 12.626-13.195 3.743 0 7.979 3.494 11.119 9.74-9.998 11.492-18.483 24.074-25.322 37.47l-17.422-17.427c-2.93-2.928-7.678-2.928-10.607 0-2.929 2.93-2.929 7.678 0 10.607l21.374 21.373c-5.804 14.305-9.822 29.36-11.917 44.866h-12.142c.185-2.421 1.137-5.209 2.828-8.145 1.257-2.179 1.336-4.844.211-7.096zm406.973 70.846h-61.378c-4.143 0-7.5 3.357-7.5 7.5s3.357 7.5 7.5 7.5h55.303l-13.455 33.229h-387.696l-13.456-33.229h324.304c4.143 0 7.5-3.357 7.5-7.5s-3.357-7.5-7.5-7.5h-330.377l-16.442-40.604h159.819c4.143 0 7.5-3.357 7.5-7.5s-3.357-7.5-7.5-7.5h-99.343c5.608-38.081 23.873-73.107 52.283-99.741 31.831-29.842 73.404-46.276 117.061-46.276s85.229 16.435 117.061 46.276c28.409 26.634 46.674 61.659 52.283 99.741h-204.345c-4.143 0-7.5 3.357-7.5 7.5s3.357 7.5 7.5 7.5h264.819z"/><path d="m205.03 309.763h-19.692c-4.143 0-7.5 3.357-7.5 7.5s3.357 7.5 7.5 7.5h19.692c4.143 0 7.5-3.357 7.5-7.5s-3.357-7.5-7.5-7.5z"/><path d="m293.068 300.436h19.693c4.143 0 7.5-3.357 7.5-7.5s-3.357-7.5-7.5-7.5h-19.693c-4.143 0-7.5 3.357-7.5 7.5s3.358 7.5 7.5 7.5z"/><path d="m157.536 359.573h-19.693c-4.143 0-7.5 3.357-7.5 7.5s3.357 7.5 7.5 7.5h19.693c4.143 0 7.5-3.357 7.5-7.5s-3.357-7.5-7.5-7.5z"/><path d="m257.158 352.563h19.693c4.143 0 7.5-3.357 7.5-7.5s-3.357-7.5-7.5-7.5h-19.693c-4.143 0-7.5 3.357-7.5 7.5s3.358 7.5 7.5 7.5z"/><path d="m345.197 376.891h19.692c4.143 0 7.5-3.357 7.5-7.5s-3.357-7.5-7.5-7.5h-19.692c-4.143 0-7.5 3.357-7.5 7.5s3.358 7.5 7.5 7.5z"/><path d="m217.345 120.706h124.952l-7.832 13.618c-3 4.849-4.585 10.422-4.585 16.129 0 16.91 13.757 30.667 30.667 30.667 16.911 0 30.669-13.757 30.669-30.667 0-5.711-1.586-11.285-4.587-16.131l-7.829-13.616h43.864c2.818 0 5.562-1.16 7.526-3.184 1.972-2.03 3.056-4.819 2.973-7.649-.644-22.126-7.706-43.404-20.423-61.533-2.377-3.392-7.057-4.214-10.446-1.833-3.392 2.378-4.212 7.056-1.833 10.446 10.142 14.459 16.136 31.227 17.467 48.753h-14.029c-3.809-42.951-39.97-76.746-83.894-76.746s-80.085 33.795-83.894 76.746h-14.03c1.804-23.837 12.167-46.01 29.478-62.855 18.455-17.96 42.762-27.851 68.445-27.851 20.856 0 40.791 6.483 57.646 18.749 3.35 2.438 8.04 1.697 10.478-1.651 2.438-3.35 1.697-8.04-1.651-10.478-19.438-14.143-42.424-21.62-66.473-21.62-29.612 0-57.636 11.4-78.908 32.101-21.229 20.659-33.392 48.279-34.25 77.771-.083 2.832 1.001 5.621 2.973 7.651 1.963 2.023 4.708 3.183 7.526 3.183zm143.202 45.414c-8.639 0-15.667-7.028-15.667-15.667 0-2.94.823-5.811 2.381-8.301.05-.079.097-.158.144-.238l12.197-21.208h1.896l12.194 21.207c.047.082.096.163.146.242 1.557 2.486 2.38 5.355 2.38 8.298-.002 8.639-7.031 15.667-15.671 15.667zm28.3-60.414h-18.672l-1.313-2.284c-1.705-2.966-4.891-4.809-8.314-4.809-3.426 0-6.612 1.846-8.31 4.807l-1.315 2.286h-12.811l35.84-35.84c8.081 10.039 13.437 22.36 14.895 35.84zm-61.343-61.327c13.478 1.459 25.804 6.797 35.843 14.877l-35.843 35.843zm-15 0v50.72l-35.842-35.843c10.038-8.08 22.364-13.418 35.842-14.877zm-46.447 25.486 35.84 35.841h-50.735c1.457-13.48 6.813-25.802 14.895-35.841z"/><path d="m127.59 124.747-18.894 18.894c-2.589 2.59-4.015 6.032-4.015 9.693 0 3.662 1.426 7.104 4.015 9.691l18.894 18.895c.001.001.001.001.002.002 2.672 2.671 6.182 4.007 9.691 4.007s7.021-1.337 9.692-4.008l18.895-18.895c5.343-5.344 5.344-14.039-.001-19.386l-18.893-18.892c-2.589-2.591-6.031-4.017-9.693-4.017-3.661.001-7.103 1.427-9.693 4.016zm26.759 28.587-17.065 17.065-17.065-17.065 17.065-17.065z"/><path d="m420.206 178.312-18.895 18.895c-5.343 5.344-5.344 14.039.001 19.386l18.895 18.894c2.588 2.589 6.03 4.015 9.691 4.015s7.104-1.426 9.693-4.015l18.894-18.894c2.589-2.59 4.015-6.032 4.015-9.693 0-3.662-1.426-7.104-4.015-9.691l-18.896-18.896c-5.343-5.344-14.039-5.343-19.383-.001zm26.758 28.586-17.065 17.065-17.065-17.065 17.065-17.065z"/><path d="m93.751 71.183c1.095 0 2.203-.145 3.303-.439l38.004-10.183c4.376-1.172 7.689-4.485 8.862-8.861 1.174-4.378-.039-8.904-3.244-12.11l-27.819-27.82c-3.205-3.205-7.73-4.421-12.108-3.245-4.377 1.173-7.691 4.486-8.863 8.863l-10.185 38.005c-1.173 4.378.04 8.904 3.245 12.108 2.4 2.399 5.541 3.682 8.805 3.682zm11.517-45.787 21.783 21.781-29.756 7.973zm-12.089 30.857-.008.002h-.001c.003-.001.006-.002.009-.002z"/><path d="m41.935 175.248c2.4 2.4 5.542 3.683 8.808 3.683 1.094 0 2.203-.144 3.302-.438 4.377-1.173 7.69-4.486 8.862-8.863l10.184-38.005c1.173-4.377-.04-8.903-3.244-12.107-3.205-3.205-7.734-4.417-12.107-3.244h-.001l-38.003 10.184c-4.378 1.172-7.691 4.485-8.864 8.862-1.173 4.378.04 8.904 3.244 12.109zm15.561-43.382-7.974 29.756-21.782-21.782z"/></g></g></svg>