<svg id="Capa_1" enable-background="new 0 0 511.952 511.952" height="512" viewBox="0 0 511.952 511.952" width="512" xmlns="http://www.w3.org/2000/svg"><g><g><path d="m495.952 260.212c0-132.548-107.452-240-240-240-64.832 0-123.66 25.706-166.847 67.482-3.406 3.295-6.085 7.023-9.291 10.512-39.263 42.73-59.436 99.402-59.436 162.005 0 132.548 103.026 234.83 235.574 234.83 60.974 0 116.321-17.99 158.656-55.449 5.198-4.599 15.292-14.026 15.292-14.026 40.932-43.043 66.052-101.265 66.052-165.354z" fill="#f8f7f7"/><path d="m464.809 261.325c0-115.348-93.508-208.857-208.857-208.857-56.056 0-106.954 22.084-144.469 58.026 0 0-10.41 11.822-15.609 18.118-29.82 36.11-44.834 82.223-44.834 132.712 0 115.348 89.564 205.663 204.913 205.663 49.612 0 94.806-15.029 130.635-43.923 7.3-5.887 21.017-18.133 21.017-18.133 35.456-37.43 57.204-87.979 57.204-143.606z" fill="#e8e8e8"/><path d="m270.853 91.374c-3.207-46.835-43.774-82.201-90.609-78.994-21.392 1.465-40.391 10.724-54.415 24.814 0 0-1.491 1.967-2.335 2.894-15.077 16.543-21.427 38.639-19.777 62.732 3.207 46.835 41.129 79.759 87.963 76.551 26.892-1.842 50.006-13.511 64.205-34.101.539-.781 1.752-2.248 1.752-2.248 9.511-14.825 14.512-32.725 13.216-51.648z" fill="#fff082"/><path d="m257.738 142.865c-10.333 16.192-26.037 28.735-44.794 34.974 0 0-5.067-.839-7.673-.238-4.346 1.003-8.82 4.068-13.412 4.382-46.84 3.208-87.401-32.154-90.609-78.994-.833-12.17 3.613-23.891 7.51-34.665 1.09-3.013 1.08-8.822 1.08-8.822 4.134-8.342 9.605-15.932 16.154-22.475-9.453 14.795-14.405 32.636-13.114 51.492 3.208 46.84 43.769 82.202 90.609 78.994 21.306-1.459 40.241-10.646 54.249-24.648z" fill="#ffdc64"/><path d="m223.372 109.222c10.573 3.411 20.874-5.902 18.541-16.764l-2.985-13.901c-2.332-10.862-15.548-15.126-23.789-7.675 8.241-7.451 5.325-21.028-5.248-24.439l-13.531-4.366c-10.573-3.411-20.874 5.902-18.541 16.764-2.332-10.862-15.548-15.126-23.789-7.675l-10.546 9.536c-8.241 7.451-5.325 21.028 5.248 24.439-10.573-3.411-20.874 5.902-18.541 16.764l2.985 13.901c2.332 10.862 15.548 15.126 23.789 7.675-8.241 7.451-5.325 21.028 5.248 24.439l13.531 4.366c10.573 3.411 20.874-5.902 18.541-16.764 2.332 10.862 15.548 15.126 23.789 7.675l10.546-9.536c8.24-7.45 5.325-21.027-5.248-24.439zm-32.073 12.399c-2.332-10.862-15.548-15.126-23.789-7.675 8.241-7.451 5.325-21.028-5.248-24.439 10.573 3.411 20.874-5.902 18.541-16.764 2.332 10.862 15.548 15.126 23.789 7.675-8.241 7.451-5.325 21.028 5.248 24.439-10.572-3.411-20.873 5.902-18.541 16.764z" fill="#ffdc64"/><path d="m431.823 423.528c-43.837 47.169-106.411 76.684-175.871 76.684-132.546 0-240-107.454-240-240 0-69.46 29.515-132.034 76.684-175.871-39.791 42.843-64.129 100.23-64.129 163.316 0 132.546 107.454 240 240 240 63.086 0 120.474-24.338 163.316-64.129z" fill="#e8e8e8"/><path d="m409.834 402.549c-38.178 41.577-92.988 67.633-153.882 67.633-115.353 0-208.857-93.504-208.857-208.857 0-60.895 26.056-115.704 67.633-153.882-34.128 37.175-54.975 86.765-54.975 141.224 0 115.353 93.504 208.857 208.857 208.857 54.458 0 104.049-20.847 141.224-54.975z" fill="#d8d8d8"/><g><path d="m76.718 406.994c-.196-.101-.532-.496-.729-.594-4.33-2.146-8.929-3.598-13.625-4.345 0 0-2.324-.015-3.486-.114-13.351-1.132-25.884 4.367-36.266 14.681-17.323 17.21-18.033 42.213-2.41 60.979 9.153 10.994 20.429 17.725 33.559 18.085 2.888.079 8.482.188 8.482.188 8.799-1.371 17.312-5.229 24.423-11.631 15.072-13.57 19.419-34.597 12.507-52.449-.443-1.144-.106-2.445.805-3.266l403.48-363.295c.632-.569.993-1.38.993-2.23l-.004-16.82-.924-15.223c0-1.732-2.051-2.644-3.338-1.486l-419.967 376.967c-.911.82-2.409 1.113-3.5.553zm-10.123 54.957c-7.182 6.466-18.245 5.887-24.712-1.295s-5.886-18.245 1.295-24.712c7.182-6.466 18.245-5.887 24.712 1.295 6.466 7.182 5.886 18.246-1.295 24.712z" fill="#f8f7f7"/><path d="m504.448 46.182-408.084 367.303c-3.953 3.558-10 3.399-13.761-.362l-6.811-6.82c.27.12.53.269.79.399 1.09.56 2.42.35 3.33-.47l421.19-379.24c1.29-1.16 3.34-.25 3.34 1.48z" fill="#e8e8e8"/><path d="m62.401 495.849c-15.94 2.55-32.839-3.097-44.049-16.547-15.62-18.77-14.31-46.79 3.01-64 11.29-11.21 26.601-15.547 41.001-13.247-9.47 1.5-18.601 5.897-26.001 13.247-17.32 17.21-18.63 45.23-3.01 64 7.71 9.26 18.119 14.817 29.049 16.547z" fill="#e8e8e8"/><path d="m413.876 80.027c-.337.303-.822.358-1.224.151-10.469-5.388-23.861-4.443-33.588 4.315-6.721 6.052-10.18 14.669-9.818 23.353.211 5.061-3.687 9.306-8.753 9.328-8.308.036-19.681 1.761-28.241 9.469-6.721 6.052-10.18 14.669-9.818 23.353.211 5.061-3.687 9.306-8.753 9.328-8.308.036-19.681 1.761-28.241 9.469-6.721 6.052-10.18 14.669-9.818 23.353.211 5.061-3.688 9.306-8.753 9.328-8.308.036-19.681 1.761-28.241 9.469-6.721 6.052-10.18 14.669-9.818 23.353.211 5.061-3.687 9.306-8.753 9.328-8.308.036-19.681.761-28.241 8.469-6.721 6.052-10.18 14.669-9.818 23.353.211 5.061-3.687 9.306-8.753 9.328-8.308.036-19.681 1.761-28.241 9.47-6.741 6.07-10.2 14.719-9.815 23.428.325 7.347-2.445 14.49-7.911 19.411-12.848 11.569-15.309 29.021-3.74 41.869l2.532 3.794 10.094 11.211c8.869 9.85 24.044 10.646 33.895 1.776.746-.672 1.827-.855 2.733-.422 10.348 4.95 23.322 3.841 32.81-4.702 6.721-6.052 10.18-14.669 9.818-23.353-.211-5.061 3.687-9.306 8.753-9.328 8.308-.036 19.681-1.761 28.241-9.469 6.721-6.052 10.18-14.669 9.818-23.353-.211-5.061 3.687-9.306 8.753-9.328 8.308-.036 19.681-1.761 28.241-9.469 6.721-6.052 10.18-14.669 9.818-23.353-.211-5.061 3.687-9.306 8.753-9.328 8.308-.036 19.681-1.761 28.241-9.469 6.721-6.052 10.18-14.669 9.818-23.353-.211-5.061 3.687-9.306 8.753-9.328 8.308-.036 19.681-1.761 28.241-9.469 6.721-6.052 10.18-14.669 9.818-23.353-.211-5.061 3.687-9.306 8.753-9.328 8.308-.036 19.681-1.761 28.241-9.469 6.741-6.07 10.2-14.719 9.815-23.428-.325-7.347 2.445-14.49 7.911-19.411l.561-.505c12.848-11.569 13.886-31.362 2.317-44.211l-11.638-12.926-.691-.298c-9.511-10.562-23.495-8.565-34.057.946z" fill="#966a5b"/><path d="m448.627 79.378c-7.67-1.38-15.935.715-22.245 6.395-.35.31-.84.37-1.24.16-10.52-5.34-24.05-4.27-33.95 4.64-6.83 6.16-10.4 14.87-10.11 23.62.17 5.1-3.8 9.41-8.91 9.47-8.39.11-19.89 1.95-28.59 9.79-6.84 6.15-10.41 14.87-10.11 23.61.16 5.1-3.81 9.41-8.92 9.48-8.39.1-19.88 1.94-28.59 9.78-6.84 6.16-10.4 14.87-10.11 23.62.17 5.1-3.8 9.41-8.92 9.47-8.39.11-19.88 1.95-28.59 9.79-6.84 6.15-10.4 14.87-10.11 23.61.17 5.1-3.8 9.41-8.92 9.48-8.38.1-19.88 1.94-28.59 9.78-6.83 6.16-10.4 14.87-10.11 23.62.17 5.1-3.8 9.41-8.91 9.47-8.39.11-19.89 1.95-28.59 9.79-6.86 6.17-10.43 14.92-10.11 23.69.26 7.4-2.6 14.62-8.15 19.63-7.06 6.35-10.66 15.09-10.66 23.81 0 3.61.623 7.24 1.883 10.67l-3.113-3.46c-5.39-5.98-8.04-13.47-8.04-20.93 0-8.57 3.49-17.1 10.36-23.28 5.46-4.92 8.23-12.06 7.91-19.41-.39-8.71 3.07-17.36 9.81-23.43 8.56-7.71 19.93-9.43 28.24-9.47 5.07-.02 8.97-4.27 8.75-9.33-.36-8.68 3.1-17.3 9.82-23.35 8.56-7.71 19.94-9.43 28.24-9.47 5.07-.02 8.97-4.27 8.76-9.33-.36-8.68 3.09-17.3 9.82-23.35 8.56-7.71 19.93-9.43 28.24-9.47 5.06-.02 8.96-4.27 8.75-9.33-.36-8.68 3.1-17.3 9.82-23.35 8.56-7.71 19.93-9.43 28.24-9.47 5.06-.02 8.96-4.27 8.75-9.33-.36-8.68 3.1-17.3 9.82-23.35 8.56-7.71 19.93-9.43 28.24-9.47 5.07-.02 8.96-4.27 8.75-9.33-.36-8.68 3.1-17.3 9.82-23.35 9.73-8.76 23.12-9.7 33.59-4.31.4.2.89.15 1.22-.16h.01c10.56-9.51 26.83-8.65 36.34 1.91z" fill="#845752"/></g><g fill="#ed4a62"><circle cx="301.922" cy="419.212" r="14"/><circle cx="237.952" cy="425.065" r="13.5"/></g><g><path d="m438.201 346.96c0-32.86-26.638-59.498-59.498-59.498-13.478 0-25.91 4.482-35.886 12.036 0 0-2.315 2.36-3.562 3.481-12.113 10.891-16.712 26.407-16.712 43.98 0 32.86 23.301 57.918 56.16 57.918 18.398 0 34.777-6.98 45.691-20.098.609-.732 1.844-2.031 1.844-2.031 7.51-9.959 11.963-22.353 11.963-35.788z" fill="#ed4a62"/><path d="m426.238 382.748c-10.861 14.397-28.114 23.714-47.535 23.714-32.858 0-59.498-26.639-59.498-59.498 0-19.431 9.314-36.678 23.711-47.539-7.502 9.95-11.958 22.349-11.958 35.787 0 32.858 26.639 59.498 59.498 59.498 13.427 0 25.822-4.46 35.782-11.962z" fill="#cc2f63"/><g><path d="m407.917 346.96c0-5.655 1.894-11.87-.747-16.436-2.725-4.711-9.148-6.144-13.859-8.869-4.566-2.642-8.953-7.56-14.608-7.56s-10.042 4.918-14.607 7.56c-1.958 1.133-4.211 2.042-6.372 3.056 0 0-1.434 1.132-2.236 1.587-2.048 1.161-3.106 2.961-4.251 4.939-2.642 4.566-.563 10.069-.563 15.724 0 5.654-2.461 11.225.181 15.791 2.725 4.711 9.148 6.144 13.859 8.869 4.566 2.642 8.335 7.502 13.99 7.502s9.831-4.547 14.397-7.189c.912-.528 2.098-.674 3.099-1.138 4.17-1.932 8.772-3.6 10.97-7.399 2.641-4.567.747-10.782.747-16.437z" fill="#ffdc64"/></g><g><path d="m396.293 370.752c-1.028.48-2.047.972-2.987 1.511-4.564 2.644-8.952 7.561-14.603 7.561s-10.039-4.917-14.612-7.561c-4.701-2.723-11.126-4.153-13.858-8.863-2.635-4.564-.744-10.783-.744-16.434 0-5.661-1.89-11.88.744-16.444 1.596-2.752 4.455-4.39 7.491-5.81-.832 3.056-1.272 6.27-1.272 9.581 0 20.215 16.385 36.6 36.6 36.6 1.086-.002 2.173-.044 3.241-.141z" fill="#ffc850"/></g></g><path d="m212.382 175.783c-6.56 1.9-13.49 3.1-20.7 3.59-46.84 3.21-84.76-29.72-87.96-76.55-1.07-15.46 1.17-30.1 6.89-42.97 1.53-.07 3.07-.11 4.59-.11 51.66 0 94.9 40.41 98.43 92.01.56 8.129.13 16.179-1.25 24.03z" fill="#ffdc64"/><path d="m213.612 166.212c-.14 3.9-.368 7.966-.668 11.626-6.67 2.22-13.742 3.644-21.082 4.144-46.84 3.21-87.4-32.15-90.61-78.99-1.07-15.57 2.13-30.45 8.59-43.49 2.52.13 4.74.24 5.36.24.21 0 .41 0 .62.01-2.56 9.1-3.62 18.79-2.94 28.77 3.21 46.84 43.77 82.2 90.61 78.99 3.44-.239 6.82-.67 10.12-1.3z" fill="#ffc850"/><path d="m213.082 146.152c-7.77 2.69-16.9-1.78-18.8-10.63 2.33 10.86-7.97 20.18-18.54 16.76l-13.53-4.36c-10.57-3.41-13.49-16.99-5.25-24.44-8.24 7.45-21.45 3.19-23.79-7.68l-2.98-13.9c-2.33-10.86 7.97-20.17 18.54-16.76-9.45-3.05-12.78-14.22-7.5-21.88h.01c14.05 3.87 26.9 10.81 37.76 20.05-3.29 5.33-9.96 8.38-16.74 6.19 10.57 3.42 13.49 16.99 5.25 24.44 8.24-7.45 21.45-3.18 23.79 7.68-1.45-6.74 1.97-12.88 7.29-15.76 7.56 11.93 12.65 25.59 14.49 40.29z" fill="#ffc850"/><path d="m200.661 152.636c-3.236-47.247-44.16-82.925-91.407-79.689-21.58 1.478-40.746 10.818-54.894 25.032 0 0-1.504 1.985-2.356 2.919-15.21 16.689-21.616 38.979-19.951 63.285 3.236 47.247 41.491 80.461 88.738 77.225 27.128-1.858 50.447-13.63 64.77-34.401.543-.788 1.767-2.268 1.767-2.268 9.595-14.956 14.641-33.014 13.333-52.103z" fill="#fff082"/><g fill="#ffdc64"><path d="m187.431 204.58c-14.134 22.148-38.229 37.53-66.459 39.463-47.252 3.236-88.171-32.437-91.407-79.689-1.764-25.759 8.029-49.626 24.963-66.543-9.536 14.925-14.532 32.924-13.229 51.945 3.236 47.252 44.155 82.925 91.407 79.689 21.492-1.472 40.593-10.74 54.725-24.865z"/><path d="m152.762 170.641c10.666 3.441 21.057-5.954 18.704-16.912l-3.011-14.024c-2.353-10.958-15.685-15.259-23.998-7.743 8.313-7.516 5.372-21.213-5.294-24.655l-13.65-4.404c-10.666-3.441-21.057 5.954-18.704 16.912-2.353-10.958-15.685-15.259-23.998-7.743l-10.639 9.62c-8.313 7.516-5.372 21.213 5.294 24.655-10.666-3.441-21.057 5.954-18.704 16.912l3.011 14.024c2.353 10.958 15.685 15.259 23.998 7.743-8.313 7.516-5.372 21.213 5.294 24.655l13.65 4.404c10.666 3.441 21.057-5.954 18.704-16.912 2.353 10.958 15.685 15.259 23.998 7.743l10.639-9.62c8.313-7.517 5.372-21.214-5.294-24.655zm-32.355 12.508c-2.353-10.958-15.685-15.259-23.998-7.743 8.313-7.516 5.372-21.213-5.294-24.655 10.666 3.441 21.057-5.954 18.704-16.912 2.353 10.958 15.685 15.259 23.998 7.743-8.313 7.516-5.372 21.213 5.294 24.655-10.665-3.441-21.057 5.954-18.704 16.912z"/></g></g><g><path d="m511.952 63.001-.009-39.02c-.001-2.962-1.744-5.646-4.45-6.85-2.706-1.206-5.866-.704-8.068 1.278l-54.117 48.727c-10.388-5.792-23.336-5.641-33.651.723-24.015-19.479-51.045-34.105-80.426-43.479-3.943-1.256-8.165.918-9.425 4.866-1.259 3.945.92 8.165 4.866 9.425 21.39 6.824 41.455 16.616 59.907 29.194-5.284 1.529-10.273 4.216-14.534 8.054-.079.071-.152.147-.23.219-33.293-21.006-71.492-32.496-111.025-33.367-3.887-5.396-8.362-10.396-13.374-14.888 2.836-.103 5.673-.171 8.505-.171 12.65 0 25.342 1.023 37.722 3.043 3.179.528 7.36-1.453 8.609-6.195.667-4.088-2.107-7.942-6.195-8.609-13.175-2.148-26.679-3.238-40.136-3.238-9.453 0-18.965.558-28.308 1.621-50.814-25.875-112.585.147-130.313 53.498-11.608 2.177-22.85 6.591-33.143 13.188-3.487 2.235-4.503 6.875-2.268 10.361 2.236 3.488 6.875 4.501 10.361 2.268 20.267-12.99 44.917-15.928 67.632-8.057 19.673 6.815 35.514 20.885 44.604 39.615 9.092 18.73 10.345 39.88 3.528 59.553-14.069 40.61-58.556 62.206-99.169 48.134-40.611-14.07-62.203-58.558-48.133-99.168 2.162-6.24 5.088-12.165 8.696-17.609 2.289-3.452 1.346-8.106-2.107-10.395-3.454-2.29-8.105-1.346-10.395 2.107-12.743 18.567-18.564 45.963-13.891 68.469-9.682 26.868-14.595 55.098-14.595 83.913 0 48.092 13.618 94.195 39.494 134.173-11.74 1.502-22.976 6.79-31.836 15.594-20.009 19.878-21.542 52.435-3.49 74.118 18.481 23.248 56.532 26.832 79.095 5.719 9.065-8.162 14.935-18.995 17.153-30.556 42.391 31.325 94.102 48.453 147.085 48.453 66.109 0 128.263-25.744 175.009-72.491 46.747-46.746 72.491-108.898 72.491-175.009 0-44.26-11.782-87.545-34.107-125.452 3.832-5.734 6.068-12.412 6.438-19.479.243-4.641-.336-9.197-1.668-13.508l34.391-30.966c2.209-1.986 3.477-4.832 3.477-7.806zm-137.213 41.533c-.277-6.648 2.399-13.016 7.344-17.467 4.174-3.759 9.51-5.701 14.899-5.701 3.67 0 7.366.901 10.735 2.745 1.944 1.084 6.198 1.31 9.18-1.513 3.62-3.259 8.281-4.925 13.156-4.658 4.864.255 9.338 2.389 12.598 6.009l12.041 13.373c4.254 4.726 6.414 10.824 6.081 17.175-.333 6.35-3.118 12.189-7.845 16.444l-.56.505c-7.032 6.332-10.817 15.56-10.386 25.315.295 6.671-2.381 13.059-7.341 17.524-6.864 6.181-16.436 7.514-23.255 7.543-4.456.019-8.602 1.8-11.673 5.016-3.073 3.218-4.729 7.637-4.541 12.124.277 6.648-2.399 13.016-7.343 17.468-6.865 6.182-16.436 7.513-23.256 7.542-4.455.019-8.601 1.8-11.672 5.015-3.073 3.219-4.729 7.638-4.541 12.125.276 6.65-2.4 13.017-7.344 17.468-6.864 6.181-16.436 7.514-23.255 7.543-4.456.019-8.602 1.8-11.673 5.016-3.073 3.218-4.729 7.637-4.541 12.124.277 6.648-2.399 13.016-7.344 17.468-6.865 6.182-16.436 7.514-23.256 7.542-4.456.02-8.602 1.802-11.673 5.018-3.072 3.218-4.728 7.636-4.54 12.123.277 6.648-2.399 13.015-7.344 17.467-6.864 6.181-16.436 7.514-23.255 7.543-4.456.019-8.602 1.8-11.673 5.016-3.073 3.218-4.729 7.637-4.541 12.125.277 6.648-2.399 13.015-7.344 17.467-7.018 6.317-17.318 7.506-25.635 2.955-2.796-1.53-6.252-1.126-8.618 1.007-3.62 3.26-8.309 4.904-13.156 4.659-4.864-.255-9.337-2.389-12.597-6.009l-12.042-13.373c-4.254-4.726-6.414-10.824-6.081-17.175.333-6.35 3.118-12.189 7.844-16.444 7.031-6.331 10.816-15.559 10.385-25.315-.295-6.671 2.381-13.059 7.341-17.524 6.865-6.182 16.436-7.514 23.256-7.542 4.456-.02 8.602-1.802 11.673-5.018 3.072-3.218 4.728-7.636 4.54-12.123-.277-6.648 2.399-13.015 7.344-17.467 6.864-6.181 16.436-7.514 23.255-7.543 4.456-.019 8.602-1.8 11.673-5.016 3.073-3.218 4.729-7.637 4.541-12.125-.277-6.648 2.399-13.015 7.344-17.467 6.864-6.181 16.436-7.514 23.255-7.543 4.455-.019 8.601-1.8 11.672-5.016 3.073-3.218 4.729-7.637 4.541-12.123-.276-6.649 2.4-13.016 7.344-17.468 6.866-6.182 16.437-7.515 23.257-7.543 4.456-.02 8.602-1.802 11.672-5.017 3.072-3.218 4.728-7.637 4.54-12.123-.276-6.65 2.4-13.017 7.344-17.468 6.864-6.181 16.436-7.514 23.255-7.543 4.456-.019 8.602-1.8 11.673-5.016 3.074-3.218 4.73-7.637 4.542-12.124zm-203.111-24.523c-1.357 1.452-3.23 2.262-5.135 2.26-6.27-4.231-13.096-7.714-20.379-10.359-.417-2.179.099-4.751 2.281-6.64l10.804-9.356c2.763-2.393 5.734-1.724 6.882-1.324 1.149.398 3.897 1.711 4.587 5.297l2.7 14.035c.586 3.049-.839 5.122-1.74 6.087zm3.275-37.804c-1.226-.709-2.532-1.312-3.913-1.79-7.516-2.602-15.595-1.05-21.611 4.158l-10.804 9.356c-4.248 3.678-6.78 8.645-7.437 13.88-5.704-1.058-11.452-1.58-17.18-1.562 16.006-37.075 58.278-56.15 97.039-42.72 40.61 14.07 62.204 58.558 48.134 99.169-8.493 24.512-28.203 42.788-52.721 49.584.82-5.701 1.089-11.435.838-17.145 5.142-.019 10.256-1.821 14.333-5.35l10.804-9.356c6.015-5.209 8.708-12.982 7.205-20.796-.277-1.437-.687-2.819-1.215-4.136 1.227-.707 2.405-1.529 3.509-2.485 6.014-5.208 8.708-12.981 7.205-20.794l-2.701-14.035c-1.503-7.812-6.889-14.032-14.406-16.637-1.38-.478-2.779-.814-4.181-1.015.001-1.416-.13-2.848-.406-4.282-1.503-7.813-6.889-14.032-14.407-16.638l-13.505-4.679c-7.519-2.604-15.597-1.05-21.611 4.158-1.105.958-2.095 2.002-2.969 3.115zm35.474 23.494c-.002.002-.005.004-.007.006l-10.804 9.356c-2.761 2.391-5.733 1.723-6.881 1.324-1.15-.398-3.898-1.712-4.588-5.298l-2.7-14.035c-.69-3.586 1.374-5.825 2.293-6.621.695-.602 2.3-1.733 4.532-1.733.721 0 1.508.118 2.35.41l13.505 4.679c3.45 1.195 4.357 4.103 4.588 5.298.229 1.193.465 4.225-2.288 6.614zm9.812 11.345c1.557-1.348 3.179-1.723 4.505-1.723 1.026 0 1.875.225 2.377.398 1.148.398 3.896 1.712 4.586 5.298l2.701 14.035c.69 3.586-1.374 5.825-2.294 6.621-.918.796-3.429 2.52-6.877 1.326-.001 0-.002-.001-.003-.001l-13.506-4.68c-3.45-1.195-4.357-4.103-4.587-5.297s-.466-4.23 2.295-6.621zm-19.742 36.333c1.089-.771 3.358-1.911 6.319-.884l13.506 4.68c3.45 1.195 4.357 4.103 4.587 5.297s.467 4.231-2.294 6.621l-10.804 9.356c-2.033 1.761-4.437 2.013-6.458 1.448-1.558-7.261-3.996-14.387-7.322-21.239-.13-.269-.277-.527-.409-.794.32-1.773 1.339-3.398 2.875-4.485zm-8.666-12.244c-1.058.749-2.037 1.584-2.934 2.489-2.831-3.808-5.929-7.382-9.285-10.687 1.204-1.095 1.575-.917 4.287-4.173 1.512.694 2.83 1.856 8.104 2.797.153 1.662-.186 3.38 1.623 8.436-.609.351-1.211.725-1.795 1.138zm-136.276 130.048c8.242 6.757 17.788 12.198 28.431 15.885 10.041 3.479 20.272 5.129 30.347 5.128 38.512-.003 74.606-24.14 87.906-62.525.129-.371.233-.746.357-1.118 32.86-6.127 59.734-29.125 70.758-60.942 8.184-23.624 6.245-48.345-3.506-69.421 33.149 2.249 65.043 12.543 93.206 30.127-2.348 5.215-3.497 10.961-3.251 16.843.024.599-.241.971-.402 1.139-.356.374-.758.375-.89.376-9.43.041-22.85 2.052-33.228 11.396-8.275 7.451-12.757 18.108-12.293 29.239.024.599-.241.971-.402 1.14-.356.374-.758.375-.888.376-9.43.04-22.849 2.05-33.229 11.396-8.275 7.452-12.757 18.108-12.293 29.238.024.599-.241.971-.402 1.139-.356.374-.757.375-.889.376-9.43.041-22.85 2.052-33.228 11.396-8.277 7.452-12.758 18.11-12.293 29.239.024.6-.241.972-.402 1.14-.356.374-.758.375-.89.376-9.43.041-22.85 2.052-33.228 11.396-8.276 7.452-12.758 18.109-12.293 29.239.024.599-.241.971-.402 1.139-.357.375-.759.376-.889.377-9.43.04-22.849 2.049-33.229 11.395-8.304 7.477-12.783 18.168-12.289 29.335.232 5.263-1.749 10.185-5.437 13.505-7.703 6.936-12.244 16.456-12.786 26.807-.243 4.64.336 9.197 1.668 13.508l-14.401 12.963c-26.687-35.081-41.316-78.319-41.316-122.578 0-9.728.71-19.446 2.083-29.029zm-32.083 29.029c0-20.308 2.596-40.302 7.729-59.675 3.106 6.261 6.911 12.175 11.355 17.614-2.699 13.779-4.084 27.912-4.084 42.06 0 47.95 15.99 94.789 45.135 132.646l-6.433 5.792c-3.421-1.515-6.939-2.652-10.501-3.434-28.263-39.546-43.201-86.18-43.201-135.003zm68.758 174.29c5.956 15.383 1.723 33.133-10.532 44.168-15.405 14.579-43.543 13.485-57.53-4.17-13.123-15.764-12.01-39.431 2.535-53.88 12.351-12.272 31.04-15.184 46.504-7.249 3.824 1.962 8.554 1.336 11.771-1.562l31.623-28.474c.025.111 9.632 10.733 10.011 11.166l-31.6 28.453c-3.218 2.897-4.335 7.538-2.782 11.548zm396.242-174.29c0 128.201-104.299 232.5-232.5 232.5-53.392 0-105.408-18.51-146.712-52.141-.432-2.853-1.084-5.689-1.979-8.48l7.319-6.59c25.094 21.467 54.972 37.08 86.801 45.307.63.162 1.261.24 1.882.24 3.338 0 6.383-2.244 7.257-5.625 1.036-4.011-1.375-8.102-5.385-9.139-28.995-7.493-56.242-21.591-79.292-40.925l12.098-10.894c9.55 5.497 23.842 5.859 34.411-1.2 12.957 4.961 27.812 2.357 38.297-7.083 8.277-7.453 12.758-18.109 12.293-29.239-.024-.6.241-.972.402-1.14.356-.374.758-.375.89-.376 9.43-.041 22.85-2.052 33.228-11.396 8.276-7.452 12.758-18.109 12.293-29.239-.024-.599.241-.971.402-1.139.357-.375.759-.376.889-.377 9.43-.04 22.849-2.049 33.229-11.396 8.277-7.453 12.758-18.11 12.293-29.239-.024-.599.241-.971.402-1.139.356-.374.758-.376.89-.376 9.43-.041 22.85-2.052 33.228-11.396 8.275-7.451 12.757-18.108 12.293-29.239-.024-.6.241-.972.402-1.14.356-.374.757-.375.889-.376 9.43-.04 22.849-2.049 33.229-11.396 8.275-7.453 12.756-18.111 12.291-29.239-.024-.599.241-.971.402-1.139.356-.374.758-.376.89-.376 9.316-.041 22.521-2.017 32.845-11.073 9.375 23.65 14.125 48.643 14.125 74.457 0 25.992-4.927 50.854-13.889 73.707-4.512-22.582-20.51-41.809-42.618-49.956-3.887-1.433-8.198.557-9.631 4.443s.557 8.199 4.443 9.631c20.396 7.517 34.099 27.178 34.099 48.925-.006 10.746-3.79 22.551-10.472 31.299-9.52 12.637-24.646 20.824-41.651 20.824-28.741 0-52.123-23.382-52.123-52.123 0-24.186 16.396-45.024 39.87-50.677 4.027-.97 6.506-5.021 5.536-9.048-.971-4.027-5.021-6.505-9.048-5.536-30.239 7.282-51.358 34.118-51.358 65.261 0 37.012 30.111 67.123 67.123 67.123 3.232 0 6.407-.243 9.518-.687-35.512 30.712-81.774 49.314-132.299 49.314-5.89 0-11.83-.256-17.656-.759-4.138-.373-7.763 2.699-8.118 6.825-.357 4.127 2.699 7.762 6.825 8.118 6.255.541 12.63.815 18.949.815 58.097 0 112.716-22.624 153.796-63.704 41.08-41.081 63.704-95.699 63.704-153.796 0-30.996-6.393-60.893-18.968-88.916 1.861-4.77 2.749-9.929 2.516-15.198-.146-3.288.573-6.443 2.033-9.159 19.267 34.497 29.417 73.463 29.417 113.277zm-21.746-171.951c-.025-.111-9.632-10.733-10.011-11.166l40.283-36.271.004 20.176z"/><path d="m38.159 430.371c-10.242 9.224-11.072 25.061-1.85 35.304 8.264 9.427 24.803 11.472 35.304 1.85v.001c9.441-8.175 11.418-25.002 1.851-35.304-9.226-10.246-25.062-11.074-35.305-1.851zm26.712 19.1c-.141 2.666-1.311 5.119-3.295 6.905-3.115 2.672-9.224 4.078-14.119-.739-3.688-4.097-3.356-10.431.739-14.119 1.907-1.718 4.3-2.563 6.685-2.563 2.736 0 5.464 1.114 7.436 3.304 1.786 1.984 2.694 4.545 2.554 7.212z"/><path d="m244.204 261.661c-1.853-3.703-6.359-5.205-10.062-3.354-3.705 1.853-5.206 6.358-3.354 10.062l13.455 26.904c1.314 2.628 3.963 4.147 6.714 4.147 1.127 0 2.272-.256 3.349-.794 3.705-1.853 5.206-6.358 3.354-10.062z"/><path d="m155.659 348.789c-1.853-3.704-6.354-5.204-10.062-3.354-3.705 1.853-5.206 6.357-3.354 10.062l8.351 16.698c1.314 2.628 3.963 4.147 6.714 4.147 1.127 0 2.271-.256 3.349-.794 3.705-1.853 5.206-6.357 3.354-10.062z"/><path d="m198.878 302.473c-1.853-3.704-6.358-5.205-10.062-3.354-3.705 1.853-5.206 6.358-3.354 10.062l13.455 26.904c1.314 2.628 3.963 4.147 6.714 4.147 1.127 0 2.272-.256 3.349-.794 3.705-1.853 5.206-6.358 3.354-10.062z"/><path d="m289.975 220.449c-1.853-3.704-6.358-5.203-10.062-3.354-3.705 1.853-5.206 6.358-3.354 10.062l13.455 26.903c1.314 2.628 3.963 4.147 6.714 4.147 1.127 0 2.272-.256 3.349-.794 3.705-1.853 5.206-6.358 3.354-10.062z"/><path d="m335.747 179.236c-1.853-3.704-6.359-5.204-10.062-3.354-3.705 1.853-5.206 6.358-3.354 10.062l13.455 26.904c1.314 2.628 3.963 4.147 6.714 4.147 1.127 0 2.272-.256 3.349-.794 3.705-1.853 5.206-6.358 3.354-10.062z"/><path d="m381.556 171.636c1.314 2.628 3.963 4.147 6.714 4.147 1.127 0 2.271-.256 3.349-.794 3.705-1.853 5.206-6.357 3.354-10.062l-13.454-26.904c-1.853-3.704-6.354-5.204-10.062-3.354-3.705 1.853-5.206 6.357-3.354 10.062z"/><path d="m424.545 124.857c1.314 2.628 3.963 4.147 6.714 4.147 1.127 0 2.272-.256 3.349-.794 3.705-1.853 5.206-6.358 3.354-10.063l-7.888-15.771c-1.853-3.704-6.358-5.205-10.062-3.354-3.705 1.853-5.206 6.358-3.354 10.062z"/><path d="m50.756 164.204 2.7 14.035c1.504 7.813 6.89 14.032 14.407 16.637 1.38.478 2.779.8 4.18 1.001-.002 1.42.13 2.857.406 4.296 1.503 7.813 6.889 14.032 14.406 16.638 5.953 1.765 14.059 5.797 20.794 5.918 5.178 0 10.229-1.853 14.322-5.397 1.104-.956 2.094-2 2.969-3.113 1.226.709 2.533 1.312 3.913 1.79 2.4.831 4.857 1.239 7.287 1.239 5.179 0 10.229-1.853 14.324-5.397l10.804-9.356c6.015-5.208 8.708-12.981 7.205-20.794-.277-1.438-.687-2.82-1.215-4.137 1.227-.707 2.405-1.528 3.508-2.484 6.015-5.209 8.709-12.982 7.206-20.796l-2.7-14.035c-1.504-7.812-6.89-14.032-14.407-16.637-1.38-.478-2.779-.813-4.181-1.013.002-1.417-.13-2.85-.406-4.284-1.504-7.812-6.89-14.031-14.406-16.636l-13.506-4.68c-7.516-2.605-15.595-1.049-21.61 4.158-1.104.956-2.094 2-2.969 3.114-1.226-.709-2.532-1.312-3.913-1.79-7.52-2.604-15.597-1.051-21.611 4.157l-10.804 9.356c-6.015 5.208-8.708 12.982-7.205 20.796.276 1.434.685 2.813 1.212 4.127-1.228.707-2.403 1.537-3.507 2.494-6.013 5.207-8.706 12.98-7.203 20.793zm100.694 26.949-10.804 9.356c-2.765 2.392-5.735 1.722-6.882 1.324-1.149-.398-3.897-1.711-4.587-5.297l-2.7-14.035c-.69-3.586 1.374-5.825 2.294-6.622.92-.796 3.433-2.519 6.881-1.323l13.505 4.679c3.45 1.195 4.357 4.103 4.588 5.298.229 1.194.466 4.23-2.295 6.62zm-2.376-52.045c1.557-1.348 3.18-1.724 4.505-1.724 1.027 0 1.876.226 2.377.399 1.149.398 3.897 1.711 4.587 5.297l2.7 14.035c.69 3.586-1.375 5.825-2.294 6.622-.919.795-3.43 2.52-6.882 1.323l-13.505-4.679c-3.45-1.195-4.356-4.103-4.587-5.297-.229-1.195-.466-4.231 2.295-6.621zm-32.498-26.614c.695-.602 2.3-1.733 4.532-1.733.721 0 1.506.118 2.348.41l13.506 4.68c3.45 1.195 4.357 4.103 4.587 5.297.23 1.193.466 4.227-2.287 6.615-.002.002-.005.004-.007.006l-10.804 9.356c-2.762 2.391-5.732 1.723-6.881 1.324-1.15-.398-3.898-1.712-4.588-5.298l-2.7-14.035c-.69-3.586 1.374-5.825 2.294-6.622zm-6.799 41.452c1.104-.956 2.094-2 2.969-3.114 1.512.693 2.824 1.851 8.093 2.791.152 1.659-.185 3.377 1.619 8.425-1.359.961-3.01 1.526-6.475 5.607-1.512-.696-2.826-1.843-8.094-2.804-.153-1.661.184-3.371-1.621-8.42 1.227-.707 2.405-1.529 3.509-2.485zm-2.618 26.092c1.15.398 3.898 1.712 4.588 5.298l2.7 14.035c.69 3.586-1.374 5.824-2.293 6.621-.92.796-3.433 2.521-6.882 1.323l-13.506-4.679c-3.45-1.195-4.356-4.103-4.587-5.297-.229-1.195-.466-4.231 2.295-6.621l10.805-9.356h-.001c2.762-2.391 5.733-1.723 6.881-1.324zm-29.88-52.705 10.804-9.356c1.557-1.348 3.179-1.723 4.505-1.723 1.026 0 1.875.225 2.376.398 1.15.398 3.898 1.712 4.588 5.298l2.7 14.035c.69 3.586-1.374 5.825-2.294 6.622-.92.796-3.432 2.52-6.881 1.323l-13.506-4.68c-3.449-1.195-4.356-4.103-4.587-5.297-.229-1.194-.466-4.23 2.295-6.62zm-9.5 27.416c.921-.795 3.434-2.52 6.882-1.324l13.506 4.68c3.45 1.195 4.356 4.103 4.587 5.297.229 1.195.466 4.231-2.294 6.621 0 0 0 0-.001 0l-10.804 9.356c-2.762 2.391-5.732 1.723-6.881 1.324-1.15-.398-3.898-1.712-4.588-5.298l-2.7-14.035c-.69-3.586 1.374-5.824 2.293-6.621z"/><path d="m301.922 440.712c11.855 0 21.5-9.645 21.5-21.5s-9.645-21.5-21.5-21.5-21.5 9.645-21.5 21.5 9.644 21.5 21.5 21.5zm0-28c3.584 0 6.5 2.916 6.5 6.5s-2.916 6.5-6.5 6.5-6.5-2.916-6.5-6.5 2.916-6.5 6.5-6.5z"/><path d="m258.952 425.065c0-11.579-9.421-21-21-21s-21 9.421-21 21 9.421 21 21 21 21-9.421 21-21zm-27 0c0-3.309 2.691-6 6-6s6 2.691 6 6-2.691 6-6 6-6-2.691-6-6z"/><path d="m267.441 397.712c4.143 0 7.5-3.357 7.5-7.5s-3.357-7.5-7.5-7.5h-.01c-4.142 0-7.495 3.357-7.495 7.5s3.364 7.5 7.505 7.5z"/><path d="m193.441 420.712h-.01c-4.142 0-7.495 3.357-7.495 7.5s3.363 7.5 7.505 7.5c4.143 0 7.5-3.357 7.5-7.5s-3.357-7.5-7.5-7.5z"/><path d="m83.941 293.212c0-4.143-3.357-7.5-7.5-7.5h-.01c-4.142 0-7.495 3.357-7.495 7.5s3.363 7.5 7.505 7.5c4.143 0 7.5-3.357 7.5-7.5z"/><path d="m106.441 308.712c4.143 0 7.5-3.357 7.5-7.5s-3.357-7.5-7.5-7.5h-.01c-4.142 0-7.495 3.357-7.495 7.5s3.364 7.5 7.505 7.5z"/><path d="m85.441 313.712h-.01c-4.142 0-7.495 3.357-7.495 7.5s3.363 7.5 7.505 7.5c4.143 0 7.5-3.357 7.5-7.5s-3.357-7.5-7.5-7.5z"/><path d="m428.326 244.306c4.143 0 7.5-3.357 7.5-7.5s-3.357-7.5-7.5-7.5h-.01c-4.142 0-7.495 3.357-7.495 7.5s3.363 7.5 7.505 7.5z"/><path d="m432.137 260.119c-4.142 0-7.495 3.357-7.495 7.5s3.363 7.5 7.505 7.5c4.143 0 7.5-3.357 7.5-7.5s-3.357-7.5-7.5-7.5z"/><path d="m361.169 316.601c-.977.565-2.22 1.124-3.534 1.716-4.12 1.853-9.248 4.158-12.274 9.387-2.958 5.113-2.421 10.683-1.99 15.156.099 1.87.531 3.257 0 8.205-.431 4.474-.968 10.043 1.991 15.157 3.024 5.227 8.151 7.532 12.271 9.385 1.676.833 3.136 1.196 6.619 3.835 3.469 2.541 8.22 6.021 14.451 6.021s10.982-3.479 14.451-6.021c1.614-1.104 2.551-2.078 6.617-3.834 4.12-1.853 9.248-4.158 12.274-9.386 2.958-5.114 2.422-10.683 1.991-15.157-.1-1.87-.533-3.258 0-8.205.431-4.475.967-10.043-1.991-15.156-3.024-5.228-8.151-7.533-12.271-9.386-1.676-.833-3.137-1.196-6.62-3.835-3.469-2.541-8.22-6.021-14.451-6.021s-10.982 3.479-14.451 6.021c-1.12.82-2.177 1.595-3.083 2.118zm17.534 6.861c1.326 0 3.591 1.658 5.588 3.122 1.635 1.002 2.513 2.347 9.331 5.414 2.155.969 4.837 2.175 5.44 3.218.55.95.257 3.987.043 6.205-.035 1.948-.726 3.464 0 11.082.214 2.218.507 5.256-.043 6.206-.604 1.042-3.286 2.249-5.442 3.218-1.65.923-3.312 1.021-9.329 5.413-1.997 1.464-4.262 3.122-5.588 3.122s-3.591-1.658-5.588-3.122c-1.635-1.002-2.513-2.347-9.331-5.414-2.155-.969-4.837-2.175-5.439-3.217-.55-.95-.258-3.988-.044-6.207.036-1.947.726-3.463 0-11.08-.214-2.219-.506-5.257.043-6.207.604-1.042 3.286-2.249 5.442-3.218 1.65-.923 3.312-1.021 9.329-5.413 1.997-1.463 4.262-3.122 5.588-3.122z"/><path d="m405.72 263.14c4.143 0 7.5-3.357 7.5-7.5s-3.357-7.5-7.5-7.5h-.01c-4.142 0-7.495 3.357-7.495 7.5s3.363 7.5 7.505 7.5z"/></g></g></svg>