<svg height="512" viewBox="0 0 64 64" width="512" xmlns="http://www.w3.org/2000/svg"><g id="_16-tom_yum_goong" data-name="16-tom yum goong"><circle cx="32" cy="32" fill="#ff802c" r="26"/><path d="m32 1a31 31 0 1 1 -31 31 31 31 0 0 1 31-31zm26 31a26 26 0 1 0 -26 26 26 26 0 0 0 26-26z" fill="#f7faff"/><path d="m10.14 38.04a1.668 1.668 0 0 1 -.013-1.286 1.731 1.731 0 0 0 -.987 2.286c2.68 6.54 6.75 9.76 9.75 8.79a3.127 3.127 0 0 0 1.982-1.43 4.766 4.766 0 0 1 -.982.433c-3 .967-7.07-2.253-9.75-8.793z" fill="#e65800"/><path d="m35.089 43.272a1.543 1.543 0 0 1 1.411-1.261l.01-.011h-1.51l-1.976-.941c-.009.093-.024.185-.024.281a2.249 2.249 0 0 0 -.033-.308l-.3-.142a2.989 2.989 0 0 1 -1.645-2.178 4.317 4.317 0 0 0 -.865-.282l-2.157-.43v2.39a2.906 2.906 0 0 0 1.67 2.5l2.33 1.11h2z" fill="#e65800"/><path d="m47.09 41.24a22.176 22.176 0 0 0 -.13-4.24 34.984 34.984 0 0 0 -.96-5l.01-.1a4.976 4.976 0 0 1 -4.01-4.9 14.188 14.188 0 0 0 -3.12-8.9 4.006 4.006 0 0 1 -.666-1.221l-3.214-.879v1.6a3.989 3.989 0 0 0 .88 2.5 14.188 14.188 0 0 1 3.12 8.9 4.976 4.976 0 0 0 4.01 4.9l-.01.1a34.984 34.984 0 0 1 .96 5 22.176 22.176 0 0 1 .13 4.24 8.632 8.632 0 0 1 -1.062 3.754 4.153 4.153 0 0 0 1.932-.784c1.37-1.03 1.96-2.91 2.13-4.97z" fill="#e65800"/><path d="m36.9 49.07a8.686 8.686 0 0 1 -1.143-2.2 4.943 4.943 0 0 1 -.647-1.676 1.515 1.515 0 0 0 -1.5-1.194 1.537 1.537 0 0 0 -1.54 1.65 10.632 10.632 0 0 0 1.83 5.42 7.233 7.233 0 0 0 6.1 2.93 14.12 14.12 0 0 0 5.69-1.07 9.935 9.935 0 0 0 2.956-1.984 14.138 14.138 0 0 1 -5.646 1.054 7.233 7.233 0 0 1 -6.1-2.93z" fill="#e65800"/><path d="m35 8 3.394 6.108 2.404.657z" fill="#e66718"/><path d="m26 24a7.953 7.953 0 0 1 -2.013-.266c0 .089.013.176.013.266a8 8 0 0 1 -15.862 1.449 8 8 0 1 0 15.545 2.639c0-.089-.011-.176-.014-.265a7.973 7.973 0 0 0 9.876-9.184 8 8 0 0 1 -7.545 5.361z" fill="#e65800"/><path d="m36 39.34v2.66h-1l-2.33-1.11a2.906 2.906 0 0 1 -1.67-2.5v-2.39l2.16.43a3.224 3.224 0 0 1 2.84 2.91z" fill="#f4700c"/><path d="m38.66 40.89-1.66 1.11h-1v-2.66a3.014 3.014 0 0 1 2.27-2.91l1.73-.43v2.39a2.993 2.993 0 0 1 -1.34 2.5z" fill="#f4700c"/><path d="m36 41.34v-2a3.224 3.224 0 0 0 -2.84-2.91l-2.16-.43v2l2.16.43a3.224 3.224 0 0 1 2.84 2.91z" fill="#ffb844"/><path d="m38.27 36.43a3.014 3.014 0 0 0 -2.27 2.91v2a3.014 3.014 0 0 1 2.27-2.91l1.73-.43v-2z" fill="#ffb844"/><path d="m48.49 18.24a11.744 11.744 0 0 1 2.84 3.89l2.67 5.87-5 4h-2a4.619 4.619 0 0 1 -.99-.1 4.976 4.976 0 0 1 -4.01-4.9 14.188 14.188 0 0 0 -3.12-8.9 3.989 3.989 0 0 1 -.88-2.5v-1.6l5.56 1.52a11.945 11.945 0 0 1 4.93 2.72z" fill="#ff942c"/><path d="m51.562 27.751a5.706 5.706 0 0 1 -3.562 1.249 4.619 4.619 0 0 1 -.99-.1 4.976 4.976 0 0 1 -4.01-4.9 14.185 14.185 0 0 0 -3.11-8.887 4.162 4.162 0 0 1 -.45-.719l-1.44-.394v1.6a3.989 3.989 0 0 0 .88 2.5 14.188 14.188 0 0 1 3.12 8.9 4.976 4.976 0 0 0 4.01 4.9 4.619 4.619 0 0 0 .99.1h2l5-4-.734-1.613z" fill="#ff7326"/><path d="m39.89 15.113c.219.274.423.558.62.846l2.05.561a11.945 11.945 0 0 1 4.93 2.72 11.744 11.744 0 0 1 2.84 3.89l1.87 4.11 1.066-.853.734 1.613-2.67-5.87a11.744 11.744 0 0 0 -2.84-3.89 11.945 11.945 0 0 0 -4.93-2.72l-5.56-1.52 1.44.394a4.162 4.162 0 0 0 .45.719z" fill="#ffce54"/><path d="m44.96 46.21c-.12.8-.27 3.77 3.73 4.72a14.12 14.12 0 0 1 -5.69 1.07 7.233 7.233 0 0 1 -6.1-2.93l.1-.07a2.853 2.853 0 0 1 2.78-2.98 5.126 5.126 0 0 0 3.22.98 4.167 4.167 0 0 0 1.96-.79z" fill="#eef2fa"/><path d="m55 37v3a14 14 0 0 1 -1.26 5.99 6.664 6.664 0 0 1 -6.65-4.75 22.176 22.176 0 0 0 -.13-4.24h.04c1 2 2 2 4 2 2.16 0 3.91-1.28 3.99-2.88.01.29.01.58.01.88z" fill="#eef2fa"/><path d="m38.11 43.19a4.59 4.59 0 0 0 1.67 2.83 2.853 2.853 0 0 0 -2.78 2.98l-.1.07a10.632 10.632 0 0 1 -1.83-5.42 1.537 1.537 0 0 1 1.54-1.65 1.515 1.515 0 0 1 1.5 1.19z" fill="#ffab7d"/><path d="m53.74 45.99a9.86 9.86 0 0 1 -5.05 4.94c-4-.95-3.85-3.92-3.73-4.72 1.37-1.03 1.96-2.91 2.13-4.97a6.664 6.664 0 0 0 6.65 4.75z" fill="#ffab7d"/><path d="m46 32 .01-.1a4.619 4.619 0 0 0 .99.1h2l5-4a39.721 39.721 0 0 1 .99 8.12c-.08 1.6-1.83 2.88-3.99 2.88-2 0-3 0-4-2h-.04a34.984 34.984 0 0 0 -.96-5z" fill="#ffab7d"/><circle cx="26" cy="16" fill="#daffa8" r="1"/><circle cx="16" cy="24" fill="#daffa8" r="1"/><path d="m34 16a8 8 0 0 1 -8 8 8.383 8.383 0 0 1 -2.01-.25 7.769 7.769 0 0 0 -1.43-4.31 7.926 7.926 0 0 0 -4.61-3.2l.05-.24a8 8 0 0 1 16 0zm-8 1a1 1 0 1 0 -1-1 1 1 0 0 0 1 1z" fill="#bdf474"/><path d="m16 25a1 1 0 1 0 -1-1 1 1 0 0 0 1 1zm7.99-1.25a2.09 2.09 0 0 1 .01.25 8 8 0 1 1 -8-8 7.832 7.832 0 0 1 1.95.24 7.926 7.926 0 0 1 4.61 3.2 7.769 7.769 0 0 1 1.43 4.31z" fill="#bdf474"/><path d="m38 6 10.49 12.24a11.945 11.945 0 0 0 -4.93-2.72l-.32-.09z" fill="#ffce54"/><path d="m26 17a1 1 0 1 0 -1-1 1 1 0 0 0 1 1zm7.99-1.25a2.09 2.09 0 0 1 .01.25 8 8 0 1 1 -8-8 7.832 7.832 0 0 1 1.95.24 7.926 7.926 0 0 1 4.61 3.2 7.769 7.769 0 0 1 1.43 4.31z" fill="#fffeed"/><path d="m33.99 15.75a7.769 7.769 0 0 0 -1.43-4.31 7.926 7.926 0 0 0 -4.61-3.2 7.832 7.832 0 0 0 -1.95-.24 8 8 0 1 0 8 8 2.09 2.09 0 0 0 -.01-.25zm-7.99 7.25a7 7 0 1 1 7-7 7 7 0 0 1 -7 7z" fill="#aaf66f"/><g fill="#e0ff79"><path d="m25.294 16.706-3.476 3.476a.993.993 0 0 0 .094 1.5 6.946 6.946 0 0 0 2.952 1.225 1 1 0 0 0 1.136-1v-4.907a.993.993 0 0 1 -.706-.294z"/><path d="m26 17v4.913a1 1 0 0 0 1.136 1 6.946 6.946 0 0 0 2.952-1.225.993.993 0 0 0 .094-1.5l-3.476-3.476a.993.993 0 0 1 -.706.288z"/><path d="m32.908 17.136a1 1 0 0 0 -1-1.136h-4.908a1 1 0 0 1 -.294.706l3.476 3.476a.993.993 0 0 0 1.5-.094 6.946 6.946 0 0 0 1.226-2.952z"/><path d="m25 16h-4.913a1 1 0 0 0 -1 1.136 6.946 6.946 0 0 0 1.225 2.952.993.993 0 0 0 1.5.094l3.476-3.476a1 1 0 0 1 -.288-.706z"/><path d="m26.706 15.294 3.476-3.476a.993.993 0 0 0 -.094-1.5 6.946 6.946 0 0 0 -2.952-1.225 1 1 0 0 0 -1.136.994v4.913a1 1 0 0 1 .706.294z"/><path d="m25.294 15.294-3.476-3.476a.993.993 0 0 0 -1.5.094 6.946 6.946 0 0 0 -1.225 2.952 1 1 0 0 0 1 1.136h4.907a.993.993 0 0 1 .294-.706z"/><path d="m27 16h4.913a1 1 0 0 0 1-1.136 6.946 6.946 0 0 0 -1.225-2.952.993.993 0 0 0 -1.5-.094l-3.476 3.476a.993.993 0 0 1 .288.706z"/><path d="m26 15v-4.913a1 1 0 0 0 -1.136-.995 6.946 6.946 0 0 0 -2.952 1.225.993.993 0 0 0 -.094 1.5l3.476 3.476a1 1 0 0 1 .706-.293z"/></g><path d="m25 16.375a.35.35 0 0 0 .073-.015.924.924 0 0 1 0-.72.35.35 0 0 0 -.073-.015h-5.692a1.008 1.008 0 0 0 .779.375 1.008 1.008 0 0 0 -.779.375z" fill="#fffdd9"/><path d="m25.1 16.413c-.021.014-.048.009-.067.027l-4.033 4.028a1.01 1.01 0 0 0 .817-.286 1.01 1.01 0 0 0 -.286.817l4.028-4.027c.018-.019.013-.046.027-.068a.937.937 0 0 1 -.492-.491z" fill="#fffdd9"/><path d="m26 17a.98.98 0 0 1 -.36-.073.35.35 0 0 0 -.015.073v5.692a1.008 1.008 0 0 0 .375-.779 1.008 1.008 0 0 0 .375.779v-5.692a.35.35 0 0 0 -.015-.073.98.98 0 0 1 -.36.073z" fill="#fffdd9"/><ellipse cx="23.121" cy="20.75" fill="#fffcbd" rx=".574" ry=".413" transform="matrix(.707 -.707 .707 .707 -7.901 22.416)"/><ellipse cx="27.121" cy="20.75" fill="#fffcbd" rx=".413" ry=".574"/><ellipse cx="24.121" cy="19.75" fill="#fffcbd" rx=".413" ry=".574"/><ellipse cx="22.121" cy="17.75" fill="#fffcbd" rx=".574" ry=".413"/><ellipse cx="24.121" cy="21.75" fill="#fffcbd" rx=".413" ry=".574"/><ellipse cx="21.121" cy="14.75" fill="#fffcbd" rx=".574" ry=".413"/><ellipse cx="20.121" cy="17.75" fill="#fffcbd" rx=".574" ry=".413"/><path d="m43 49a5.063 5.063 0 0 0 2.269-.513 4.165 4.165 0 0 1 -.309-2.277 4.167 4.167 0 0 1 -1.96.79 5.126 5.126 0 0 1 -3.22-.98 3.443 3.443 0 0 0 -1.832.735 6.165 6.165 0 0 0 5.052 2.245z" fill="#ffab7d"/><path d="m49.2 38.906a2.905 2.905 0 0 1 -2.2-1.906h-.04a22.176 22.176 0 0 1 .13 4.24 7.794 7.794 0 0 0 1.455 2.537 21.673 21.673 0 0 0 .655-4.871z" fill="#ffab7d"/><path d="m39.78 46.02a4.59 4.59 0 0 1 -1.67-2.83 1.518 1.518 0 0 0 -2.019-1.09 9.48 9.48 0 0 0 1.857 4.657 3.443 3.443 0 0 1 1.832-.737z" fill="#ff8847"/><path d="m45.269 48.487c1.715-.841 2.714-2.642 3.276-4.71a7.794 7.794 0 0 1 -1.455-2.537c-.17 2.06-.76 3.94-2.13 4.97a4.165 4.165 0 0 0 .309 2.277z" fill="#ff8847"/><path d="m49.2 38.906c.011-.367.019-.727.018-1.071a5.974 5.974 0 0 1 3.635-5.488l1.786-.765a34.212 34.212 0 0 0 -.639-3.582l-5 4h-2a4.619 4.619 0 0 1 -.99-.1l-.01.1a34.984 34.984 0 0 1 .96 5h.04a2.905 2.905 0 0 0 2.2 1.906z" fill="#ff8847"/><circle cx="16" cy="24" fill="#fffeed" r="1"/><path d="m16 25a1 1 0 1 0 -1-1 1 1 0 0 0 1 1zm7.99-1.25a2.09 2.09 0 0 1 .01.25 8 8 0 1 1 -8-8 7.832 7.832 0 0 1 1.95.24 7.926 7.926 0 0 1 4.61 3.2 7.769 7.769 0 0 1 1.43 4.31z" fill="#fffeed"/><path d="m23.99 23.75a7.769 7.769 0 0 0 -1.43-4.31 7.926 7.926 0 0 0 -4.61-3.2 7.832 7.832 0 0 0 -1.95-.24 8 8 0 1 0 8 8 2.09 2.09 0 0 0 -.01-.25zm-7.99 7.25a7 7 0 1 1 7-7 7 7 0 0 1 -7 7z" fill="#aaf66f"/><path d="m15.294 24.706-3.476 3.476a.993.993 0 0 0 .094 1.5 6.946 6.946 0 0 0 2.952 1.225 1 1 0 0 0 1.136-1v-4.907a.993.993 0 0 1 -.706-.294z" fill="#e0ff79"/><path d="m16 25v4.913a1 1 0 0 0 1.136 1 6.946 6.946 0 0 0 2.952-1.225.993.993 0 0 0 .094-1.5l-3.476-3.476a.993.993 0 0 1 -.706.288z" fill="#e0ff79"/><path d="m22.908 25.136a1 1 0 0 0 -1-1.136h-4.908a1 1 0 0 1 -.294.706l3.476 3.476a.993.993 0 0 0 1.5-.094 6.946 6.946 0 0 0 1.226-2.952z" fill="#e0ff79"/><path d="m15 24h-4.913a1 1 0 0 0 -.995 1.136 6.946 6.946 0 0 0 1.225 2.952.993.993 0 0 0 1.5.094l3.476-3.476a1 1 0 0 1 -.293-.706z" fill="#e0ff79"/><path d="m16.706 23.294 3.476-3.476a.993.993 0 0 0 -.094-1.5 6.946 6.946 0 0 0 -2.952-1.225 1 1 0 0 0 -1.136 1v4.907a1 1 0 0 1 .706.294z" fill="#e0ff79"/><path d="m15.294 23.294-3.476-3.476a.993.993 0 0 0 -1.5.094 6.946 6.946 0 0 0 -1.225 2.952 1 1 0 0 0 .994 1.136h4.913a.993.993 0 0 1 .294-.706z" fill="#e0ff79"/><path d="m17 24h4.913a1 1 0 0 0 1-1.136 6.946 6.946 0 0 0 -1.225-2.952.993.993 0 0 0 -1.5-.094l-3.476 3.476a.993.993 0 0 1 .288.706z" fill="#e0ff79"/><path d="m16 23v-4.913a1 1 0 0 0 -1.136-1 6.946 6.946 0 0 0 -2.952 1.225.993.993 0 0 0 -.094 1.5l3.476 3.476a1 1 0 0 1 .706-.288z" fill="#e0ff79"/><path d="m19 16a7.079 7.079 0 0 1 .094-1.1c0-.013-.005-.025 0-.039.006-.04.019-.079.026-.119.031-.168.069-.332.111-.495.019-.071.032-.145.052-.215a7.9 7.9 0 0 0 -1.073.177 7.975 7.975 0 0 0 -.21 1.791c0 .09.01.177.013.266a7.951 7.951 0 0 1 1.017.332c-.017-.198-.03-.398-.03-.598z" fill="#61db58"/><path d="m27.75 22.77c-.163.043-.327.081-.5.112-.04.007-.079.02-.119.026-.014 0-.026 0-.039 0a6.448 6.448 0 0 1 -2.194 0c-.013 0-.025.005-.039 0-.04-.006-.079-.019-.119-.026-.168-.031-.332-.069-.5-.112-.084-.021-.168-.039-.25-.064l-.119-.034a8.057 8.057 0 0 1 .106 1.063 7.791 7.791 0 0 0 3.8.057 7.941 7.941 0 0 0 .178-1.074c-.055.02-.132.034-.205.052z" fill="#61db58"/><path d="m25.042 15.792c-.072-.059-.149-.111-.223-.167a7.951 7.951 0 0 0 -4.819-1.625c-.241 0-.479.013-.715.035-.021.07-.037.143-.056.215-.042.163-.08.327-.111.495-.009.052-.015.105-.024.158a7.079 7.079 0 0 0 -.094 1.097c0 .2.013.4.03.6.041.017.083.032.124.05a8.021 8.021 0 0 1 3.184 2.483c.077.1.154.2.227.3s.141.214.209.323a7.948 7.948 0 0 1 1.106 2.906c.04.013.079.03.12.042.082.025.166.043.25.064.163.043.327.081.5.112.052.009.105.015.158.024a6.448 6.448 0 0 0 2.194 0c.053-.009.106-.015.158-.024.168-.031.332-.069.5-.112.073-.018.146-.035.218-.055q.022-.352.022-.713a7.951 7.951 0 0 0 -1.625-4.819c-.056-.074-.108-.151-.167-.223m0 0a8.032 8.032 0 0 0 -1.166-1.166" fill="#c5f039"/><path d="m27.76 50.24c2.06 2.07 5.18 2.33 6.13 1.67-2.59 2.49-6.35 2.8-8.48.68s-1.81-5.89.68-8.48c-.66.95-.4 4.07 1.67 6.13z" fill="#ca2a28"/><path d="m29.89 39.91c-2.59 2.49-6.35 2.8-8.48.68s-1.81-5.89.68-8.48c-.66.95-.4 4.07 1.67 6.13s5.18 2.33 6.13 1.67z" fill="#ca2a28"/><path d="m33.89 51.91c-.95.66-4.07.4-6.13-1.67s-2.33-5.18-1.67-6.13a1.1 1.1 0 0 1 .1-.11l7.81 7.81a1.1 1.1 0 0 1 -.11.1z" fill="#ff7170"/><path d="m22.19 32 7.81 7.81a1.1 1.1 0 0 1 -.11.1c-.95.66-4.07.4-6.13-1.67s-2.33-5.18-1.67-6.13a1.1 1.1 0 0 1 .1-.11z" fill="#ff7170"/><path d="m33.89 51.91c-2.59 2.49-6.35 2.8-8.48.68s-1.81-5.89.68-8.48c-.66.95-.4 4.07 1.67 6.13s5.18 2.33 6.13 1.67z" fill="#ca2a28"/><path d="m26.76 51.24a6.63 6.63 0 0 0 5.415 1.918 7.8 7.8 0 0 0 1.715-1.248c-.95.66-4.07.4-6.13-1.67s-2.33-5.18-1.67-6.13a7.8 7.8 0 0 0 -1.248 1.715 6.63 6.63 0 0 0 1.918 5.415z" fill="#e7302e"/><path d="m26.19 44 7.81 7.81a1.1 1.1 0 0 1 -.11.1c-.95.66-4.07.4-6.13-1.67s-2.33-5.18-1.67-6.13a1.1 1.1 0 0 1 .1-.11z" fill="#ff7170"/><path d="m26.782 44.592-.592-.592a1.1 1.1 0 0 0 -.1.11c-.66.95-.4 4.07 1.67 6.13s5.18 2.33 6.13 1.67a1.1 1.1 0 0 0 .11-.1l-.592-.592a6.758 6.758 0 0 1 -6.626-6.626z" fill="#ff9191"/><ellipse cx="30.121" cy="48.75" fill="#ffb0b0" rx=".574" ry=".413"/><ellipse cx="29.121" cy="47.75" fill="#ffb0b0" rx=".413" ry=".574" transform="matrix(.707 -.707 .707 .707 -25.231 34.559)"/><path d="m15.89 41.15c.96 2.36 4.13 4.64 6.11 4a3.044 3.044 0 0 1 -2.11 1.68c-3 .97-7.07-2.25-9.75-8.79a1.778 1.778 0 0 1 1.26-2.4l.98-.32a2.119 2.119 0 0 1 2.7 1.12 4.137 4.137 0 0 1 .09 2.95s.14.34.72 1.76z" fill="#f03332"/><path d="m11.14 37.04a1.668 1.668 0 0 1 -.013-1.286 1.731 1.731 0 0 0 -.987 2.286c2.68 6.54 6.75 9.76 9.75 8.79a3.127 3.127 0 0 0 1.982-1.43 4.766 4.766 0 0 1 -.982.433c-3 .967-7.07-2.253-9.75-8.793z" fill="#ca2a28"/><path d="m14.767 36.555a.7.7 0 0 0 -.157-.165 1.714 1.714 0 0 0 -.664-.358.968.968 0 0 0 -.747.1.452.452 0 0 0 -.147.148.434.434 0 0 0 -.051.193 1.014 1.014 0 0 0 .239.67 2.394 2.394 0 0 0 .573.493c.262.172.978.632 1.161.147a2.383 2.383 0 0 0 -.207-1.228z" fill="#ff7170"/><path d="m29.89 39.91c-2.59 2.49-6.35 2.8-8.48.68s-1.81-5.89.68-8.48c-.66.95-.4 4.07 1.67 6.13s5.18 2.33 6.13 1.67z" fill="#ca2a28"/><path d="m22.76 39.24a6.63 6.63 0 0 0 5.415 1.918 7.8 7.8 0 0 0 1.715-1.248c-.95.66-4.07.4-6.13-1.67s-2.33-5.18-1.67-6.13a7.8 7.8 0 0 0 -1.248 1.715 6.63 6.63 0 0 0 1.918 5.415z" fill="#e7302e"/><path d="m22.19 32 7.81 7.81a1.1 1.1 0 0 1 -.11.1c-.95.66-4.07.4-6.13-1.67s-2.33-5.18-1.67-6.13a1.1 1.1 0 0 1 .1-.11z" fill="#ff7170"/><path d="m22.782 32.592-.592-.592a1.1 1.1 0 0 0 -.1.11c-.66.95-.4 4.07 1.67 6.13s5.18 2.33 6.13 1.67a1.1 1.1 0 0 0 .11-.1l-.592-.592a6.758 6.758 0 0 1 -6.626-6.626z" fill="#ff9191"/><ellipse cx="26.121" cy="36.75" fill="#ffb0b0" rx=".574" ry=".413"/><ellipse cx="25.121" cy="35.75" fill="#ffb0b0" rx=".413" ry=".574" transform="matrix(.707 -.707 .707 .707 -17.919 28.219)"/><path d="m34 22c4 0 4 4 4 4-4 0-4-4-4-4z" fill="#58d14e"/><path d="m41 44s0-4 4-4c0 0 0 4-4 4z" fill="#58d14e"/><path d="m19 51s0-4 4-4c0 0 0 4-4 4z" fill="#58d14e"/><path d="m28 28c4 0 4 4 4 4-4 0-4-4-4-4z" fill="#58d14e"/><path d="m32 32s0-4 4-4c0 0 0 4-4 4z" fill="#58d14e"/><path d="m32 4a28 28 0 1 0 28 28 28 28 0 0 0 -28-28zm0 54a26 26 0 1 1 26-26 26 26 0 0 1 -26 26z" fill="#dce1eb"/><ellipse cx="52.684" cy="34.695" fill="#f6fafd" rx="1.642" ry="2.286" transform="matrix(.707 -.707 .707 .707 -9.098 47.436)"/><ellipse cx="26.682" cy="31.708" fill="#f6fafd" rx=".825" ry="1.148" transform="matrix(.707 -.707 .707 .707 -14.607 28.168)"/><ellipse cx="29.682" cy="49.708" fill="#f6fafd" rx=".825" ry="1.148" transform="matrix(.707 -.707 .707 .707 -26.46 35.566)"/><path d="m32 0a32 32 0 1 0 32 32 32.036 32.036 0 0 0 -32-32zm0 62a30 30 0 1 1 30-30 30.034 30.034 0 0 1 -30 30z"/><path d="m55.99 36a40.464 40.464 0 0 0 -1.021-8.247h-.013a1.029 1.029 0 0 0 -.046-.171l-2.669-5.871a12.979 12.979 0 0 0 -3.005-4.143l-10.477-12.219a1 1 0 0 0 -1.633 1.137l4.085 7.353-2.948-.8a1 1 0 0 0 -1.263.961v1.6a5.024 5.024 0 0 0 1.1 3.123 13.3 13.3 0 0 1 2.9 8.277 6.006 6.006 0 0 0 6 6h2a1 1 0 0 0 .625-.219l3.727-2.981a40.99 40.99 0 0 1 .638 6.263c-.051 1.055-1.396 1.937-2.99 1.937-1.909 0-2.375 0-3.089-1.417-.076-.606-.162-1.2-.261-1.758l-1.968.35a23.4 23.4 0 0 1 .384 6.137h-.014l.01.027a7 7 0 0 1 -1.056 3.4 3.039 3.039 0 0 1 -2.078 1.261 3.571 3.571 0 0 1 -3.836-3 2.379 2.379 0 0 0 -.4-.921l.529-.352a3.993 3.993 0 0 0 1.779-3.327v-2.4a1 1 0 0 0 -1.242-.97l-1.728.432a3.986 3.986 0 0 0 -2.112 1.338 4.9 4.9 0 0 0 -2.563-1.35l-2.155-.43a1 1 0 0 0 -1.2.98v2.392l-7.1-7.1a1 1 0 0 0 -1.413 0c-2.969 2.972-3.318 7.455-.778 10a5.973 5.973 0 0 0 4.285 1.7 8.19 8.19 0 0 0 5.706-2.475h.006l.01-.014a4.506 4.506 0 0 0 1.523 1.3l1.956.931a2.471 2.471 0 0 0 -.121 1.011c.526 5.792 3.859 9.255 8.926 9.255a15.244 15.244 0 0 0 5.761-1.031c.015 0 .027.008.043.011l.006-.029c5.19-2.125 7.19-7.159 7.19-11.951v-3q0-.476-.008-.939c0-.022.008-.043.008-.065zm-28.016 3.194a5.748 5.748 0 0 1 -5.17-5.17zm-5.854.686a4.278 4.278 0 0 1 -.966-4.08 7.6 7.6 0 0 0 5.046 5.046 4.276 4.276 0 0 1 -4.08-.966zm21.558-25.72.411.48c-.089-.026-.172-.063-.262-.087h-.015l.062-.035zm4.971 16.84h-1.649a4 4 0 0 1 -4-4 15.314 15.314 0 0 0 -3.342-9.529 3.008 3.008 0 0 1 -.658-1.871v-.288l4.3 1.173a10.971 10.971 0 0 1 4.471 2.456l1.468 1.713.045-.038a11.047 11.047 0 0 1 1.135 1.93l2.347 5.162zm-11.924 15.628a11.973 11.973 0 0 1 -.658-3.071.494.494 0 0 1 .131-.374.569.569 0 0 1 .931.194 5.862 5.862 0 0 0 .871 2.134 3.737 3.737 0 0 0 -1.275 1.117zm1.79-9.227.485-.121v1.12a2 2 0 0 1 -.891 1.664l-1.109.736v-1.457a2 2 0 0 1 1.515-1.943zm-6.515.999v-1.18l.963.192c1.2.24 2.037 1.034 2.037 1.931v1.55l-1.859-.884a1.922 1.922 0 0 1 -1.141-1.609zm11 12.6a6.261 6.261 0 0 1 -4.987-2.122 1.783 1.783 0 0 1 1.554-1.83 6.307 6.307 0 0 0 3.433.952.969.969 0 0 0 .142-.01 5.8 5.8 0 0 0 .876-.208 4.68 4.68 0 0 0 .643 1.683 4.839 4.839 0 0 0 1.212 1.258 15.018 15.018 0 0 1 -2.873.277zm5.573-1.148a3.767 3.767 0 0 1 -2.21-1.437 2.978 2.978 0 0 1 -.44-1.706 5.33 5.33 0 0 0 .7-.793 6.856 6.856 0 0 0 .89-1.833 7.321 7.321 0 0 0 4.577 2.725 8.728 8.728 0 0 1 -3.517 3.044zm4.5-4.907a5.6 5.6 0 0 1 -4.986-3.917q.045-.7.037-1.414a6.936 6.936 0 0 0 2.876.386 5.8 5.8 0 0 0 3-.82v.82a13.759 13.759 0 0 1 -.927 4.945z"/><path d="m47.5 22.882h2v2.236h-2z" transform="matrix(.894 -.447 .447 .894 -5.613 24.224)"/><path d="m9.243 36.253a2.681 2.681 0 0 0 -.029 2.163c2.44 5.967 6.121 9.594 9.532 9.594a4.659 4.659 0 0 0 1.452-.23 4 4 0 0 0 2.7-2.2 1 1 0 0 0 -1.212-1.38c-1.367.448-4.064-1.44-4.876-3.423l-.574-1.4a5.439 5.439 0 0 0 -.235-3.312 3.12 3.12 0 0 0 -3.929-1.691l-.106.034-.728-1.779-1.851.757.74 1.81a2.831 2.831 0 0 0 -.884 1.057zm3.906-.056a1.03 1.03 0 0 1 1.005.618 3.287 3.287 0 0 1 .114 2.152.993.993 0 0 0 -.023.806l.719 1.759a8.539 8.539 0 0 0 4.536 4.368c-2.268.634-5.859-1.961-8.43-8.246a.679.679 0 0 1 -.007-.563 1.045 1.045 0 0 1 .646-.506l.989-.319a1.5 1.5 0 0 1 .451-.066z"/><path d="m32 28.877a4.641 4.641 0 0 0 -4-1.877 1 1 0 0 0 -1 1 4.821 4.821 0 0 0 5 5 4.821 4.821 0 0 0 5-5 1 1 0 0 0 -1-1 4.641 4.641 0 0 0 -4 1.877zm-2.783.316a2.557 2.557 0 0 1 1.566 1.614 2.554 2.554 0 0 1 -1.566-1.614zm4 1.614a2.559 2.559 0 0 1 1.566-1.614 2.559 2.559 0 0 1 -1.566 1.614z"/><path d="m34.707 51.1-7.807-7.807a1 1 0 0 0 -1.413 0l-.007.009c-2.965 2.972-3.313 7.452-.774 9.993a5.973 5.973 0 0 0 4.285 1.7 8.19 8.19 0 0 0 5.709-2.478h.006a1 1 0 0 0 .001-1.417zm-2.732.1a5.75 5.75 0 0 1 -5.175-5.176zm-5.855.685a4.278 4.278 0 0 1 -.966-4.08 7.6 7.6 0 0 0 5.046 5.041 4.275 4.275 0 0 1 -4.08-.966z"/><path d="m16 33a9.013 9.013 0 0 0 8.951-8.066 9.174 9.174 0 0 0 1.049.066 9 9 0 1 0 -8.951-9.934 9 9 0 1 0 -1.049 17.934zm10-24a7 7 0 0 1 0 14 7.116 7.116 0 0 1 -1.073-.091 8.928 8.928 0 0 0 -1.095-3.327l.754-.754-1.414-1.414-.532.532a8.994 8.994 0 0 0 -1-.946h1.36v-2h-2v1.522a8.95 8.95 0 0 0 -1.976-.988 7 7 0 0 1 6.976-6.534zm-10 8a7 7 0 1 1 -7 7 7.008 7.008 0 0 1 7-7z"/><path d="m15 19h2v2h-2z"/><path d="m15 27h2v2h-2z"/><path d="m19 23h2v2h-2z"/><path d="m11 23h2v2h-2z"/><circle cx="16" cy="24" r="2"/><path d="m17.828 25.828h2v2h-2z" transform="matrix(.707 -.707 .707 .707 -13.455 21.166)"/><path d="m12.172 20.172h2v2h-2z" transform="matrix(.707 -.707 .707 .707 -11.112 15.511)"/><path d="m12.172 25.828h2v2h-2z" transform="matrix(.707 -.707 .707 .707 -15.113 17.172)"/><path d="m17.828 20.172h2v2h-2z" transform="matrix(.707 -.707 .707 .707 -9.456 19.515)"/><path d="m25 11h2v2h-2z"/><path d="m25 19h2v2h-2z"/><path d="m29 15h2v2h-2z"/><circle cx="26" cy="16" r="2"/><path d="m27.828 17.828h2v2h-2z" transform="matrix(.707 -.707 .707 .707 -4.871 25.893)"/><path d="m22.172 12.172h2v2h-2z" transform="matrix(.707 -.707 .707 .707 -2.528 20.238)"/><path d="m27.828 12.172h2v2h-2z" transform="matrix(.707 -.707 .707 .707 -.87 24.242)"/><path d="m17.258 11.807-1.18-1.614a27.225 27.225 0 0 0 -3.561 3.114l1.443 1.385a25.245 25.245 0 0 1 3.298-2.885z"/><path d="m32 57a25.028 25.028 0 0 1 -25-25 25.811 25.811 0 0 1 .164-2.886l-1.986-.227a27.478 27.478 0 0 0 -.178 3.113 27.006 27.006 0 0 0 41.4 22.847l-1.068-1.692a24.919 24.919 0 0 1 -13.332 3.845z"/><path d="m44.46 8.041-.924 1.773a25.045 25.045 0 0 1 13 26.995l1.963.382a27.043 27.043 0 0 0 -14.039-29.15z"/><path d="m36.152 5.317c-.687-.106-1.385-.186-2.076-.238l-.152 1.994c.639.049 1.287.123 1.924.221z"/><path d="m32 7v-2a27.368 27.368 0 0 0 -3.115.178l.228 1.987a25.434 25.434 0 0 1 2.887-.165z"/></g></svg>