<svg id="Capa_1" enable-background="new 0 0 511.997 511.997" viewBox="0 0 511.997 511.997" xmlns="http://www.w3.org/2000/svg"><g><circle cx="255.997" cy="256" fill="#01c0fa" r="248.5"/><path d="m421.43 70.567c39.225 43.936 63.067 101.901 63.067 165.433 0 137.243-111.257 248.5-248.5 248.5-63.533 0-121.497-23.842-165.433-63.067 45.508 50.974 111.723 83.067 185.433 83.067 137.243 0 248.5-111.257 248.5-248.5 0-73.71-32.092-139.924-83.067-185.433z" fill="#08a9f1"/><circle cx="255.997" cy="92.922" fill="#fd4755" r="85.422"/><path d="m308.435 25.485c11.271 14.474 17.984 32.672 17.984 52.438 0 47.177-38.245 85.422-85.422 85.422-19.766 0-37.963-6.714-52.438-17.984 15.631 20.073 40.026 32.984 67.438 32.984 47.177 0 85.422-38.245 85.422-85.422 0-27.412-12.912-51.808-32.984-67.438z" fill="#fb2b3a"/><circle cx="255.997" cy="92.922" fill="#fece85" r="54.359"/><path d="m286.2 47.719c5.783 8.638 9.156 19.027 9.156 30.203 0 30.022-24.338 54.359-54.359 54.359-11.176 0-21.565-3.373-30.203-9.156 9.752 14.566 26.357 24.156 45.203 24.156 30.022 0 54.359-24.338 54.359-54.359 0-18.845-9.59-35.451-24.156-45.203z" fill="#fec165"/><path d="m99.74 178.344h75.915l-42.878 124.25h-63.686c-8.284 0-15-6.716-15-15v-63.802z" fill="#f2fbff"/><path d="m54.091 282.594v5c0 8.284 6.716 15 15 15h63.685l6.902-20z" fill="#c8effe"/><path d="m175.655 178.344h143c8.28 0 15 6.72 15 15v41.65l-139.783 5.474z" fill="#f2fbff"/><path d="m132.776 302.594h185.877c8.284 0 15-6.716 15-15v-52.595c-2.391-5.634-5.247-11.073-10.484-13.396-8.654-3.839-22.426 5.834-33.06 3.836-9.542-1.793-18.501-16.032-29.092-16.032-10.592 0-19.551 14.239-29.092 16.032-10.634 1.998-24.406-7.675-33.06-3.836-10.259 4.551-11.383 21.054-17.766 27.567z" fill="#a2e62e"/><path d="m452.903 240.469h-119.25v-31.062h119.25c2.761 0 5 2.239 5 5v21.062c0 2.762-2.238 5-5 5z" fill="#97d729"/><path d="m175.656 178.344c-17.109 0-30.13 15.354-27.335 32.233l2.342 14.143c1.442 8.711-3.216 17.457-11.434 20.685-10.541 4.14-22.019-1.864-24.866-12.486l-22.803-13.165-31.15 27.622c10.914 40.732 53.562 64.486 94.216 51.791 36.45-11.383 58.046-48.928 50.613-86.384l-2.406-12.125c-2.574-12.97-13.954-22.314-27.177-22.314z" fill="#f9b1b1"/><path d="m54.091 223.792 6.32 23.585 53.953-14.457-14.624-54.576h-30.649c-8.284 0-15 6.716-15 15z" fill="#f37c7c"/><path d="m318.655 178.344h-5l-.001 57.433 20.001-.783v-41.65c0-8.28-6.72-15-15-15z" fill="#c8effe"/><path d="m323.169 221.603c-2.745-1.218-6.004-1.076-9.515-.379l-.001 56.37c0 2.761-2.239 5-5 5h-157.787l-18.09 20h185.877c8.284 0 15-6.716 15-15v-52.595c-2.391-5.634-5.247-11.073-10.484-13.396z" fill="#97d729"/><path d="m81.569 282.594c18.864 17.544 46.389 24.901 73.057 16.573 10.922-3.411 20.51-9.17 28.383-16.573z" fill="#f79595"/><path d="m451.691 301.041-118.037-29.509v-31.062l120.463 30.116c2.226.556 3.787 2.556 3.787 4.851v20.755c-.001 3.251-3.058 5.638-6.213 4.849z" fill="#8bc727"/><path d="m412.254 302.594h-75.914l42.878 124.25h63.685c8.284 0 15-6.716 15-15v-63.802z" fill="#f2fbff"/><path d="m437.903 328.13v73.714c0 2.761-2.239 5-5 5h-60.587l6.902 20h63.685c8.284 0 15-6.716 15-15v-63.802z" fill="#c8effe"/><path d="m336.34 302.594h-143c-8.28 0-15 6.72-15 15v41.65l139.782 5.474z" fill="#f2fbff"/><path d="m379.218 426.844h-185.877c-8.284 0-15-6.716-15-15v-52.595c2.391-5.634 5.247-11.073 10.484-13.396 8.654-3.839 22.426 5.834 33.06 3.836 9.542-1.793 18.501-16.032 29.092-16.032 10.592 0 19.551 14.239 29.092 16.032 10.634 1.998 24.406-7.675 33.06-3.836 10.259 4.551 11.383 21.054 17.766 27.567z" fill="#a2e62e"/><path d="m59.091 364.719h119.25v-31.062h-119.25c-2.761 0-5 2.239-5 5v21.062c0 2.762 2.238 5 5 5z" fill="#97d729"/><path d="m336.338 302.594c17.109 0 30.13 15.354 27.335 32.233l-2.342 14.143c-1.442 8.711 3.216 17.457 11.434 20.685 10.541 4.14 22.019-1.864 24.866-12.486l22.803-13.165 31.15 27.622c-10.914 40.732-53.562 64.486-94.216 51.791-36.45-11.383-58.046-48.928-50.613-86.384l2.406-12.125c2.574-12.97 13.954-22.314 27.177-22.314z" fill="#f9b1b1"/><path d="m457.903 348.042-6.32 23.585-53.953-14.457 14.623-54.576h30.649c8.284 0 15 6.716 15 15v30.448z" fill="#f37c7c"/><path d="m359.216 406.843.002.001-.001-.001z" fill="#97d729"/><path d="m178.341 406.844v5c0 8.284 6.716 15 15 15h185.877l-18.09-20z" fill="#97d729"/><path d="m437.903 359.495v39.282c6.203-7.776 10.941-16.929 13.68-27.151z" fill="#f9b1b1"/><path d="m328.985 406.844c7.873 7.402 17.461 13.162 28.383 16.573 26.668 8.328 54.193.972 73.057-16.573z" fill="#f79595"/><path d="m359.216 406.843.002.001-.001-.001z" fill="#f9b1b1"/><path d="m442.903 302.594h-5v65.367l13.68 3.666 6.32-23.585v-30.448c0-8.284-6.715-15-15-15z" fill="#ee6161"/><path d="m60.303 425.291 118.037-29.509v-31.062l-120.462 30.115c-2.226.556-3.787 2.556-3.787 4.851v20.755c0 3.252 3.057 5.639 6.212 4.85z" fill="#8bc727"/><path d="m255.997 31.063c-34.109 0-61.859 27.75-61.859 61.859s27.75 61.859 61.859 61.859 61.859-27.75 61.859-61.859-27.75-61.859-61.859-61.859zm0 108.719c-25.838 0-46.859-21.021-46.859-46.859s21.021-46.859 46.859-46.859 46.859 21.021 46.859 46.859-21.021 46.859-46.859 46.859z"/><circle cx="247.966" cy="77.125" r="7.5"/><circle cx="271.528" cy="100.688" r="7.5"/><circle cx="240.466" cy="108.719" r="7.5"/><path d="m511.997 256c0-68.38-26.629-132.667-74.98-181.02-48.353-48.351-112.64-74.98-181.02-74.98-43.412 0-86.301 11.066-124.031 32.002-3.622 2.009-4.929 6.574-2.92 10.196 2.011 3.622 6.576 4.929 10.197 2.919 17.596-9.763 36.386-17.245 55.839-22.31-19.598 17.049-32.007 42.16-32.007 70.115 0 32.6 16.875 61.332 42.348 77.922h-136.332c-12.406 0-22.5 10.094-22.5 22.5v94.25c0 12.406 10.094 22.5 22.5 22.5h103.034c-.832 2.347-1.285 4.872-1.285 7.5v8.562h-111.749c-6.893 0-12.5 5.607-12.5 12.5v21.062c0 6.893 5.607 12.5 12.5 12.5h58.324l-61.356 15.339c-.574.144-1.129.326-1.665.542-25.8-39.26-39.394-84.748-39.394-132.102 0-76.055 34.795-146.075 95.463-192.105 3.3-2.503 3.945-7.208 1.441-10.508-2.501-3.298-7.206-3.944-10.508-1.441-30.815 23.38-56.334 53.919-73.798 88.314-18.313 36.068-27.598 75.008-27.598 115.74 0 53.122 16.108 104.04 46.591 147.293v17.15c0 3.875 1.752 7.467 4.806 9.852 2.23 1.742 4.916 2.654 7.667 2.654 1.018 0 2.044-.125 3.06-.378l6.884-1.721c10.345 11.056 21.707 21.235 33.815 30.288 1.348 1.008 2.923 1.494 4.485 1.494 2.284 0 4.539-1.039 6.012-3.009 2.481-3.316 1.803-8.017-1.515-10.497-9.159-6.85-17.866-14.384-25.987-22.479l85.024-21.256v6.456c0 12.406 10.094 22.5 22.5 22.5h91.264c4.143 0 7.5-3.357 7.5-7.5s-3.357-7.5-7.5-7.5h-20.969l-16.062-16.062h36.114c4.143 0 7.5-3.357 7.5-7.5s-3.357-7.5-7.5-7.5h-9.583l2.728-2.728c2.929-2.93 2.929-7.678 0-10.607-2.93-2.928-7.678-2.928-10.607 0l-13.335 13.335h-25.38l2.285-2.285c2.929-2.929 2.929-7.678-.001-10.606-2.928-2.928-7.677-2.929-10.606.001l-12.89 12.891h-20.457v-27.476c1.634-3.663 3.518-6.985 6.026-8.098 2.064-.916 7.372.622 11.637 1.858 6.088 1.765 12.99 3.762 19.767 2.493 6.173-1.16 11.24-5.225 16.142-9.154 4.138-3.318 8.416-6.749 11.565-6.749 3.15 0 7.429 3.431 11.565 6.749 4.901 3.93 9.97 7.994 16.143 9.154 6.545 1.229 13.2-.593 19.131-2.309.842 25.966 13.756 49.872 34.565 64.594h-11.777c-4.143 0-7.5 3.357-7.5 7.5s3.357 7.5 7.5 7.5h97.5c-44.418 40.523-101.366 62.652-162.107 62.652-39.869 0-79.365-9.935-114.221-28.729-3.645-1.965-8.195-.604-10.161 3.042s-.604 8.195 3.042 10.161c37.035 19.97 78.994 30.525 121.34 30.525 35.534 0 69.935-7.146 102.245-21.239 30.649-13.369 58.026-32.343 81.398-56.413h3.26c12.406 0 22.5-10.094 22.5-22.5v-8.558c30.484-43.261 46.594-94.176 46.594-147.286zm-333.922-163.078c0-42.966 34.956-77.922 77.922-77.922s77.922 34.956 77.922 77.922c0 5.434-.562 10.858-1.67 16.125-.853 4.054 1.742 8.03 5.796 8.884 4.053.85 8.031-1.743 8.884-5.796 1.32-6.28 1.99-12.744 1.99-19.213 0-27.963-12.416-53.08-32.024-70.129 103.501 27.046 180.102 121.35 180.102 233.207 0 42.316-10.861 83.148-31.594 119.383v-57.789c0-4.603-1.39-8.886-3.771-12.455 2.411-2.343 3.771-5.536 3.771-8.949v-20.754c0-5.746-3.894-10.733-9.468-12.128l-61.356-15.339h58.324c6.893 0 12.5-5.607 12.5-12.5v-21.062c0-6.893-5.607-12.5-12.5-12.5h-111.749v-8.562c0-12.406-10.094-22.5-22.5-22.5h-12.094c9.553-6.19 18.012-14.148 24.829-23.594 2.425-3.359 1.667-8.047-1.691-10.471-3.359-2.423-8.046-1.668-10.471 1.691-14.631 20.271-38.269 32.373-63.23 32.373-42.966 0-77.922-34.956-77.922-77.922zm181.529 323.336c-2.316-.723-4.566-1.563-6.745-2.511l20.78-35.983c1.728.406 3.484.633 5.241.685l10.761 40.172c-10 1.513-20.216.705-30.037-2.363zm-46.052-53.967c-1.17-7.696-1.042-15.728.559-23.798l2.406-12.125c1.872-9.43 10.207-16.273 19.82-16.273 5.947 0 11.564 2.602 15.411 7.138s5.496 10.503 4.524 16.37l-2.342 14.143c-.212 1.282-.328 2.562-.354 3.833zm-133.939-67.197c20.808-14.722 33.723-38.627 34.565-64.593 5.93 1.716 12.589 3.537 19.131 2.309 6.173-1.16 11.24-5.225 16.142-9.154 4.138-3.318 8.416-6.749 11.565-6.749 3.15 0 7.429 3.431 11.565 6.749 4.901 3.93 9.97 7.994 16.143 9.154 6.779 1.275 13.679-.728 19.767-2.493 4.265-1.236 9.569-2.774 11.638-1.858 2.508 1.113 4.392 4.435 6.025 8.098v27.476h-20.457l-12.89-12.891c-2.929-2.929-7.678-2.93-10.606-.001-2.93 2.929-2.93 7.678-.001 10.606l2.285 2.285h-25.38l-13.335-13.335c-2.93-2.928-7.678-2.928-10.607 0-2.929 2.93-2.929 7.678 0 10.607l2.728 2.728h-9.583c-4.143 0-7.5 3.357-7.5 7.5s3.357 7.5 7.5 7.5h36.114l-16.062 16.062zm82.835-109.25c1.094 5.376 1.625 10.822 1.588 16.293-.982-.149-1.988-.23-3.02-.23-4.929 0-9.253 1.829-13.168 4.289.326-6.801-.08-13.634-1.217-20.352zm78.705 95.294 55.825 13.956h-57.11c.832-2.347 1.285-4.872 1.285-7.5zm49.234 74.09c-.001.003-.002.007-.002.01-1.668 6.205-8.415 9.971-14.876 7.438-4.812-1.891-7.662-7.139-6.777-12.479l2.342-14.143c1.515-9.152-.629-18.442-5.903-25.959h37.311zm27.622-45.134h24.895c4.136 0 7.5 3.364 7.5 7.5v29.46l-4.123 15.387-39.464-10.575zm32.394-17.105-109.25-27.313v-15.6l109.25 27.312zm-109.249-76.082h109.249v16.062h-109.249zm-15-2.184c-5.44-2.39-11.354-1.584-16.953-.168 1.315-9.524 1.167-19.219-.441-28.711h9.894c4.136 0 7.5 3.364 7.5 7.5zm-32.649-28.879c2.165 10.679 2.109 21.721-.166 32.371-3.527.027-5.925-1.892-11.373-6.261-1.056-.847-2.137-1.714-3.249-2.566.652-7.892.313-15.772-1.01-23.543h15.798zm-62.217 32.024c-3.42 1.156-9.875-.886-13.568-1.957-1.491-.432-3.006-.872-4.533-1.267-.175-1.106-.371-2.213-.591-3.32l-2.406-12.125c-.977-4.922-2.965-9.44-5.721-13.354h26.907c2.136 10.539 2.111 21.486-.088 32.023zm-59.165 64.123-20.793-36.006c1.191-1.284 2.25-2.685 3.163-4.179l40.072 10.726c-4.558 11.678-12.294 21.934-22.442 29.459zm23.354-79.873 2.406 12.125c1.602 8.071 1.73 16.103.559 23.798l-40.026-10.713c-.025-1.271-.141-2.551-.354-3.833l-2.342-14.143c-.972-5.867.678-11.834 4.524-16.37s9.464-7.138 15.411-7.138c9.615 0 17.949 6.844 19.822 16.274zm-54.555 9.685 2.342 14.143c.885 5.341-1.966 10.589-6.777 12.479-6.446 2.532-13.205-1.222-14.876-7.437-.001-.003-.002-.007-.002-.01l-12.094-45.134h37.312c-5.276 7.517-7.42 16.807-5.905 25.959zm-30.797 30.016c2.122 3.435 5.027 6.357 8.5 8.504l-10.752 40.136c-2.657-1.05-5.266-2.277-7.813-3.679-13.919-7.66-24.396-19.642-30.069-34.206zm12.229 52.551 10.761-40.172c1.757-.052 3.513-.279 5.24-.685l20.781 35.984c-2.179.948-4.429 1.788-6.745 2.511-10.155 3.172-20.382 3.824-30.037 2.362zm147.219.724 16.062-16.062h40.518v8.562c0 4.136-3.364 7.5-7.5 7.5zm134.548 119.615-10.752-40.136c3.473-2.147 6.378-5.068 8.5-8.504l40.133 10.754c-5.673 14.564-16.15 26.546-30.069 34.206-2.547 1.403-5.156 2.63-7.812 3.68zm-342.53-221.365c0-4.136 3.364-7.5 7.5-7.5h24.894l11.193 41.771-39.464 10.575-4.123-15.387zm0 94.25v-18.006c5.866 10.054 13.827 18.723 23.492 25.506h-15.992c-4.136 0-7.5-3.364-7.5-7.5zm0 53.563h109.249v16.062h-109.249zm0 76.082v-15.602l109.25-27.312v15.6zm164.767-13.957 16.062 16.062h-49.08c-4.136 0-7.5-3.364-7.5-7.5v-8.562zm-40.518-64.308v-21.379c0-4.136 3.364-7.5 7.5-7.5h9.894c-1.608 9.492-1.755 19.186-.441 28.711-5.601-1.418-11.516-2.224-16.953.168zm34.661 3.344c-.57.107-1.189.152-1.846.146-2.275-10.649-2.33-21.692-.166-32.37h15.799c-1.323 7.771-1.663 15.651-1.01 23.543-1.112.853-2.193 1.72-3.249 2.566-3.464 2.777-7.044 5.648-9.528 6.115zm30.477-16.161c-1.032 0-2.038.081-3.019.23-.037-5.47.493-10.917 1.588-16.293h15.818c-1.137 6.718-1.543 13.551-1.217 20.352-3.917-2.46-8.241-4.289-13.17-4.289zm29.728 15.961c-2.199-10.537-2.224-21.484-.088-32.023h26.907c-2.756 3.914-4.744 8.431-5.721 13.354-2.37 12.042-2.553 12.633-2.997 15.445-1.527.396-3.042.835-4.533 1.267-3.687 1.069-10.167 3.106-13.568 1.957zm36.723 34.664 40.072-10.726c.913 1.493 1.972 2.895 3.163 4.179l-20.793 36.006c-10.148-7.525-17.884-17.781-22.442-29.459zm125.474 42.562h-15.992c9.666-6.783 17.627-15.452 23.492-25.506v18.006c0 4.136-3.364 7.5-7.5 7.5z"/></g><g/><g/><g/><g/><g/><g/><g/><g/><g/><g/><g/><g/><g/><g/><g/></svg>