<?xml version="1.0" encoding="iso-8859-1"?>
<!-- Generator: Adobe Illustrator 19.0.0, SVG Export Plug-In . SVG Version: 6.00 Build 0)  -->
<svg version="1.1" id="Layer_1" xmlns="http://www.w3.org/2000/svg" xmlns:xlink="http://www.w3.org/1999/xlink" x="0px" y="0px"
	 viewBox="0 0 512 512" style="enable-background:new 0 0 512 512;" xml:space="preserve">
<path style="fill:#88888F;" d="M256,84.396c-4.661,0-8.44-3.778-8.44-8.44V42.198c0-4.662,3.779-8.44,8.44-8.44
	c4.661,0,8.44,3.778,8.44,8.44v33.758C264.44,80.618,260.661,84.396,256,84.396z"/>
<g>
	<path style="fill:#D8D8DA;" d="M256,75.956c-111.865,0-202.549,90.685-202.549,202.549v11.253h405.099v-11.253
		C458.549,166.641,367.865,75.956,256,75.956z"/>
	<circle style="fill:#D8D8DA;" cx="256" cy="25.319" r="16.879"/>
</g>
<g>
	<path style="fill:#C5C5CA;" d="M256,8.44c-1.976,0-3.864,0.357-5.626,0.981c6.551,2.319,11.253,8.552,11.253,15.898
		s-4.701,13.579-11.253,15.898c1.762,0.625,3.65,0.981,5.626,0.981c9.322,0,16.879-7.557,16.879-16.879S265.322,8.44,256,8.44z"/>
	<path style="fill:#C5C5CA;" d="M256,75.956c-9.548,0-18.936,0.676-28.132,1.953c98.547,13.696,174.418,98.278,174.418,200.596
		h56.264C458.549,166.641,367.865,75.956,256,75.956z"/>
</g>
<path style="fill:#EDEDED;" d="M464.176,312.264H47.824c-9.322,0-16.879-7.557-16.879-16.879l0,0
	c0-9.322,7.557-16.879,16.879-16.879h416.352c9.322,0,16.879,7.557,16.879,16.879l0,0
	C481.055,304.706,473.498,312.264,464.176,312.264z"/>
<path style="fill:#D8D8DA;" d="M464.176,278.505h-56.264c9.322,0,16.879,7.557,16.879,16.879c0,9.322-7.557,16.879-16.879,16.879
	h56.264c9.322,0,16.879-7.557,16.879-16.879C481.055,286.063,473.498,278.505,464.176,278.505z"/>
<path style="fill:#F7CEBC;" d="M154.725,436.044V334.769c0-12.43,10.076-22.505,22.505-22.505l0,0
	c12.43,0,22.505,10.076,22.505,22.505v45.011l54.143-54.143c8.563-8.563,20.177-13.374,32.288-13.374h73.32
	c9.504,0,15.829,9.823,11.896,18.475l-59.119,105.305H154.725z"/>
<path style="fill:#F7BA9E;" d="M359.486,312.264h-45.011c9.504,0,15.829,9.823,11.896,18.475l-59.119,105.305h45.011l59.119-105.305
	C375.315,322.086,368.99,312.264,359.486,312.264z"/>
<rect x="154.725" y="436.044" style="fill:#98C8ED;" width="157.538" height="67.516"/>
<rect x="267.253" y="436.044" style="fill:#7AB9E8;" width="45.011" height="67.516"/>
<circle style="fill:#EDEDED;" cx="202.549" cy="466.989" r="8.44"/>
<path style="fill:#2E2D31;" d="M466.811,270.203C462.543,160.5,374.125,72.039,264.44,67.7V49.186
	c9.823-3.484,16.879-12.865,16.879-23.867C281.319,11.359,269.961,0,256,0c-13.961,0-25.319,11.359-25.319,25.319
	c0,11.002,7.057,20.383,16.879,23.867v18.506c-45.198,1.825-89.009,18.246-124.19,46.715c-3.623,2.931-4.184,8.246-1.252,11.869
	c2.932,3.625,8.247,4.185,11.869,1.251C168.361,99.713,211.692,84.396,256,84.396c104.204,0,189.493,82.539,193.929,185.67H62.076
	c1.814-41.344,16.902-81.387,42.947-113.573c2.932-3.623,2.372-8.937-1.251-11.869c-3.621-2.931-8.936-2.372-11.869,1.251
	c-28.498,35.217-44.922,79.08-46.719,124.328c-12.725,1.327-22.678,12.114-22.678,25.181c0,13.96,11.357,25.319,25.319,25.319
	h101.858c-2.165,4.223-3.396,9.002-3.396,14.066v101.275v67.516c0,4.662,3.779,8.44,8.44,8.44h157.538c4.661,0,8.44-3.778,8.44-8.44
	v-22.505c0-4.662-3.779-8.44-8.44-8.44s-8.44,3.778-8.44,8.44v14.066H163.165v-50.637h149.099c3.052,0,5.865-1.647,7.359-4.308
	l59.119-105.305c0.117-0.209,0.225-0.422,0.324-0.639c1.964-4.32,2.417-9.052,1.426-13.528h83.684
	c13.961,0,25.319-11.359,25.319-25.319C489.495,282.313,479.538,271.525,466.811,270.203z M256,16.879c4.654,0,8.44,3.785,8.44,8.44
	s-3.785,8.44-8.44,8.44c-4.654,0-8.44-3.785-8.44-8.44S251.346,16.879,256,16.879z M363.377,322.827
	c0.394,0.612,1.196,2.208,0.429,4.167l-56.483,100.611H163.165v-92.835c0-7.757,6.309-14.066,14.066-14.066
	c7.757,0,14.066,6.309,14.066,14.066v45.011c0,3.413,2.056,6.492,5.21,7.797c3.155,1.309,6.784,0.585,9.197-1.829l54.143-54.143
	c7.031-7.031,16.378-10.903,26.32-10.903h73.32C361.765,320.703,362.966,322.188,363.377,322.827z M204.78,320.703h42.097
	l-38.7,38.703v-24.637C208.176,329.706,206.946,324.926,204.78,320.703z M464.176,303.824H47.824c-4.654,0-8.44-3.785-8.44-8.44
	c0-4.654,3.785-8.44,8.44-8.44h416.352c4.654,0,8.44,3.785,8.44,8.44C472.615,300.039,468.83,303.824,464.176,303.824z"/>
<g>
</g>
<g>
</g>
<g>
</g>
<g>
</g>
<g>
</g>
<g>
</g>
<g>
</g>
<g>
</g>
<g>
</g>
<g>
</g>
<g>
</g>
<g>
</g>
<g>
</g>
<g>
</g>
<g>
</g>
</svg>
